<?xml version="1.0" standalone="no"?><!DOCTYPE svg PUBLIC "-//W3C//DTD SVG 1.1//EN" "http://www.w3.org/Graphics/SVG/1.1/DTD/svg11.dtd" ><svg xmlns="http://www.w3.org/2000/svg"><metadata></metadata><defs><font id="fonteditor" horiz-adv-x="256"><font-face font-family="ÑOS" font-weight="400" font-stretch="normal" units-per-em="256" panose-1="2 1 6 9 6 1 1 1 1 1" ascent="220" descent="-36" x-height="1" bbox="0 -39 255 220" underline-thickness="0" underline-position="0" unicode-range="U+0021-ffe5" /><missing-glyph horiz-adv-x="256" d="M224 -13 L28 -13 L28 193 L224 193 L224 -13 ZM216 186 L35 186 L35 -6 L216 -6 L216 186 Z" /><glyph glyph-name="exclam" unicode="!" d="M48 189 L76 189 L69 56 L55 56 L48 189 ZM48 34 L76 34 L76 5 L48 5 L48 34 Z" /><glyph glyph-name="quotedbl" unicode="&quot;" d="M56 181 Q53 168 52 155 L50 129 L35 129 L34 161 Q33 171 32 181 L56 181 ZM96 181 Q93 168 92 155 L90 129 L75 129 L74 161 Q73 171 72 181 L96 181 Z" /><glyph glyph-name="numbersign" unicode="#" d="M120 51 L90 51 L84 5 L68 5 L74 51 L41 51 L35 5 L19 5 L25 51 L5 51 L5 70 L27 70 L33 112 L5 112 L5 131 L35 131 L41 176 L57 176 L51 131 L84 131 L90 176 L106 176 L100 131 L120 131 L120 112 L98 112 L92 70 L120 70 L120 51 ZM82 112 L49 112 L43 70 L76 70 L82 112 Z" /><glyph glyph-name="dollar" unicode="$" d="M109 53 Q109 27 96 15 Q83 3 69 3 L69 -22 L55 -22 L55 3 Q38 3 25.5 17 Q13 31 13 60 L36 60 Q36 35 43 28.5 Q50 22 55 22 L55 87 Q31 100 24 110.5 Q17 121 17 135 Q17 153 27.5 164.5 Q38 176 55 178 L55 197 L69 197 L69 178 Q86 178 96.5 164.5 Q107 151 107 131 L85 131 Q85 146 79.5 152.5 Q74 159 69 159 L69 103 Q85 95 97 83 Q109 71 109 53 ZM55 111 L55 159 Q49 159 43.5 153.5 Q38 148 38 137 Q38 130 41 123.5 Q44 117 55 111 ZM87 48 Q87 59 82 66 Q77 73 69 79 L69 22 Q75 23 81 28 Q87 33 87 48 Z" /><glyph glyph-name="percent" unicode="%" d="M56 133 Q56 104 47.5 96 Q39 88 31 88 Q23 88 14.5 96 Q6 104 6 133 Q6 162 14.5 170 Q23 178 31 178 Q39 178 47.5 170 Q56 162 56 133 ZM105 175 L28 3 L20 6 L97 178 L105 175 ZM119 48 Q119 19 110.5 11 Q102 3 94 3 Q86 3 77.5 11 Q69 19 69 48 Q69 77 77.5 85 Q86 93 94 93 Q102 93 110.5 85 Q119 77 119 48 ZM40 133 Q40 151 38 157 Q36 163 31 163 Q26 163 24 157 Q22 151 22 133 Q22 115 24 109 Q26 103 31 103 Q36 103 38 109 Q40 115 40 133 ZM103 48 Q103 66 101 72 Q99 78 94 78 Q89 78 87 72 Q85 66 85 48 Q85 30 87 24 Q89 18 94 18 Q99 18 101 24 Q103 30 103 48 Z" /><glyph glyph-name="ampersand" unicode="&amp;" d="M122 25 L113 5 Q107 9 102.5 12 Q98 15 93 20 Q85 12 76 7.5 Q67 3 55 3 Q35 3 20.5 15 Q6 27 6 52 Q6 68 14.5 78.5 Q23 89 35 98 Q30 109 27 120 Q24 131 24 140 Q24 158 34.5 168 Q45 178 60 178 Q73 178 82 169.5 Q91 161 91 145 Q91 126 80.5 114.5 Q70 103 57 95 Q64 83 71.5 72.5 Q79 62 89 51 Q92 58 93 64.5 Q94 71 94 81 L114 81 Q114 68 111.5 57.5 Q109 47 104 38 Q107 35 112.5 31 Q118 27 122 25 ZM72 145 Q72 152 68.5 156 Q65 160 59 160 Q53 160 48 155 Q43 150 43 141 Q43 134 44.5 126.5 Q46 119 50 110 Q58 114 65 122.5 Q72 131 72 145 ZM79 33 Q66 47 57 59 Q48 71 42 83 Q34 77 30.5 69.5 Q27 62 27 51 Q27 36 36 28.5 Q45 21 57 21 Q64 21 69 24 Q74 27 79 33 Z" /><glyph glyph-name="quotesingle" unicode="&#39;" d="M68 178 Q65 165 64 152 L62 126 L47 126 L46 158 Q45 168 44 178 L68 178 Z" /><glyph glyph-name="parenleft" unicode="(" d="M119 -8 L108 -19 Q83 5 70.5 31 Q58 57 58 90 Q58 123 70.5 149 Q83 175 108 200 L119 189 Q96 167 84.5 143.5 Q73 120 73 90 Q73 60 84.5 36.5 Q96 13 119 -8 Z" /><glyph glyph-name="parenright" unicode=")" d="M67 90 Q67 57 54.5 31 Q42 5 17 -19 L6 -8 Q29 13 40.5 36.5 Q52 60 52 90 Q52 120 40.5 143.5 Q29 167 6 189 L17 200 Q42 175 54.5 149 Q67 123 67 90 Z" /><glyph glyph-name="asterisk" unicode="*" d="M123 94 L113 76 L72 102 L74 51 L54 51 L56 102 L15 76 L5 94 L48 116 L5 138 L15 156 L56 130 L54 178 L74 178 L72 130 L113 156 L123 138 L80 116 L123 94 Z" /><glyph glyph-name="plus" unicode="+" d="M120 85 L71 85 L71 36 L54 36 L54 85 L5 85 L5 101 L54 101 L54 150 L71 150 L71 101 L120 101 L120 85 Z" /><glyph glyph-name="comma" unicode="," d="M44 5 L31 -22 L21 -22 L31 5 L21 5 L21 27 L44 27 L44 5 Z" /><glyph glyph-name="hyphen" unicode="-" d="M119 85 L5 85 L5 101 L119 101 L119 85 Z" /><glyph glyph-name="period" unicode="." d="M43 5 L20 5 L20 27 L43 27 L43 5 Z" /><glyph glyph-name="slash" unicode="/" d="M120 182 L14 -7 L4 -1 L110 188 L120 182 Z" /><glyph glyph-name="zero" unicode="0" d="M9 101.5 Q10 128 16.5 143.5 Q23 159 35 169 Q47 179 64.5 179 Q82 179 95 164.5 Q108 150 112 128 Q116 106 114.5 77.5 Q113 49 104.5 31 Q96 13 79 6 Q62 -1 45 7.5 Q28 16 21 30 Q14 44 11 59.5 Q8 75 9 101.5 ZM30 107.5 Q27 80 32 58.5 Q37 37 48.5 28 Q60 19 72 24.5 Q84 30 89.5 46.5 Q95 63 95 82.5 Q95 102 93.5 118 Q92 134 84.5 147 Q77 160 64.5 160.5 Q52 161 42.5 148 Q33 135 30 107.5 Z" /><glyph glyph-name="one" unicode="1" d="M56 144 Q43 131 23 119 L23 138 Q48 155 64 178 L76 178 L76 6 L56 6 L56 144 Z" /><glyph glyph-name="two" unicode="2" d="M12 10 Q13 25 26 37 Q39 49 59 74.5 Q79 100 85 114 Q91 128 89.5 138 Q88 148 80 154.5 Q72 161 61.5 160 Q51 159 41.5 152 Q32 145 27 131 L8 134 Q16 157 28.5 167.5 Q41 178 58 179 Q68 180 76 178.5 Q84 177 92.5 171.5 Q101 166 106.5 155 Q112 144 110.5 128.5 Q109 113 95 91.5 Q81 70 41 24 L113 24 L113 6 L12 6 L12 10 Z" /><glyph glyph-name="three" unicode="3" d="M10 49 L28 52 Q32 39 41 30.5 Q50 22 63.5 22.5 Q77 23 85 33.5 Q93 44 92 57.5 Q91 71 81.5 78.5 Q72 86 51 89 L51 102 Q72 104 81.5 113 Q91 122 90 136.5 Q89 151 77 157.5 Q65 164 51.5 159 Q38 154 30 131 L12 134 Q18 152 28.5 164 Q39 176 57 178 Q75 180 88.5 173.5 Q102 167 107.5 153.5 Q113 140 109 124 Q105 108 86 96 Q100 90 107.5 78 Q115 66 112.5 46.5 Q110 27 95 15 Q80 3 61 3.5 Q42 4 28 15.5 Q14 27 10 49 Z" /><glyph glyph-name="four" unicode="4" d="M80 44 L3 44 L3 61 L84 178 L99 178 L99 61 L123 61 L123 44 L99 44 L99 6 L80 6 L80 44 ZM80 61 L80 140 L24 61 L80 61 Z" /><glyph glyph-name="five" unicode="5" d="M22 53 Q29 26 46 23 Q63 20 73.5 26.5 Q84 33 88.5 43.5 Q93 54 92.5 67 Q92 80 85.5 89 Q79 98 69 101 Q59 104 46.5 101 Q34 98 26 87 L9 89 Q11 95 28 175 L107 175 L107 157 L43 157 Q38 130 33 114 Q48 121 61 120.5 Q74 120 86 114.5 Q98 109 103.5 99.5 Q109 90 111.5 80.5 Q114 71 113.5 60 Q113 49 109 37.5 Q105 26 97 18.5 Q89 11 77.5 6.5 Q66 2 51 3 Q36 4 22.5 14 Q9 24 4 48 L22 53 Z" /><glyph glyph-name="six" unicode="6" d="M10 64.5 Q11 79 15.5 89 Q20 99 29 114 L70 178 L93 178 L51 112 Q78 119 94 110 Q110 101 115.5 89.5 Q121 78 121.5 64.5 Q122 51 117.5 38 Q113 25 101.5 14.5 Q90 4 69.5 3 Q49 2 34.5 10.5 Q20 19 14.5 34.5 Q9 50 10 64.5 ZM41 31.5 Q50 22 65 21 Q80 20 90 31 Q100 42 100 63 Q100 84 87.5 92 Q75 100 59.5 98 Q44 96 37 83 Q30 70 31 55.5 Q32 41 41 31.5 Z" /><glyph glyph-name="seven" unicode="7" d="M34 6 Q52 82 97 157 L11 157 L11 175 L118 175 L118 158 Q71 82 56 6 L34 6 Z" /><glyph glyph-name="eight" unicode="8" d="M7 55 Q7 67 13 78.5 Q19 90 33 97 Q21 104 17 112.5 Q13 121 12.5 132 Q12 143 15.5 151 Q19 159 26 166 Q33 173 41.5 175.5 Q50 178 60 178 Q70 178 78 176 Q86 174 95 167.5 Q104 161 108 149 Q112 137 107.5 121 Q103 105 84 96 Q101 91 108 80.5 Q115 70 115 55 Q115 40 110.5 31 Q106 22 100.5 16 Q95 10 85.5 6.5 Q76 3 61.5 3 Q47 3 36.5 6.5 Q26 10 19 17 Q12 24 9.5 33.5 Q7 43 7 55 ZM27.5 56 Q27 44 31.5 35 Q36 26 48 23.5 Q60 21 73 24 Q86 27 91 38 Q96 49 94.5 60 Q93 71 82 78.5 Q71 86 58 85 Q45 84 36.5 76 Q28 68 27.5 56 ZM31 134 Q31 124 38 115 Q45 106 60 106 Q75 106 82.5 115 Q90 124 89.5 136.5 Q89 149 80.5 155 Q72 161 57.5 160 Q43 159 37 151.5 Q31 144 31 134 Z" /><glyph glyph-name="nine" unicode="9" d="M32 3 Q54 40 68 70 Q43 66 26.5 76.5 Q10 87 6.5 105 Q3 123 7 137.5 Q11 152 19.5 161.5 Q28 171 40 175 Q52 179 61.5 179 Q71 179 81 175 Q91 171 99 163 Q107 155 110 146.5 Q113 138 113 124.5 Q113 111 103 90 Q93 69 54 3 L32 3 ZM26.5 115 Q28 102 37.5 93.5 Q47 85 58 86 Q69 87 75.5 92 Q82 97 88 109 Q92 124 90 134.5 Q88 145 79.5 152 Q71 159 61 159 Q55 160 45.5 156 Q36 152 30.5 140 Q25 128 26.5 115 Z" /><glyph glyph-name="colon" unicode=":" d="M73 97 L50 97 L50 119 L73 119 L73 97 ZM73 5 L50 5 L50 27 L73 27 L73 5 Z" /><glyph glyph-name="semicolon" unicode=";" d="M73 97 L50 97 L50 119 L73 119 L73 97 ZM73 5 L60 -22 L50 -22 L60 5 L50 5 L50 27 L73 27 L73 5 Z" /><glyph glyph-name="less" unicode="&lt;" d="M118 10 L109 -1 L8 90 L108 182 L118 172 L28 90 L118 10 Z" /><glyph glyph-name="equal" unicode="=" d="M119 116 L5 116 L5 132 L119 132 L119 116 ZM119 55 L5 55 L5 71 L119 71 L119 55 Z" /><glyph glyph-name="greater" unicode="&gt;" d="M118 90 L17 -1 L8 10 L98 90 L8 172 L18 182 L118 90 Z" /><glyph glyph-name="question" unicode="?" d="M109 135 Q109 122 103 111 Q97 100 87 92 Q77 84 73 76 Q69 68 69 65 L69 58 L51 58 L51 68 Q51 77 55.5 85.5 Q60 94 71 104 Q79 111 82 118.5 Q85 126 85 133 Q85 146 79 152.5 Q73 159 62 159 Q51 159 43.5 150.5 Q36 142 36 123 L13 123 Q14 151 28 164.5 Q42 178 62 178 Q84 178 96.5 166 Q109 154 109 135 ZM71 5 L49 5 L49 29 L71 29 L71 5 Z" /><glyph glyph-name="at" unicode="@" d="M120 106 Q120 69 109.5 55 Q99 41 87 41 Q82 41 78 44 Q74 47 72 53 Q67 47 62 44 Q57 41 52 41 Q42 41 35 49.5 Q28 58 28 74 Q28 101 42 122 Q56 143 69 143 Q74 143 76 142 Q78 141 81 135 L86 143 L97 143 L83 67 Q82 61 84 58 Q86 55 90 55 Q101 55 105.5 68.5 Q110 82 110 106 Q110 136 98.5 153 Q87 170 68 170 Q47 170 31 149.5 Q15 129 15 87 Q15 45 30 28 Q45 11 66 11 Q74 11 83 15.5 Q92 20 97 29 L102 22 Q96 14 86.5 8.5 Q77 3 66 3 Q41 3 23 22.5 Q5 42 5 87 Q5 132 24 155 Q43 178 68 178 Q92 178 106 158 Q120 138 120 106 ZM78 119 Q79 125 77 128.5 Q75 132 70 132 Q62 132 53 113.5 Q44 95 44 75 Q44 64 47.5 59 Q51 54 56 54 Q62 54 65 59 Q68 64 69 70 L78 119 Z" /><glyph glyph-name="A" unicode="a" d="M123 5 L99 5 L85 58 L41 58 L27 5 L3 5 L53 178 L73 178 L123 5 ZM80 77 L64 138 L62 138 L46 77 L80 77 Z" /><glyph glyph-name="B" unicode="b" d="M118 56 Q118 27 102 16 Q86 5 61 5 L11 5 L11 176 L63 176 Q88 176 100.5 163 Q113 150 113 132 Q113 114 104.5 105.5 Q96 97 87 94 Q99 91 108.5 81.5 Q118 72 118 56 ZM90 132 Q90 145 82.5 151 Q75 157 64 157 L34 157 L34 104 L63 104 Q74 104 82 110.5 Q90 117 90 132 ZM94 56 Q94 72 83.5 78.5 Q73 85 60 85 L34 85 L34 24 L57 24 Q75 24 84.5 31 Q94 38 94 56 Z" /><glyph glyph-name="C" unicode="c" d="M119 73 Q118 35 103 19 Q88 3 67 3 Q43 3 26 22.5 Q9 42 9 85 Q9 132 25.5 155 Q42 178 68 178 Q90 178 104.5 161.5 Q119 145 118 115 L96 115 Q96 137 89 148 Q82 159 68 159 Q52 159 42.5 142.5 Q33 126 33 87 Q33 51 42.5 36.5 Q52 22 67 22 Q78 22 87 32.5 Q96 43 96 73 L119 73 Z" /><glyph glyph-name="D" unicode="d" d="M117 90 Q117 44 97.5 24.5 Q78 5 45 5 L11 5 L11 176 L45 176 Q82 176 99.5 156 Q117 136 117 90 ZM93 90 Q93 127 81 142 Q69 157 45 157 L34 157 L34 24 L45 24 Q69 24 81 38.5 Q93 53 93 90 Z" /><glyph glyph-name="E" unicode="e" d="M116 5 L14 5 L14 176 L111 176 L111 157 L37 157 L37 104 L105 104 L105 85 L37 85 L37 24 L116 24 L116 5 Z" /><glyph glyph-name="F" unicode="f" d="M117 157 L35 157 L35 101 L97 101 L97 82 L35 82 L35 5 L12 5 L12 176 L117 176 L117 157 Z" /><glyph glyph-name="G" unicode="g" d="M114 3 L97 3 L94 17 Q90 11 81.5 7 Q73 3 63 3 Q42 3 25.5 22.5 Q9 42 9 85 Q9 132 24 155 Q39 178 65 178 Q88 178 101 161 Q114 144 114 117 L92 117 Q92 138 85 148.5 Q78 159 65 159 Q49 159 41 142.5 Q33 126 33 87 Q33 50 43 36 Q53 22 66 22 Q79 22 86.5 31.5 Q94 41 94 61 L94 72 L63 72 L63 91 L114 91 L114 3 Z" /><glyph glyph-name="H" unicode="h" d="M114 5 L91 5 L91 85 L34 85 L34 5 L11 5 L11 176 L34 176 L34 104 L91 104 L91 176 L114 176 L114 5 Z" /><glyph glyph-name="I" unicode="i" d="M74 5 L51 5 L51 176 L74 176 L74 5 Z" /><glyph glyph-name="J" unicode="j" d="M112 62 Q112 31 98.5 17 Q85 3 62 3 Q41 3 27 16.5 Q13 30 13 60 L13 71 L36 71 L36 57 Q36 39 43.5 31.5 Q51 24 61 24 Q75 24 82 32 Q89 40 89 61 L89 176 L112 176 L112 62 Z" /><glyph glyph-name="K" unicode="k" d="M122 5 L96 5 L50 90 L34 69 L34 5 L11 5 L11 176 L34 176 L34 102 L91 176 L118 176 L65 109 L122 5 Z" /><glyph glyph-name="L" unicode="l" d="M116 5 L12 5 L12 176 L35 176 L35 24 L116 24 L116 5 Z" /><glyph glyph-name="M" unicode="m" d="M117 5 L97 5 L97 127 L95 127 L71 5 L55 5 L31 127 L29 127 L29 5 L9 5 L9 176 L40 176 L62 63 L64 63 L86 176 L117 176 L117 5 Z" /><glyph glyph-name="N" unicode="n" d="M114 5 L89 5 L33 129 L33 5 L10 5 L10 176 L35 176 L91 52 L91 176 L114 176 L114 5 Z" /><glyph glyph-name="O" unicode="o" d="M118 91 Q118 44 103.5 23.5 Q89 3 63 3 Q37 3 22 23.5 Q7 44 7 91 Q7 138 22 158 Q37 178 63 178 Q89 178 103.5 158 Q118 138 118 91 ZM94 91 Q94 133 85 146 Q76 159 63 159 Q50 159 40.5 146 Q31 133 31 91 Q31 49 40.5 35.5 Q50 22 63 22 Q76 22 85 35.5 Q94 49 94 91 Z" /><glyph glyph-name="P" unicode="p" d="M118 124 Q118 100 104 86 Q90 72 65 72 L36 72 L36 5 L13 5 L13 176 L65 176 Q90 176 104 162 Q118 148 118 124 ZM95 124 Q95 143 86 150 Q77 157 59 157 L36 157 L36 91 L59 91 Q77 91 86 98 Q95 105 95 124 Z" /><glyph glyph-name="Q" unicode="q" d="M118 91 Q118 67 114.5 50.5 Q111 34 103 24 L111 9 L95 -8 L86 9 Q82 6 76 4.5 Q70 3 63 3 Q37 3 22 23.5 Q7 44 7 91 Q7 138 22 158 Q37 178 63 178 Q89 178 103.5 158 Q118 138 118 91 ZM94 91 Q94 133 85 146 Q76 159 63 159 Q50 159 40.5 146 Q31 133 31 91 Q31 49 40.5 35.5 Q50 22 63 22 Q68 22 72 23.5 Q76 25 78 27 L62 58 L76 75 L90 48 Q92 58 93 66 Q94 74 94 91 Z" /><glyph glyph-name="R" unicode="r" d="M120 5 L96 5 L60 79 L34 79 L34 5 L11 5 L11 176 L61 176 Q85 176 100 164.5 Q115 153 115 127 Q115 107 105 96 Q95 85 82 82 L120 5 ZM92 127 Q92 141 83.5 149 Q75 157 56 157 L34 157 L34 98 L62 98 Q74 98 83 104.5 Q92 111 92 127 Z" /><glyph glyph-name="S" unicode="s" d="M116 53 Q116 30 101.5 16.5 Q87 3 62 3 Q37 3 23 17 Q9 31 9 52 L9 59 L32 59 L32 53 Q32 38 41 30 Q50 22 62 22 Q78 22 85.5 30.5 Q93 39 93 51 Q93 61 84 69.5 Q75 78 58 85 Q34 94 23.5 105 Q13 116 13 131 Q13 152 27.5 165 Q42 178 62 178 Q88 178 99.5 162.5 Q111 147 111 129 L88 129 Q89 140 82 149 Q75 158 62 158 Q50 158 43 151.5 Q36 145 36 134 Q36 125 41.5 118.5 Q47 112 70 103 Q92 94 104 81.5 Q116 69 116 53 Z" /><glyph glyph-name="T" unicode="t" d="M114 157 L74 157 L74 5 L51 5 L51 157 L11 157 L11 176 L114 176 L114 157 Z" /><glyph glyph-name="U" unicode="u" d="M115 55 Q115 31 102.5 17 Q90 3 63 3 Q36 3 23.5 17 Q11 31 11 55 L11 176 L34 176 L34 55 Q34 38 42 30 Q50 22 63 22 Q76 22 84 30 Q92 38 92 55 L92 176 L115 176 L115 55 Z" /><glyph glyph-name="V" unicode="v" d="M122 176 L72 3 L52 3 L2 176 L26 176 L61 45 L63 45 L98 176 L122 176 Z" /><glyph glyph-name="W" unicode="w" d="M123 176 L101 3 L81 3 L63 131 L61 131 L43 3 L23 3 L1 176 L23 176 L34 67 L36 67 L51 176 L73 176 L88 67 L90 67 L101 176 L123 176 Z" /><glyph glyph-name="X" unicode="x" d="M120 5 L96 5 L62 75 L28 5 L4 5 L51 95 L9 176 L33 176 L62 114 L91 176 L115 176 L73 95 L120 5 Z" /><glyph glyph-name="Y" unicode="y" d="M121 176 L74 82 L74 5 L51 5 L51 82 L4 176 L27 176 L63 103 L98 176 L121 176 Z" /><glyph glyph-name="Z" unicode="z" d="M116 5 L9 5 L9 24 L90 157 L15 157 L15 176 L113 176 L113 157 L32 24 L116 24 L116 5 Z" /><glyph glyph-name="bracketleft" unicode="[" d="M113 -21 L50 -21 L50 202 L113 202 L113 186 L67 186 L67 -5 L113 -5 L113 -21 Z" /><glyph glyph-name="backslash" unicode="\" d="M13 182 L29 182 L113 -26 L97 -26 L13 182 Z" /><glyph glyph-name="bracketright" unicode="]" d="M75 -21 L12 -21 L12 -5 L58 -5 L58 186 L12 186 L12 202 L75 202 L75 -21 Z" /><glyph glyph-name="asciicircum" unicode="^" d="M110 165 L92 165 L62 190 L32 165 L14 165 L50 206 L74 206 L110 165 Z" /><glyph glyph-name="underscore" unicode="_" d="M126 -34 L0 -34 L0 -22 L126 -22 L126 -34 Z" /><glyph glyph-name="grave" unicode="`" d="M91 160 L74 160 L32 206 L62 206 L91 160 Z" /><glyph glyph-name="a" unicode="a" d="M115 5 L91 5 Q89 7 88 10.5 Q87 14 87 19 Q80 11 70 7 Q60 3 49 3 Q33 3 22 11 Q11 19 11 34 Q11 49 21 58 Q31 67 52 70 Q66 72 76.5 75 Q87 78 87 83 Q87 89 82.5 95 Q78 101 63 101 Q51 101 45.5 96.5 Q40 92 38 84 L16 84 Q18 100 30.5 109.5 Q43 119 63 119 Q85 119 96 109 Q107 99 107 81 L107 26 Q107 20 109 15 Q111 10 115 5 ZM87 42 L87 62 Q81 60 75.5 58.5 Q70 57 57 55 Q42 53 37.5 48 Q33 43 33 36 Q33 30 37.5 25.5 Q42 21 51 21 Q60 21 70.5 26 Q81 31 87 42 Z" /><glyph glyph-name="b" unicode="b" d="M113 61 Q113 32 99 17.5 Q85 3 65 3 Q54 3 46 7 Q38 11 32 20 L32 5 L12 5 L12 176 L32 176 L32 102 Q38 111 46 115.5 Q54 120 65 120 Q85 120 99 105 Q113 90 113 61 ZM91 61 Q91 80 83.5 91 Q76 102 61 102 Q49 102 40.5 91 Q32 80 32 61 Q32 42 40.5 31.5 Q49 21 61 21 Q76 21 83.5 31.5 Q91 42 91 61 Z" /><glyph glyph-name="c" unicode="c" d="M114 50 Q114 29 99.5 16 Q85 3 63 3 Q41 3 25 18.5 Q9 34 9 61 Q9 88 25 103.5 Q41 119 63 119 Q85 119 98 107.5 Q111 96 111 80 L89 80 Q88 92 80.5 96.5 Q73 101 63 101 Q51 101 41 91.5 Q31 82 31 61 Q31 40 41 30.5 Q51 21 63 21 Q76 21 84 28 Q92 35 92 50 L114 50 Z" /><glyph glyph-name="d" unicode="d" d="M110 5 L90 5 L90 20 Q84 11 76 7 Q68 3 57 3 Q37 3 23 17.5 Q9 32 9 61 Q9 90 23 105 Q37 120 57 120 Q68 120 76 115.5 Q84 111 90 102 L90 176 L110 176 L110 5 ZM90 61 Q90 80 81.5 91 Q73 102 61 102 Q46 102 38.5 91 Q31 80 31 61 Q31 42 38.5 31.5 Q46 21 61 21 Q73 21 81.5 31.5 Q90 42 90 61 Z" /><glyph glyph-name="e" unicode="e" d="M114 43 Q112 25 98 14 Q84 3 65 3 Q41 3 25.5 18.5 Q10 34 10 61 Q10 88 25.5 103.5 Q41 119 65 119 Q86 119 99.5 105.5 Q113 92 113 61 L32 61 Q32 39 41.5 30 Q51 21 65 21 Q76 21 83 26.5 Q90 32 92 43 L114 43 ZM90 77 Q88 91 81 96.5 Q74 102 63 102 Q53 102 45 96.5 Q37 91 33 77 L90 77 Z" /><glyph glyph-name="f" unicode="f" d="M114 153 Q109 156 102 158 Q95 160 84 160 Q73 160 69 154.5 Q65 149 65 141 L65 117 L106 117 L106 101 L65 101 L65 5 L45 5 L45 101 L11 101 L11 117 L45 117 L45 140 Q45 158 56 168 Q67 178 85 178 Q96 178 102.5 176.5 Q109 175 114 173 L114 153 Z" /><glyph glyph-name="g" unicode="g" d="M119 100 Q112 102 105.5 102.5 Q99 103 92 101 Q95 98 97 93.5 Q99 89 99 80 Q99 63 87.5 52 Q76 41 59 41 Q55 41 48.5 42.5 Q42 44 38 46 Q35 44 34 42 Q33 40 33 37 Q33 32 40 29.5 Q47 27 65 27 Q94 27 104.5 19 Q115 11 115 -1 Q115 -17 99.5 -24.5 Q84 -32 63 -32 Q36 -32 23 -25 Q10 -18 10 -6 Q10 0 15 6 Q20 12 28 16 Q22 19 18.5 23.5 Q15 28 15 35 Q15 41 19.5 45.5 Q24 50 30 53 Q25 58 22 65 Q19 72 19 80 Q19 97 30.5 108 Q42 119 59 119 Q68 119 74.5 116.5 Q81 114 86 109 Q94 115 102 117.5 Q110 120 119 119 L119 100 ZM79 80 Q79 90 74 96 Q69 102 59 102 Q49 102 44 96 Q39 90 39 80 Q39 70 44 64 Q49 58 59 58 Q69 58 74 64 Q79 70 79 80 ZM96 -3 Q96 1 91.5 5 Q87 9 69 9 Q65 9 58 9.5 Q51 10 42 11 Q34 8 31 4 Q28 0 28 -4 Q28 -10 36 -14 Q44 -18 64 -18 Q81 -18 88.5 -13.5 Q96 -9 96 -3 Z" /><glyph glyph-name="h" unicode="h" d="M112 5 L92 5 L92 77 Q92 89 86 96 Q80 103 70 103 Q57 103 45.5 89.5 Q34 76 34 56 L34 5 L14 5 L14 176 L34 176 L34 96 Q42 107 51.5 113 Q61 119 76 119 Q94 119 103 109 Q112 99 112 84 L112 5 Z" /><glyph glyph-name="i" unicode="i" d="M72 149 L52 149 L52 175 L72 175 L72 149 ZM72 5 L52 5 L52 117 L72 117 L72 5 Z" /><glyph glyph-name="j" unicode="j" d="M92 149 L72 149 L72 175 L92 175 L92 149 ZM92 6 Q92 -12 81 -22 Q70 -32 52 -32 Q41 -32 34.5 -30.5 Q28 -29 23 -27 L23 -7 Q28 -10 35 -12 Q42 -14 53 -14 Q64 -14 68 -8.5 Q72 -3 72 5 L72 117 L92 117 L92 6 Z" /><glyph glyph-name="k" unicode="k" d="M117 5 L94 5 L58 66 L35 44 L35 5 L15 5 L15 176 L35 176 L35 67 L85 117 L110 117 L71 79 L117 5 Z" /><glyph glyph-name="l" unicode="l" d="M73 5 L53 5 L53 176 L73 176 L73 5 Z" /><glyph glyph-name="m" unicode="m" d="M122 5 L102 5 L102 86 Q102 92 100 96 Q98 100 92 100 Q85 100 79 92.5 Q73 85 73 73 L73 5 L53 5 L53 86 Q53 92 51 96 Q49 100 43 100 Q36 100 30 92.5 Q24 85 24 73 L24 5 L4 5 L4 117 L24 117 L24 102 Q29 110 36 114.5 Q43 119 51 119 Q59 119 64.5 114.5 Q70 110 72 102 Q77 110 83.5 114.5 Q90 119 98 119 Q110 119 116 112.5 Q122 106 122 94 L122 5 Z" /><glyph glyph-name="n" unicode="n" d="M112 5 L92 5 L92 77 Q92 89 86 96 Q80 103 70 103 Q57 103 45.5 89.5 Q34 76 34 56 L34 5 L14 5 L14 117 L34 117 L34 96 Q42 107 51.5 113 Q61 119 76 119 Q94 119 103 109 Q112 99 112 84 L112 5 Z" /><glyph glyph-name="o" unicode="o" d="M117 61 Q117 35 101 19 Q85 3 63 3 Q41 3 25 19 Q9 35 9 61 Q9 87 25 103 Q41 119 63 119 Q85 119 101 103 Q117 87 117 61 ZM95 61 Q95 81 85 91 Q75 101 63 101 Q51 101 41 91 Q31 81 31 61 Q31 41 41 31 Q51 21 63 21 Q75 21 85 31 Q95 41 95 61 Z" /><glyph glyph-name="p" unicode="p" d="M113 61 Q113 32 99 17 Q85 2 65 2 Q54 2 46 6.5 Q38 11 32 20 L32 -32 L12 -32 L12 117 L32 117 L32 102 Q38 111 46 115 Q54 119 65 119 Q85 119 99 104.5 Q113 90 113 61 ZM91 61 Q91 80 83.5 90.5 Q76 101 61 101 Q49 101 40.5 90.5 Q32 80 32 61 Q32 42 40.5 31 Q49 20 61 20 Q76 20 83.5 31 Q91 42 91 61 Z" /><glyph glyph-name="q" unicode="q" d="M110 -32 L90 -32 L90 20 Q84 11 76 6.5 Q68 2 57 2 Q37 2 23 17 Q9 32 9 61 Q9 90 23 104.5 Q37 119 57 119 Q68 119 76 115 Q84 111 90 102 L90 117 L110 117 L110 -32 ZM90 61 Q90 80 81.5 90.5 Q73 101 61 101 Q46 101 38.5 90.5 Q31 80 31 61 Q31 42 38.5 31 Q46 20 61 20 Q73 20 81.5 31 Q90 42 90 61 Z" /><glyph glyph-name="r" unicode="r" d="M100 97 Q81 100 68 91.5 Q55 83 46 62 L46 5 L26 5 L26 117 L46 117 L46 88 Q55 104 68.5 111.5 Q82 119 100 119 L100 97 Z" /><glyph glyph-name="s" unicode="s" d="M110 36 Q110 20 97.5 11.5 Q85 3 66 3 Q42 3 29 12.5 Q16 22 16 40 L36 40 Q36 28 44.5 24 Q53 20 65 20 Q77 20 83 24.5 Q89 29 89 36 Q89 41 84 46 Q79 51 59 54 Q36 57 27.5 65.5 Q19 74 19 88 Q19 100 30.5 109.5 Q42 119 64 119 Q84 119 95.5 110 Q107 101 107 86 L87 86 Q87 95 80.5 98.5 Q74 102 64 102 Q51 102 45.5 97.5 Q40 93 40 87 Q40 80 45 76 Q50 72 66 70 Q92 66 101 57.5 Q110 49 110 36 Z" /><glyph glyph-name="t" unicode="t" d="M110 8 Q105 6 98.5 4.5 Q92 3 81 3 Q63 3 52 13 Q41 23 41 41 L41 101 L7 101 L7 117 L41 117 L41 156 L61 156 L61 117 L102 117 L102 101 L61 101 L61 40 Q61 32 65 26.5 Q69 21 80 21 Q91 21 98 23 Q105 25 110 28 L110 8 Z" /><glyph glyph-name="u" unicode="u" d="M112 5 L92 5 L92 26 Q84 15 74.5 9 Q65 3 50 3 Q32 3 23 13 Q14 23 14 38 L14 117 L34 117 L34 45 Q34 33 40 26 Q46 19 56 19 Q69 19 80.5 32.5 Q92 46 92 66 L92 117 L112 117 L112 5 Z" /><glyph glyph-name="v" unicode="v" d="M115 117 L73 3 L51 3 L9 117 L30 117 L61 30 L63 30 L94 117 L115 117 Z" /><glyph glyph-name="w" unicode="w" d="M123 117 L98 3 L79 3 L63 90 L61 90 L45 3 L26 3 L1 117 L22 117 L35 42 L37 42 L51 117 L73 117 L87 42 L89 42 L102 117 L123 117 Z" /><glyph glyph-name="x" unicode="x" d="M115 5 L91 5 L62 48 L33 5 L9 5 L50 62 L12 117 L36 117 L62 75 L88 117 L112 117 L74 62 L115 5 Z" /><glyph glyph-name="y" unicode="y" d="M116 117 L70 -4 Q66 -18 58 -25 Q50 -32 38 -32 Q33 -32 28.5 -31.5 Q24 -31 20 -29 L20 -9 Q24 -11 28 -12 Q32 -13 35 -13 Q43 -13 46 -10.5 Q49 -8 52 1 L8 117 L30 117 L63 29 L94 117 L116 117 Z" /><glyph glyph-name="z" unicode="z" d="M111 5 L14 5 L14 21 L82 101 L18 101 L18 117 L106 117 L106 101 L38 21 L111 21 L111 5 Z" /><glyph glyph-name="braceleft" unicode="{" d="M110 -21 L94 -21 Q82 -21 76 -14.5 Q70 -8 70 6 L70 70 Q70 76 67 79.5 Q64 83 57 83 L57 97 Q64 97 67 100 Q70 103 70 110 L70 175 Q70 188 76 195 Q82 202 94 202 L110 202 L110 190 L102 190 Q96 190 93 187 Q90 184 90 178 L90 117 Q90 107 88 100 Q86 93 81 90 Q86 86 88 79.5 Q90 73 90 63 L90 3 Q90 -3 93 -6 Q96 -9 102 -9 L110 -9 L110 -21 Z" /><glyph glyph-name="bar" unicode="|" d="M73 -34 L53 -34 L53 220 L73 220 L73 -34 Z" /><glyph glyph-name="braceright" unicode="}" d="M68 83 Q62 83 58.5 79.5 Q55 76 55 70 L55 6 Q55 -8 49 -14.5 Q43 -21 31 -21 L15 -21 L15 -9 L23 -9 Q29 -9 32 -6 Q35 -3 35 3 L35 63 Q35 73 37.5 79.5 Q40 86 44 90 Q40 93 37.5 100 Q35 107 35 117 L35 178 Q35 184 32 187 Q29 190 23 190 L15 190 L15 202 L31 202 Q43 202 49 195 Q55 188 55 175 L55 110 Q55 103 58.5 100 Q62 97 68 97 L68 83 Z" /><glyph glyph-name="asciitilde" unicode="~" d="M116 203 Q110 189 102.5 179.5 Q95 170 85 170 Q78 170 65 183 Q52 196 43 196 Q36 196 32 190.5 Q28 185 24 173 L14 184 Q20 198 26.5 207.5 Q33 217 42 217 Q53 217 66.5 204.5 Q80 192 87 192 Q91 192 97 198 Q103 204 106 216 L116 203 Z" /><glyph glyph-name="emdash" unicode="&#x2014;" d="M255 100 L255 85 L0 85 L0 100 L255 100 Z" /><glyph glyph-name="quoteleft" unicode="&#x2018;" d="M229 205 L229 191 Q214 186 216 162 L233 162 L233 129 L200 129 L200 171 Q206 200 228 204 L229 205 Z" /><glyph glyph-name="quoteright" unicode="&#x2019;" d="M21 205 L54 205 L54 161 Q49 137 28 129 L24 129 L24 142 Q39 148 38 172 L21 172 L21 205 Z" /><glyph glyph-name="quotedblleft" unicode="&#x201c;" d="M173 205 L173 191 Q158 186 160 162 L176 162 L176 129 L144 129 L144 171 Q149 200 172 204 L173 205 ZM229 205 L229 191 Q214 186 216 162 L233 162 L233 129 L200 129 L200 171 Q206 200 228 204 L229 205 Z" /><glyph glyph-name="quotedblright" unicode="&#x201d;" d="M21 205 L54 205 L54 161 Q49 137 28 129 L24 129 L24 142 Q39 148 38 172 L21 172 L21 205 ZM80 205 L112 205 L112 161 Q108 137 87 129 L83 129 L83 142 Q98 148 96 172 L80 172 L80 205 Z" /><glyph glyph-name="ellipsis" unicode="&#x2026;" d="M24 112 L63 112 L63 73 L24 73 L24 112 ZM108 112 L147 112 L147 73 L108 73 L108 112 ZM190 112 L229 112 L229 73 L190 73 L190 112 Z" /><glyph glyph-name="uni3001" unicode="&#x3001;" d="M69 -11 Q53 28 37 58 L53 66 Q73 38 93 1 L69 -11 Z" /><glyph glyph-name="uni3002" unicode="&#x3002;" d="M91 39 Q95 28 92 17.5 Q89 7 81 1.5 Q73 -4 62 -4 Q51 -4 42 5 Q33 14 33 24.5 Q33 35 38 43 Q43 51 53.5 55 Q64 59 75.5 54.5 Q87 50 91 39 ZM73 11 Q82 17 81.5 27.5 Q81 38 71.5 43 Q62 48 53.5 42 Q45 36 45 26 Q45 16 54.5 10.5 Q64 5 73 11 Z" /><glyph glyph-name="uni300A" unicode="&#x300a;" d="M185 214 L198 209 L143 92 L198 -22 L185 -27 L127 93 L185 214 ZM225 214 L238 209 L182 92 L238 -22 L225 -27 L166 93 L225 214 Z" /><glyph glyph-name="uni300B" unicode="&#x300b;" d="M30 214 L86 92 L30 -27 L17 -22 L72 93 L17 209 L30 214 ZM69 214 L127 92 L69 -27 L56 -22 L113 93 L56 209 L69 214 Z" /><glyph glyph-name="uni3010" unicode="&#x3010;" d="M218 -16 L126 -16 L126 201 L219 201 Q168 146 166 94.5 Q164 43 218 -16 Z" /><glyph glyph-name="uni3011" unicode="&#x3011;" d="M36 201 L126 201 L126 -16 L35 -16 Q84 41 86 91.5 Q88 142 36 201 Z" /><glyph glyph-name="uniFF01" unicode="&#xff01;" d="M63 182 L93 182 L86 62 L70 62 L63 182 ZM63 30 L92 30 L92 0 L63 0 L63 30 Z" /><glyph glyph-name="uniFF08" unicode="&#xff08;" d="M217 204 L228 191 Q171 149 173 94 Q174 41 227 2 L216 -11 Q155 33 157 100 Q157 155 217 204 Z" /><glyph glyph-name="uniFF09" unicode="&#xff09;" d="M40 204 Q100 155 100 100 Q102 33 41 -11 L30 2 Q83 41 84 94 Q86 149 29 191 L40 204 Z" /><glyph glyph-name="uniFF0C" unicode="&#xff0c;" d="M35 38 L71 38 L71 -2 Q68 -27 46 -39 L36 -30 Q54 -20 54 0 L35 0 L35 38 Z" /><glyph glyph-name="uniFF1A" unicode="&#xff1a;" d="M48 97 L81 97 L81 64 L48 64 L48 97 ZM48 33 L81 33 L81 0 L48 0 L48 33 Z" /><glyph glyph-name="uniFF1B" unicode="&#xff1b;" d="M48 34 L81 34 L81 -4 Q80 -24 56 -39 L46 -29 Q63 -20 65 0 L48 0 L48 34 ZM48 97 L81 97 L81 64 L48 64 L48 97 Z" /><glyph glyph-name="uniFF1F" unicode="&#xff1f;" d="M80 184 Q106 187 122 157 Q132 123 95 89 Q83 71 83 50 L65 50 Q64 87 98 120 Q106 132 105 146 Q99 166 82 165 L78 165 Q57 164 58 134 L39 134 Q38 171 64 180 Q68 183 80 184 ZM61 29 L89 29 L89 0 L61 0 L61 29 Z" /><glyph glyph-name="uniFFE5" unicode="&#xffe5;" d="M48 178 L71 178 L129 117 L184 178 L209 178 L138 100 L138 94 L193 94 L193 80 L138 80 L138 9 L118 9 L118 80 L60 80 L60 94 L118 94 L118 100 L48 178 Z" /><glyph glyph-name="uni4E00" unicode="&#x4e00;" d="M195 107 Q221 107 242 108 L242 82 Q221 83 196 83 L64 83 Q38 83 14 82 L14 108 Q38 107 64 107 L195 107 Z" /><glyph glyph-name="uni4E01" unicode="&#x4e01;" d="M242 169 Q221 170 204 170 L138 170 L138 10 Q136 -9 122.5 -14.5 Q109 -20 84 -23 Q82 -9 73 4 Q97 3 107 5.5 Q117 8 116 24 L116 170 L54 170 Q32 170 14 169 L14 191 Q31 190 54 190 L204 190 Q226 190 242 191 L242 169 Z" /><glyph glyph-name="uni4E03" unicode="&#x4e03;" d="M119 119 L198 137 Q230 146 236 149 L242 126 Q232 126 205 119 L119 98 L119 20 Q119 3 133 3 L200 3 Q214 3 217 35 Q229 25 242 23 Q234 -2 228 -8.5 Q222 -15 205 -15 L124 -15 Q97 -15 97 12 L97 93 L46 82 Q27 78 16 74 L9 97 Q18 98 44 103 L97 113 L97 161 Q97 182 96 200 L122 200 Q119 180 119 167 L119 119 Z" /><glyph glyph-name="uni4E07" unicode="&#x4e07;" d="M146 -22 Q142 -7 136 1 Q157 0 165.5 2 Q174 4 176 9 Q178 14 179.5 32.5 Q181 51 184 105 L107 105 Q94 22 36 -24 Q27 -13 16 -10 Q45 8 68 49.5 Q91 91 91 170 L61 170 Q39 170 22 169 L22 188 Q38 187 62 187 L198 187 Q220 187 238 188 L238 169 Q220 170 198 170 L112 170 Q111 145 109 123 L206 123 Q200 31 198 11.5 Q196 -8 182 -14 Q168 -20 146 -22 Z" /><glyph glyph-name="uni4E08" unicode="&#x4e08;" d="M161 202 Q158 190 157 153 L188 153 Q212 153 233 154 L233 135 Q213 136 195 136 L157 136 Q156 77 137 33 Q174 3 239 -1 Q227 -12 225 -24 Q162 -14 122 18 Q93 -10 32 -28 Q23 -14 15 -8 Q71 -1 107 31 Q76 62 54 117 Q66 119 75 122 Q88 81 121 48 Q135 77 137 136 L71 136 Q42 136 23 135 L23 154 Q42 153 61 153 L137 153 Q137 188 136 204 Q148 202 161 202 Z" /><glyph glyph-name="uni4E09" unicode="&#x4e09;" d="M240 -8 Q222 -7 208 -7 L52 -7 Q36 -7 15 -8 L15 14 Q34 13 52 13 L208 13 Q223 13 240 15 L240 -8 ZM36 184 Q56 183 73 183 L184 183 Q203 183 219 184 L219 163 Q204 164 184 164 L72 164 Q55 164 36 163 L36 184 ZM83 84 Q68 84 51 83 L51 105 Q67 104 83 104 L169 104 Q184 104 202 105 L202 83 Q182 84 169 84 L83 84 Z" /><glyph glyph-name="uni4E0A" unicode="&#x4e0a;" d="M130 203 Q129 186 129 171 L129 129 L186 129 Q206 129 224 130 L224 108 Q204 109 184 109 L129 109 L129 8 L208 8 Q223 8 243 9 L243 -12 Q224 -11 208 -11 L50 -11 Q34 -11 14 -12 L14 9 Q33 8 50 8 L108 8 L108 170 Q108 185 107 203 L130 203 Z" /><glyph glyph-name="uni4E0B" unicode="&#x4e0b;" d="M200 188 Q219 188 239 189 L239 168 Q217 169 200 169 L131 169 L131 15 Q131 2 132 -18 L109 -18 Q110 0 110 15 L110 169 L55 169 Q35 169 16 168 L16 189 Q35 188 55 188 L200 188 ZM226 56 Q216 49 208 40 Q192 61 146 103 L161 118 Q188 96 226 56 Z" /><glyph glyph-name="uni4E0D" unicode="&#x4e0d;" d="M239 178 Q221 179 208 179 L149 179 Q142 165 132 148 L132 23 Q132 3 133 -22 L111 -22 Q112 2 112 23 L112 121 Q81 78 28 42 Q20 54 13 59 Q33 68 66 97.5 Q99 127 127 179 L61 179 Q42 179 21 178 L21 198 Q51 197 67 197 L207 197 Q220 197 239 198 L239 178 ZM218 45 Q199 69 150 119 Q158 126 163 133 Q187 111 204 94.5 Q221 78 236 62 Q226 54 218 45 Z" /><glyph glyph-name="uni4E0E" unicode="&#x4e0e;" d="M214 4 Q211 -12 197 -17 Q183 -22 156 -24 Q155 -15 146 -1 Q175 -2 183 0 Q191 2 193.5 9 Q196 16 204 94 L45 94 Q58 174 59 208 Q72 206 83 205 Q79 193 76 171 L196 171 Q216 171 232 172 L232 153 Q216 154 198 154 L74 154 L68 110 L227 110 Q225 98 223 82 L214 4 ZM147 54 Q165 54 180 55 L180 35 Q165 36 154 36 L58 36 Q40 36 20 35 L20 55 Q40 54 58 54 L147 54 Z" /><glyph glyph-name="uni4E10" unicode="&#x4e10;" d="M206 197 Q224 197 242 198 L242 178 Q224 179 207 179 L133 179 L133 147 L188 147 Q201 147 218 148 L218 128 Q201 129 189 129 L133 129 L133 91 L230 91 Q226 60 219.5 24.5 Q213 -11 199.5 -16.5 Q186 -22 153 -24 Q153 -13 146 -1 Q179 -2 184.5 1 Q190 4 194 12 Q198 20 205 73 L31 73 Q33 82 35 108 Q37 134 38 153 L61 153 Q58 135 54 91 L112 91 L112 179 L49 179 Q33 179 15 178 L15 198 Q33 197 49 197 L206 197 Z" /><glyph glyph-name="uni4E11" unicode="&#x4e11;" d="M239 -13 Q224 -12 212 -12 L47 -12 Q34 -12 18 -13 L18 6 Q30 5 47 5 L88 5 L96 84 L73 84 Q60 84 44 83 L44 101 Q58 100 72 100 L98 100 L105 171 L75 171 Q58 171 43 170 L43 188 Q57 187 74 187 L212 187 L199 5 L212 5 Q223 5 239 6 L239 -13 ZM178 5 L184 84 L116 84 L109 5 L178 5 ZM185 100 L190 171 L125 171 L118 100 L185 100 Z" /><glyph glyph-name="uni4E13" unicode="&#x4e13;" d="M178 -24 Q159 -14 79 16 Q84 28 86 35 Q105 28 137 16 Q153 33 173 59 L101 59 Q85 58 78 56 Q78 62 70 75 Q80 80 88 105 L49 105 Q30 105 15 104 L15 124 Q30 123 49 123 L94 123 L103 153 L65 153 Q49 153 38 152 L38 171 Q49 170 65 170 L107 170 Q114 194 116 210 Q135 207 138 207 Q133 192 127 170 L181 170 Q195 170 215 171 L215 152 Q201 153 181 153 L123 153 L114 123 L203 123 Q218 123 238 124 L238 104 Q223 105 204 105 L109 105 Q102 86 99 77 L208 77 L208 60 Q201 58 183.5 40 Q166 22 155 8 Q181 -2 188 -4 L178 -24 Z" /><glyph glyph-name="uni4E14" unicode="&#x4e14;" d="M14 5 Q30 4 63 4 L63 148 Q63 169 62 193 L195 193 Q194 171 194 153 L194 4 Q226 4 243 6 L243 -14 Q225 -13 209 -13 L49 -13 Q30 -13 14 -14 L14 5 ZM174 4 L174 55 L83 55 L83 4 L174 4 ZM174 72 L174 116 L83 116 L83 72 L174 72 ZM174 133 L174 177 L83 177 L83 133 L174 133 Z" /><glyph glyph-name="uni4E16" unicode="&#x4e16;" d="M190 204 Q188 191 188 133 L213 133 Q223 133 242 134 L242 114 Q226 115 214 115 L188 115 Q188 54 190 38 L100 38 Q102 52 102 115 L63 115 L63 3 L188 3 Q209 3 227 4 L227 -16 Q209 -15 189 -15 L39 -15 Q42 -2 42 16 L42 115 Q25 115 11 114 L11 134 Q26 133 42 133 Q42 179 40 194 L65 194 Q63 182 63 133 L102 133 Q102 191 100 204 L124 204 Q123 192 123 133 L167 133 Q167 188 166 204 L190 204 ZM167 56 L167 115 L123 115 L123 56 L167 56 Z" /><glyph glyph-name="uni4E18" unicode="&#x4e18;" d="M214 184 Q194 180 153 174.5 Q112 169 78 166 L78 113 L192 113 Q208 113 229 114 L229 94 Q208 95 177 95 L177 8 Q224 8 243 9 L243 -11 Q226 -10 207 -10 L42 -10 Q32 -10 13 -11 L13 9 Q30 8 57 8 L57 143 Q57 160 56 182 Q95 183 138 190 Q181 197 203 206 Q209 189 214 184 ZM156 8 L156 95 L78 95 L78 8 L156 8 Z" /><glyph glyph-name="uni4E19" unicode="&#x4e19;" d="M140 174 Q140 156 139 137 L229 137 Q228 120 228 105 L228 8 Q227 -9 216 -14.5 Q205 -20 174 -23 Q173 -13 165 -1 Q192 -1 199.5 2 Q207 5 207 15 L207 119 L137 119 Q136 110 132 95 Q148 85 163 71.5 Q178 58 194 42 Q185 34 177 24 Q161 46 125 78 Q109 47 72 20 Q68 29 58 37 Q109 66 116 119 L48 119 L48 -21 L26 -21 Q27 2 27 19 L27 106 Q27 121 26 137 L118 137 Q119 157 119 174 L45 174 Q38 174 16 173 L16 193 Q37 192 46 192 L206 192 Q222 192 242 193 L242 173 Q223 174 206 174 L140 174 Z" /><glyph glyph-name="uni4E1A" unicode="&#x4e1a;" d="M113 201 Q111 173 111 153 L111 6 L144 6 L144 165 Q144 181 142 201 L167 201 Q165 185 165 167 L165 6 L204 6 Q220 6 243 8 L243 -14 Q220 -12 205 -12 L53 -12 Q39 -12 13 -14 L13 8 Q39 6 52 6 L89 6 L89 154 Q89 175 86 201 L113 201 ZM41 151 Q53 120 74 60 Q63 58 51 52 Q33 110 19 142 Q29 146 41 151 ZM234 145 Q221 111 198 50 Q188 56 177 59 Q198 98 209 153 Q220 149 234 145 Z" /><glyph glyph-name="uni4E1B" unicode="&#x4e1b;" d="M185 201 Q182 190 182 165 Q182 140 184.5 124 Q187 108 202.5 82.5 Q218 57 242 40 Q233 34 225 22 Q188 56 172 103 Q160 56 121 17 Q113 26 101 31 Q124 45 141.5 75.5 Q159 106 161 143 Q163 180 161 203 Q169 202 185 201 ZM91 199 Q88 184 84 119 Q116 90 129 76 Q123 70 112 57 Q104 72 78 97 Q65 54 35 21 Q29 29 14 35 Q34 50 49.5 81 Q65 112 66.5 147 Q68 182 67 202 Q79 200 91 199 ZM16 6 Q47 5 70 5 L198 5 Q217 5 241 6 L241 -14 Q220 -13 199 -13 L70 -13 Q48 -13 16 -14 L16 6 Z" /><glyph glyph-name="uni4E1C" unicode="&#x4e1c;" d="M90 164 Q106 193 111 210 L134 200 Q126 190 112 164 L182 164 Q204 164 225 165 L225 146 Q211 147 196 147 L105 147 Q91 125 67 92 L126 92 Q126 112 125 130 L148 130 Q147 119 147 92 L186 92 Q203 92 222 93 L222 75 Q206 76 187 76 L147 76 L147 3 Q147 -13 135 -17.5 Q123 -22 104 -25 Q101 -12 93 -2 Q115 -2 120.5 0 Q126 2 126 14 L126 76 L82 76 Q58 76 42 73 Q39 83 34 93 Q45 97 56 110.5 Q67 124 81 147 L53 147 Q36 147 27 146 L27 165 Q35 164 50 164 L90 164 ZM69 17 Q52 0 36 -17 Q30 -9 20 -2 Q59 32 74 58 Q81 50 94 42 L69 17 ZM185 56 Q195 47 211 32 Q227 17 239 4 Q235 1 221 -12 Q206 7 170 41 Q181 50 185 56 Z" /><glyph glyph-name="uni4E1D" unicode="&#x4e1d;" d="M97 196 Q88 187 78 168.5 Q68 150 49 122 Q57 122 89 124 Q104 146 108 158 Q119 149 128 144 Q123 138 106 114.5 Q89 91 58 52 Q96 57 120 61 L119 43 Q52 33 30 29 Q27 43 23 51 Q44 55 80 108 Q41 106 28 101 Q26 108 19 120 Q31 126 46.5 150.5 Q62 175 74 207 Q83 202 97 196 ZM202 199 Q195 189 182.5 166 Q170 143 154 118 Q164 118 189 119 Q202 138 209 153 Q222 144 231 141 Q221 129 203 105 Q185 81 161 55 Q204 60 230 63 L229 45 Q207 43 181 39.5 Q155 36 138 33 Q135 43 131 54 Q147 58 179 104 Q146 102 133 98 Q130 106 125 117 Q139 123 156.5 155.5 Q174 188 178 208 Q196 201 202 199 ZM192 6 Q217 6 239 7 L239 -13 Q217 -12 193 -12 L64 -12 Q38 -12 13 -13 L13 7 Q38 6 64 6 L192 6 Z" /><glyph glyph-name="uni4E22" unicode="&#x4e22;" d="M207 199 Q212 188 220 179 Q193 176 138 171 L138 139 L183 139 Q197 139 215 140 L215 122 Q198 123 183 123 L138 123 L138 90 L211 90 Q224 90 242 91 L242 72 Q224 73 211 73 L112 73 Q121 64 125 61 Q115 51 76 6 Q100 6 182 9 Q162 32 154 40 Q161 45 169 53 Q179 41 197 22 Q215 3 226 -10 Q213 -19 209 -23 Q204 -16 195 -6 Q160 -8 116 -10 Q72 -12 53 -16 Q52 -7 45 6 Q60 10 79.5 34.5 Q99 59 105 73 L44 73 Q33 73 14 72 L14 91 Q34 90 44 90 L119 90 L119 123 L68 123 Q53 123 37 122 L37 140 Q54 139 67 139 L119 139 L119 169 Q54 166 42 165 Q40 175 35 183 Q74 182 126.5 186 Q179 190 207 199 Z" /><glyph glyph-name="uni4E24" unicode="&#x4e24;" d="M68 33 Q63 39 53 47 Q81 74 90 123 L47 123 L47 -20 L27 -20 Q28 7 28 27 L28 106 Q28 119 27 140 L92 140 Q93 157 94 179 L45 179 Q33 179 21 178 L21 196 Q33 195 44 195 L210 195 Q220 195 239 196 L239 178 Q225 179 211 179 L172 179 Q172 164 170 140 L230 140 Q229 122 229 109 L229 10 Q229 -7 218.5 -12 Q208 -17 179 -20 Q176 -6 169 3 Q199 2 204.5 5 Q210 8 210 20 L210 123 L168 123 Q166 106 162 91 Q190 69 205 56 Q196 48 190 40 Q180 53 158 72 Q145 40 130 19 Q120 26 111 29 Q123 42 134 65.5 Q145 89 149 123 L109 123 Q106 108 103 97 Q123 80 131 70 Q124 64 116 56 Q105 72 97 80 Q86 54 68 33 ZM151 140 Q152 164 152 179 L113 179 Q113 164 111 140 L151 140 Z" /><glyph glyph-name="uni4E25" unicode="&#x4e25;" d="M231 178 Q219 179 203 179 L167 179 L167 111 L207 111 Q226 112 236 113 L236 94 Q228 95 207 95 L58 95 Q57 49 50 23 Q43 -3 28 -26 Q17 -14 10 -11 Q31 19 35 49 Q39 79 37 111 L98 111 L98 179 L65 179 Q50 179 30 178 L30 196 Q48 195 65 195 L203 195 Q216 195 231 196 L231 178 ZM149 111 L149 179 L116 179 L116 111 L149 111 ZM219 157 Q216 152 209.5 139 Q203 126 199 119 Q193 123 182 127 Q194 150 200 167 Q210 160 219 157 ZM60 164 Q73 139 78 126 Q64 121 59 118 Q54 135 43 155 Q48 158 60 164 Z" /><glyph glyph-name="uni4E27" unicode="&#x4e27;" d="M117 180 Q117 189 116 209 L138 209 Q137 190 137 180 L201 180 Q216 180 231 181 L231 162 Q216 163 201 163 L137 163 L137 99 L207 99 Q223 99 244 100 L244 81 Q224 82 208 82 L126 82 Q136 57 154 42 Q181 64 192 79 Q203 70 213 65 Q202 60 167 30 Q206 8 245 5 Q238 -4 232 -17 Q191 -8 157.5 15 Q124 38 106 82 L72 82 L72 3 Q104 18 118 25 Q118 16 121 5 Q103 -2 84.5 -10.5 Q66 -19 55 -26 Q51 -18 44 -8 Q52 -3 52 6 L52 82 Q31 82 10 81 L10 100 Q31 99 49 99 L117 99 L117 163 L65 163 Q49 163 29 162 L29 181 Q49 180 64 180 L117 180 ZM208 148 Q199 137 192 125 Q185 113 178 103 Q172 108 158 111 Q181 143 186 157 Q199 150 208 148 ZM61 156 Q80 131 91 115 Q82 111 72 103 Q68 114 45 145 Q56 151 61 156 Z" /><glyph glyph-name="uni4E2A" unicode="&#x4e2a;" d="M137 193 Q179 131 246 111 Q236 99 231 88 Q166 116 126 177 Q89 118 27 85 Q22 94 10 104 Q58 124 84.5 155 Q111 186 120 211 Q132 206 144 202 Q140 197 137 193 ZM117 94 Q117 110 115 135 L138 135 Q137 118 137 93 L137 22 Q137 -1 138 -25 L116 -25 Q117 0 117 21 L117 94 Z" /><glyph glyph-name="uni4E2D" unicode="&#x4e2d;" d="M139 208 Q138 180 138 155 L225 155 Q224 135 224 100 Q224 66 225 49 L203 49 L203 64 L138 64 L138 21 Q138 9 139 -24 L115 -24 Q117 -6 117 18 L117 64 L52 64 L52 49 L30 49 Q31 64 31 100 Q31 137 30 155 L117 155 Q117 182 116 208 L139 208 ZM203 80 L203 139 L138 139 L138 80 L203 80 ZM117 80 L117 139 L52 139 L52 80 L117 80 Z" /><glyph glyph-name="uni4E30" unicode="&#x4e30;" d="M140 210 Q138 193 138 166 L200 166 Q211 166 229 168 L229 147 Q209 149 199 149 L138 149 L138 113 L183 113 Q200 113 217 115 L217 93 Q198 95 183 95 L139 95 L139 57 L204 57 Q221 57 244 59 L244 37 Q221 39 204 39 L139 39 L139 12 Q139 -5 141 -28 L114 -28 Q116 -4 116 12 L116 39 L48 39 Q31 39 10 37 L10 59 Q34 57 48 57 L116 57 L116 95 L75 95 Q61 95 37 93 L37 115 Q60 113 74 113 L116 113 L116 149 L64 149 Q47 149 23 147 L23 168 Q48 166 65 166 L116 166 Q116 192 115 210 L140 210 Z" /><glyph glyph-name="uni4E32" unicode="&#x4e32;" d="M117 89 L117 115 L44 115 Q45 131 45 146 Q45 162 44 177 L117 177 Q117 193 116 208 L138 208 Q137 193 137 177 L214 177 Q213 163 213 146 Q213 129 214 115 L137 115 L137 89 L222 89 Q221 73 221 53 Q221 34 222 15 L201 15 L201 23 L137 23 L137 -23 L116 -23 Q117 -7 117 23 L55 23 L55 15 L34 15 Q35 28 35 51 Q35 75 34 89 L117 89 ZM201 39 L201 74 L137 74 L137 39 L201 39 ZM117 39 L117 74 L55 74 L55 39 L117 39 ZM193 130 L193 162 L137 162 L137 130 L193 130 ZM117 130 L117 162 L65 162 L65 130 L117 130 Z" /><glyph glyph-name="uni4E34" unicode="&#x4e34;" d="M239 92 Q238 66 238 36 Q238 7 239 -16 L218 -16 L218 2 L130 2 L130 -19 L109 -19 Q110 6 110 37 Q110 69 109 92 L239 92 ZM66 172 Q66 186 63 208 L87 208 Q85 186 85 171 L85 11 Q85 1 86 -23 L64 -23 Q66 -5 66 11 L66 172 ZM168 198 Q159 191 154 182 Q149 173 145 166 L205 166 Q220 166 240 168 L240 148 Q223 150 207 150 L138 150 Q120 123 107 108 Q97 117 90 120 Q110 140 123.5 166 Q137 192 141 208 Q155 202 168 198 ZM41 175 Q39 157 39 142 L39 48 Q39 32 41 7 L18 7 Q20 32 20 48 L20 141 Q20 151 18 175 L41 175 ZM183 76 L183 18 L217 18 L217 76 L183 76 ZM163 18 L163 76 L130 76 L130 18 L163 18 ZM162 149 Q169 141 183 129 Q197 117 203 108 Q191 99 188 95 Q171 115 148 137 Q155 142 162 149 Z" /><glyph glyph-name="uni4E38" unicode="&#x4e38;" d="M122 205 Q118 192 116 151 L188 151 Q187 141 186 118 L182 14 Q181 4 194 3 L209 3 Q215 4 218 8 Q221 12 224 43 Q236 36 247 34 Q240 -7 230.5 -11.5 Q221 -16 212 -16 L185 -16 Q161 -15 161 6 L166 132 L116 132 Q115 104 112 78 Q129 66 144 54 Q137 48 130 35 Q119 48 104 58 Q85 8 32 -28 Q23 -16 14 -11 Q66 15 87 68 Q78 74 50 91 Q54 98 59 108 Q72 101 92 89 Q95 107 95 132 L60 132 Q45 132 29 131 L29 152 Q46 151 60 151 L95 151 Q96 184 94 208 Q108 206 122 205 Z" /><glyph glyph-name="uni4E39" unicode="&#x4e39;" d="M10 97 Q28 95 41 95 L61 95 L61 164 Q61 187 59 200 L197 200 Q196 185 196 165 L196 95 L217 95 Q229 95 245 96 L245 77 Q230 78 219 78 L196 78 L196 10 Q195 -13 184.5 -18 Q174 -23 145 -26 Q140 -8 135 1 Q159 0 167.5 1 Q176 2 175 17 L175 78 L82 78 Q80 45 69.5 21.5 Q59 -2 36 -27 Q27 -19 12 -12 Q32 4 44.5 25 Q57 46 60 78 L43 78 Q29 78 10 76 L10 97 ZM175 95 L175 183 L83 183 L83 95 L175 95 ZM149 117 Q139 114 126 108 Q119 133 107 157 Q119 162 127 166 Q132 158 149 117 Z" /><glyph glyph-name="uni4E3A" unicode="&#x4e3a;" d="M141 205 Q137 196 135.5 179 Q134 162 131 134 L234 134 Q232 117 231 105 L220 5 Q217 -13 201 -18 Q185 -23 161 -24 Q158 -10 151 0 Q181 -2 190 1 Q199 4 201 19 L211 117 L129 117 Q120 71 95.5 37 Q71 3 34 -24 Q24 -11 16 -6 Q48 10 73.5 41.5 Q99 73 108 117 L75 117 Q58 117 31 116 L31 135 Q58 134 68 134 L111 134 Q115 168 115 209 Q131 206 141 205 ZM140 87 Q165 71 190 54 Q184 48 176 34 Q154 54 130 69 Q137 80 140 87 ZM45 182 Q54 189 60 196 Q88 169 98 157 Q90 150 81 142 Q70 158 45 182 Z" /><glyph glyph-name="uni4E3B" unicode="&#x4e3b;" d="M190 154 Q206 154 230 155 L230 136 Q206 137 190 137 L137 137 L137 87 L177 87 Q193 87 215 88 L215 69 Q193 70 177 70 L137 70 L137 6 L200 6 Q218 6 242 7 L242 -12 Q218 -11 200 -11 L14 -11 L14 8 Q38 6 57 6 L116 6 L116 70 L77 70 Q61 70 39 69 L39 88 Q63 87 77 87 L116 87 L116 137 L66 137 Q45 137 25 136 L25 155 Q47 154 67 154 L190 154 ZM127 156 Q115 174 96 195 Q106 202 112 208 Q133 184 145 167 Q139 164 127 156 Z" /><glyph glyph-name="uni4E3D" unicode="&#x4e3d;" d="M225 143 Q224 123 224 118 L224 1 Q223 -14 214 -17 Q205 -20 189 -22 Q188 -12 181 2 Q197 1 201 1.5 Q205 2 205 10 L205 127 L158 127 L158 -20 L138 -20 Q139 2 139 18 L139 109 Q139 123 138 143 L225 143 ZM116 143 Q115 123 115 115 L115 4 Q114 -11 105 -14 Q96 -17 80 -19 Q79 -9 72 5 Q88 4 92 4.5 Q96 5 96 13 L96 127 L49 127 L49 -20 L29 -20 Q30 2 30 18 L30 109 Q30 123 29 143 L116 143 ZM210 190 Q227 190 246 191 L246 172 Q228 173 211 173 L60 173 Q41 173 12 172 L12 191 Q40 190 59 190 L210 190 ZM176 97 Q198 55 202 46 Q197 43 187 36 Q178 58 162 88 Q169 91 176 97 ZM67 97 Q89 55 93 46 Q88 43 78 36 Q69 58 53 88 Q60 91 67 97 Z" /><glyph glyph-name="uni4E3E" unicode="&#x4e3e;" d="M211 199 Q201 186 194.5 173 Q188 160 181 145 L204 145 Q216 145 240 146 L240 126 Q217 127 204 127 L173 127 Q196 88 245 79 Q241 74 232 58 Q208 66 190 79 L190 63 Q172 64 138 64 L138 36 L196 36 Q209 36 224 38 L224 17 Q210 18 192 18 L138 18 Q138 -11 139 -27 L118 -27 Q119 -11 119 18 L63 18 Q50 18 33 16 L33 37 Q50 36 63 36 L119 36 L119 64 Q83 64 65 63 L65 80 Q47 66 25 55 Q20 64 8 73 Q50 84 84 127 L60 127 Q40 127 17 126 L17 146 Q41 145 60 145 L160 145 Q182 192 185 208 Q200 202 211 199 ZM69 83 Q82 82 119 82 Q119 100 118 114 L139 114 Q138 100 138 82 Q171 82 184 83 Q164 98 152 127 L106 127 Q95 106 69 83 ZM53 202 Q59 196 66 186.5 Q73 177 82 165 Q76 162 63 151 Q56 164 36 188 Q44 193 53 202 ZM134 191 Q139 179 143 167 Q136 166 122 160 Q118 177 106 204 Q117 207 127 211 L134 191 Z" /><glyph glyph-name="uni4E43" unicode="&#x4e43;" d="M38 198 Q65 197 74 197 L196 197 Q190 157 184 122 L235 122 Q230 65 221 11 Q218 -13 201.5 -17.5 Q185 -22 156 -24 Q156 -15 147 1 Q182 0 189 3 Q196 6 199 12 Q208 58 212 104 L158 104 Q166 144 171 179 L107 179 Q106 91 84.5 48.5 Q63 6 30 -23 Q21 -15 11 -9 Q42 15 63 55 Q84 95 86 179 L72 179 Q60 179 38 178 L38 198 Z" /><glyph glyph-name="uni4E45" unicode="&#x4e45;" d="M126 200 Q120 192 115 182 Q110 172 104 161 L185 161 Q175 125 156 90 Q192 23 247 -4 Q235 -14 228 -25 Q176 10 143 70 Q107 16 33 -26 Q24 -11 14 -5 Q76 21 110 62.5 Q144 104 155 141 L94 141 Q74 107 47 76 Q35 87 28 90 Q55 116 74 149.5 Q93 183 100 209 Q116 202 126 200 Z" /><glyph glyph-name="uni4E48" unicode="&#x4e48;" d="M179 139 Q172 133 155.5 110 Q139 87 114 60 Q89 33 70 16 Q92 17 127.5 19 Q163 21 196 23 Q180 51 169 66 Q179 72 186 79 Q202 57 217 34.5 Q232 12 243 -8 Q236 -10 222 -21 Q216 -9 207 5 Q158 3 102.5 -2 Q47 -7 41 -11 Q37 1 32 14 Q47 15 84.5 54 Q122 93 156 155 Q166 146 179 139 ZM137 192 Q134 187 120.5 165.5 Q107 144 86 120 Q65 96 29 66 Q22 77 13 84 Q38 98 69 134.5 Q100 171 115 205 Q128 196 137 192 Z" /><glyph glyph-name="uni4E49" unicode="&#x4e49;" d="M142 47 Q178 15 241 -1 Q231 -12 227 -25 Q171 -7 125 32 Q90 0 27 -25 Q21 -13 14 -4 Q70 10 111 46 Q75 87 46 174 Q53 174 65 182 Q91 100 127 62 Q164 105 187 187 Q202 180 210 178 Q203 161 185.5 119.5 Q168 78 142 47 ZM119 207 Q137 174 147 146 Q135 142 127 138 Q117 167 101 198 Q110 201 119 207 Z" /><glyph glyph-name="uni4E4B" unicode="&#x4e4b;" d="M62 132 Q47 132 27 131 L27 151 Q45 150 61 150 L204 150 L204 133 Q190 127 166 106 Q142 85 84 31 Q108 12 147.5 7 Q187 2 245 8 Q238 0 235 -16 Q174 -17 143.5 -13 Q113 -9 93.5 4 Q74 17 68 20 Q62 23 34 -11 Q24 1 16 4 Q45 33 64 41 Q96 68 165 132 L62 132 ZM122 159 Q116 171 93 198 Q104 204 110 210 Q120 198 126.5 190 Q133 182 141 172 Q127 163 122 159 Z" /><glyph glyph-name="uni4E4C" unicode="&#x4e4c;" d="M174 158 L74 158 L74 84 L234 84 Q230 47 225.5 19 Q221 -9 205.5 -15.5 Q190 -22 168 -24 Q166 -14 158 -2 Q184 -2 191.5 0.5 Q199 3 203 15 Q207 27 211 67 L53 67 Q54 81 54 120 Q54 159 53 175 L86 175 Q90 192 93 210 Q106 206 117 203 Q112 198 106 175 L196 175 Q192 134 189 120.5 Q186 107 171.5 103 Q157 99 136 97 Q134 107 127 118 Q148 118 159 120 Q170 122 171 129 L174 158 ZM148 39 Q159 39 183 40 L183 22 Q159 23 148 23 L42 23 Q29 23 14 22 L14 40 Q30 39 42 39 L148 39 Z" /><glyph glyph-name="uni4E4D" unicode="&#x4e4d;" d="M115 200 Q107 192 101 182.5 Q95 173 90 166 L207 166 Q222 166 243 167 L243 146 Q224 147 207 147 L124 147 L124 106 L187 106 Q202 106 223 107 L223 87 Q207 88 187 88 L124 88 L124 46 L205 46 Q217 46 237 47 L237 26 Q217 28 205 28 L124 28 L124 12 Q124 -3 125 -25 L101 -25 Q102 -6 102 12 L102 147 L78 147 Q52 111 33 93 Q27 102 15 110 Q65 153 86 212 Q102 205 115 200 Z" /><glyph glyph-name="uni4E4E" unicode="&#x4e4e;" d="M122 75 L48 75 Q30 75 15 74 L15 94 Q30 93 48 93 L122 93 L122 169 Q67 163 32 161 Q31 172 27 180 Q95 182 141 189 Q187 196 206 203 Q212 192 220 182 Q213 182 200.5 180 Q188 178 144 172 L144 93 L206 93 Q216 93 240 94 L240 74 Q220 75 206 75 L144 75 L144 10 Q144 -10 132 -15.5 Q120 -21 89 -24 Q87 -10 81 1 Q110 0 116.5 2 Q123 4 122 14 L122 75 ZM213 150 Q209 143 198.5 124 Q188 105 183 98 Q174 104 166 107 Q182 134 193 161 Q207 153 213 150 ZM92 109 Q82 104 75 97 Q64 120 49 143 Q61 149 66 154 Q71 147 76.5 137 Q82 127 92 109 Z" /><glyph glyph-name="uni4E4F" unicode="&#x4e4f;" d="M86 20 Q104 7 145.5 2 Q187 -3 244 5 Q237 -2 235 -21 Q190 -22 155.5 -19.5 Q121 -17 101 -8 Q81 1 70.5 7 Q60 13 51.5 4.5 Q43 -4 34 -21 Q27 -16 14 -9 Q30 12 42 20 Q54 28 60.5 29 Q67 30 75.5 35.5 Q84 41 170 97 L69 97 Q53 97 31 96 L31 115 Q48 114 69 114 L205 114 L205 95 Q195 90 163.5 71 Q132 52 86 20 ZM202 199 Q208 186 217 177 Q191 173 131.5 168 Q72 163 39 161 Q36 171 30 181 Q59 180 122 185 Q185 190 202 199 ZM125 117 Q114 144 107 153 Q121 159 127 163 Q137 144 145 125 Q136 122 125 117 Z" /><glyph glyph-name="uni4E50" unicode="&#x4e50;" d="M124 108 L124 128 Q124 136 123 162 L146 162 Q145 141 145 128 L145 108 L197 108 Q217 108 235 109 L235 89 Q208 90 195 90 L145 90 L145 1 Q145 -16 132 -20 Q119 -24 95 -26 Q92 -12 87 -3 Q106 -4 115 -2.5 Q124 -1 124 7 L124 90 L74 90 Q45 89 37 84 Q35 91 27 101 Q35 107 38.5 116.5 Q42 126 47 185 Q95 185 139.5 191.5 Q184 198 204 204 Q211 188 217 182 Q184 178 142.5 174 Q101 170 67 168 Q62 126 59 108 L124 108 ZM97 60 Q89 53 69 31.5 Q49 10 36 -3 Q31 3 20 12 Q35 24 49.5 39.5 Q64 55 78 76 Q89 65 97 60 ZM181 70 Q196 57 210 43.5 Q224 30 239 15 Q225 5 220 -1 Q206 17 167 55 Q173 60 181 70 Z" /><glyph glyph-name="uni4E52" unicode="&#x4e52;" d="M177 113 L177 63 L214 63 Q225 63 244 64 L244 44 Q227 45 213 45 L39 45 Q25 45 11 44 L11 64 Q25 63 39 63 L58 63 L58 152 Q58 168 57 181 Q79 181 121.5 187 Q164 193 188 203 Q196 191 202 184 Q174 178 142.5 173.5 Q111 169 79 166 L79 130 L186 130 Q200 130 225 131 L225 112 Q202 113 186 113 L177 113 ZM156 63 L156 113 L79 113 L79 63 L156 63 ZM106 29 Q97 21 79 6 Q61 -9 36 -27 Q28 -15 23 -11 Q63 13 90 44 Q100 33 106 29 Z" /><glyph glyph-name="uni4E53" unicode="&#x4e53;" d="M205 182 Q177 178 145.5 175 Q114 172 81 170 L81 130 L188 130 Q198 130 226 131 L226 114 Q196 115 188 115 L172 115 L172 63 L212 63 Q219 63 245 64 L245 45 Q221 46 212 46 L46 46 Q31 46 12 45 L12 64 Q31 63 46 63 L61 63 L61 161 Q61 174 60 186 Q99 187 136 191 Q173 195 193 202 Q199 189 205 182 ZM152 63 L152 115 L81 115 L81 63 L152 63 ZM163 43 Q181 31 199 16.5 Q217 2 232 -10 Q227 -14 217 -26 Q197 -7 150 28 Q158 36 163 43 Z" /><glyph glyph-name="uni4E54" unicode="&#x4e54;" d="M239 132 Q221 134 215 134 L161 134 Q186 92 243 79 Q238 75 230 57 Q200 68 179 85 Q178 69 178 56 L178 6 Q178 -8 179 -27 L157 -27 Q158 -13 158 5 L158 56 Q158 69 157 89 L175 89 Q163 98 140 134 L119 134 Q95 84 29 54 Q24 63 12 72 Q73 90 99 134 L51 134 Q35 134 19 132 L19 152 Q37 150 52 150 L105 150 Q110 164 113 184 Q59 181 44 180 Q42 188 37 197 Q78 196 119.5 199.5 Q161 203 193 212 Q201 195 206 189 Q187 189 132 184 Q130 169 125 150 L210 150 Q220 150 239 151 L239 132 ZM26 -8 Q64 5 75.5 25.5 Q87 46 86 85 L108 85 Q105 74 102 46.5 Q99 19 80.5 -0.5 Q62 -20 45 -28 Q36 -13 26 -8 Z" /><glyph glyph-name="uni4E56" unicode="&#x4e56;" d="M211 190 Q194 189 138 183 L138 151 L213 151 Q218 151 239 152 L239 134 Q221 135 219 135 L138 135 L138 9 Q138 -7 139 -27 L118 -27 Q119 -7 119 9 L119 135 L47 135 Q37 135 16 134 L16 152 Q37 151 46 151 L119 151 L119 181 Q61 179 43 178 Q39 189 36 196 Q86 195 130.5 199 Q175 203 200 210 Q205 195 211 190 ZM179 121 Q177 112 177 80 Q199 93 215 109 Q222 99 228 91 Q220 87 205.5 79 Q191 71 177 63 L177 44 Q177 31 188 32 L210 32 Q218 32 219 54 Q231 46 240 43 Q233 17 218 15 L183 15 Q158 15 158 37 L158 95 Q158 105 157 121 L179 121 ZM30 99 Q45 98 59 98 L80 98 Q80 107 79 121 L99 121 L99 13 L79 13 Q80 31 80 39 Q41 23 32 17 Q29 25 22 36 Q40 41 80 56 L80 82 L52 82 Q46 82 30 81 L30 99 Z" /><glyph glyph-name="uni4E58" unicode="&#x4e58;" d="M203 208 Q209 195 216 189 Q187 186 136 180 L136 156 L203 156 Q214 156 239 157 L239 139 Q215 140 203 140 L136 140 L136 87 Q154 58 181 38.5 Q208 19 244 8 Q235 1 230 -11 Q169 11 136 60 L136 20 Q136 -3 137 -26 L118 -26 Q119 -3 119 20 L119 57 Q93 18 28 -15 Q21 -4 12 0 Q84 28 119 88 L119 140 L50 140 Q41 140 17 139 L17 157 Q43 156 56 156 L119 156 L119 178 Q60 175 42 174 Q40 181 36 191 Q74 190 122 195 Q170 200 203 208 ZM182 131 Q180 115 180 104 Q202 114 215 127 Q221 117 229 111 Q215 103 180 88 L180 77 Q180 68 191 68 L212 68 Q218 68 220 88 Q231 82 240 81 Q233 51 218 52 L184 52 Q164 52 163 71 L163 102 Q163 111 162 131 L182 131 ZM89 131 Q88 119 88 93 L88 52 L70 52 Q71 62 71 66 Q38 54 27 48 Q20 62 16 67 Q32 70 71 83 L71 95 Q54 95 44 94.5 Q34 94 22 93 L22 112 Q34 111 52 111 L71 111 Q71 116 70 131 L89 131 Z" /><glyph glyph-name="uni4E59" unicode="&#x4e59;" d="M196 187 L196 168 Q183 165 155.5 142.5 Q128 120 96.5 88.5 Q65 57 57.5 35.5 Q50 14 79 9 L191 9 Q210 11 210 53 Q226 45 236 44 Q229 -8 199 -9 L72 -9 Q36 -4 33 21 Q30 46 60 79 Q90 112 152 168 L69 168 Q58 168 34 167 L34 188 Q57 187 68 187 L196 187 Z" /><glyph glyph-name="uni4E5D" unicode="&#x4e5d;" d="M117 207 Q114 195 112 148 L186 152 L178 19 Q176 2 189 2 L206 2 Q214 2 216.5 8 Q219 14 221 42 Q233 35 245 33 Q240 -1 234.5 -9.5 Q229 -18 213 -18 L179 -18 Q156 -18 156 10 L163 133 L111 130 Q106 81 88.5 43.5 Q71 6 35 -25 Q28 -15 16 -7 Q38 5 60 38 Q82 71 89 129 Q53 127 31 124 L28 144 Q49 144 90 147 Q92 194 90 209 Q107 207 117 207 Z" /><glyph glyph-name="uni4E5E" unicode="&#x4e5e;" d="M238 22 Q231 -3 225 -10.5 Q219 -18 202 -19 L90 -19 Q73 -19 66 -8.5 Q59 2 62.5 16.5 Q66 31 87 51 Q108 71 145 99 L94 99 Q77 99 54 98 L54 119 Q80 118 94 118 L182 118 L182 97 Q169 94 146 76 Q123 58 104.5 41.5 Q86 25 83 13 Q80 1 94 0 L191 0 Q204 0 208.5 7.5 Q213 15 215 33 Q227 24 238 22 ZM104 198 Q98 193 84 170 L195 170 Q207 170 216 171 L216 150 Q208 151 193 151 L74 151 Q52 121 33 99 Q24 107 14 112 Q33 128 52 156 Q71 184 81 209 Q93 202 104 198 Z" /><glyph glyph-name="uni4E5F" unicode="&#x4e5f;" d="M54 118 Q54 149 53 181 L75 181 Q74 153 74 123 L121 136 L121 166 Q121 187 120 206 L143 206 Q142 188 142 171 L142 142 L218 164 Q215 143 214 127 Q211 89 209 72.5 Q207 56 198 50.5 Q189 45 163 41 Q160 53 155 64 Q179 64 183.5 67 Q188 70 189 80 L194 137 L142 123 L142 78 Q142 52 143 27 L120 27 Q121 51 121 78 L121 117 L74 104 L74 23 Q74 4 92 3 L204 3 Q213 3 215.5 9 Q218 15 220 40 Q233 32 245 30 Q239 -3 232 -9 Q225 -15 205 -15 L84 -15 Q55 -15 54 18 L54 98 Q30 91 22 88 L17 108 Q26 110 54 118 Z" /><glyph glyph-name="uni4E60" unicode="&#x4e60;" d="M100 173 Q71 173 45 172 L45 192 Q78 191 95 191 L220 191 Q218 177 217 148 L213 15 Q211 -12 197 -17 Q183 -22 151 -24 Q148 -12 140 0 Q169 -2 180 0.5 Q191 3 193 19 L197 173 L100 173 ZM168 83 Q168 72 170 62 Q113 41 51 10 Q46 22 37 33 Q50 36 88.5 50 Q127 64 168 83 ZM72 153 Q115 128 136 112 Q132 106 122 93 Q104 110 60 136 Q67 145 72 153 Z" /><glyph glyph-name="uni4E61" unicode="&#x4e61;" d="M133 198 Q123 188 104 166.5 Q85 145 72 131 Q86 131 141 135 Q168 158 181 178 Q196 167 203 163 Q194 157 152 119 Q110 81 88 66 Q156 72 185 75 Q197 93 202 108 Q213 99 222 95 Q218 91 205 70 Q192 49 171 30.5 Q150 12 116 -2 Q82 -16 29 -27 Q25 -13 18 -5 Q59 -3 102.5 12.5 Q146 28 173 58 Q108 50 87 47 Q66 44 59 41 Q52 58 49 62 Q64 64 126 119 Q57 114 54 110 Q51 122 45 131 Q62 141 82 167.5 Q102 194 110 211 Q122 201 133 198 Z" /><glyph glyph-name="uni4E66" unicode="&#x4e66;" d="M103 156 Q103 190 102 208 L125 208 Q123 193 123 156 L199 156 Q197 147 192 88 L230 88 Q225 23 222 13.5 Q219 4 206.5 0.5 Q194 -3 178 -5 Q175 11 169 18 Q187 17 195.5 19 Q204 21 205 32 L208 69 L123 69 L123 16 Q123 -4 124 -23 L100 -23 Q103 -5 103 15 L103 69 L56 69 Q42 69 18 68 L18 89 Q39 88 58 88 L103 88 L103 139 L64 139 Q58 139 37 138 L37 157 Q57 156 71 156 L103 156 ZM172 88 L176 139 L123 139 L123 88 L172 88 ZM185 208 Q198 197 209 186.5 Q220 176 231 164 Q219 154 215 150 Q206 164 170 195 Q180 203 185 208 Z" /><glyph glyph-name="uni4E70" unicode="&#x4e70;" d="M141 165 Q144 164 166 161 Q162 147 161 138.5 Q160 130 157 107.5 Q154 85 151 70 L197 70 Q217 70 240 71 L240 53 Q216 54 203 54 L148 54 Q127 3 38 -26 Q30 -13 22 -9 Q99 7 125 54 L51 54 Q34 54 19 53 L19 71 Q34 70 50 70 L132 70 Q138 94 139.5 116.5 Q141 139 141 165 ZM236 190 Q232 179 227 165 Q222 151 215 133 Q199 137 194 138 Q203 162 208 175 L71 175 Q43 175 32 174 L32 191 Q43 190 67 190 L236 190 ZM156 38 Q174 29 195 17.5 Q216 6 235 -7 Q230 -12 222 -25 Q195 -4 147 23 Q153 31 156 38 ZM53 124 Q87 103 102 92 Q96 88 88 77 Q79 85 42 109 Q52 118 53 124 ZM75 163 Q108 142 121 132 Q119 130 108 117 Q90 133 65 149 Q73 158 75 163 Z" /><glyph glyph-name="uni4E71" unicode="&#x4e71;" d="M124 202 Q129 190 135 184 Q105 178 88 175 L88 136 L109 136 Q122 136 145 137 L145 119 Q123 120 107 120 L88 120 L88 76 L130 76 Q129 58 129 44 L129 13 Q129 -3 130 -21 L109 -21 L109 -3 L48 -3 L48 -21 L28 -21 Q29 -5 29 12 L29 45 Q29 62 28 76 L69 76 L69 120 L52 120 Q35 120 14 119 L14 137 Q37 136 46 136 L69 136 L69 172 Q42 168 23 165 Q21 177 18 182 Q35 182 66.5 187.5 Q98 193 124 202 ZM176 201 Q175 183 175 161 L175 13 Q176 -2 186 -2 L212 -2 Q218 -3 221 5 Q224 13 225 28 Q234 21 247 18 Q241 -9 234.5 -14.5 Q228 -20 217 -20 L182 -20 Q158 -20 156 5 L156 162 Q156 184 155 201 L176 201 ZM109 13 L109 60 L48 60 L48 13 L109 13 Z" /><glyph glyph-name="uni4E73" unicode="&#x4e73;" d="M21 107 Q37 106 57 106 L145 106 L145 91 Q119 78 98 65 L98 55 Q132 59 147 62 Q146 58 146 44 Q111 40 98 38 Q99 -6 94.5 -12.5 Q90 -19 63 -25 Q59 -17 51 -5 Q74 -4 76.5 0 Q79 4 79 36 Q32 29 21 26 Q18 37 14 46 Q38 48 79 53 Q79 69 78 74 Q101 86 108 91 L57 91 Q34 91 21 90 L21 107 ZM182 204 Q181 189 181 162 L181 19 Q181 7 183.5 4.5 Q186 2 202 2 Q218 2 219.5 8.5 Q221 15 222 39 Q230 34 243 31 Q238 -2 232.5 -7.5 Q227 -13 214 -14 L185 -14 Q162 -14 162 9 L162 163 Q162 188 161 204 L182 204 ZM17 188 Q55 191 91.5 196.5 Q128 202 140 208 Q147 192 151 187 Q114 184 77.5 179 Q41 174 25 171 Q22 179 17 188 ZM111 126 Q127 154 132 174 Q143 169 152 166 Q147 157 141 144.5 Q135 132 128 118 Q122 122 111 126 ZM41 119 Q31 144 23 155 Q34 159 41 163 Q51 144 59 127 Q49 124 41 119 ZM86 169 Q93 154 101 134 Q92 130 83 127 Q78 144 69 163 Q79 166 86 169 Z" /><glyph glyph-name="uni4E7E" unicode="&#x4e7e;" d="M66 182 Q66 192 65 209 L84 209 Q83 197 83 182 Q116 182 129 183 L129 166 Q116 167 83 167 L83 141 L120 141 Q119 131 119 102 Q119 73 120 60 L83 60 L83 37 L117 37 Q126 37 133 38 L133 21 Q127 22 118 22 L83 22 Q83 -12 84 -25 L65 -25 Q66 -13 66 22 L27 22 Q19 22 11 21 L11 38 Q20 37 29 37 L66 37 L66 60 L27 60 Q28 75 28 102 Q28 129 27 141 L66 141 L66 167 Q34 167 18 166 L18 183 Q35 182 66 182 ZM212 112 L212 98 Q197 83 179 56.5 Q161 30 158 17.5 Q155 5 169 2 L211 2 Q219 2 221 32 Q229 24 244 22 Q237 -1 232 -7 Q227 -13 214 -14 L156 -14 Q139 -10 138 5 Q137 20 150 43 Q163 66 187 97 Q153 97 138 96 L138 113 Q152 112 165 112 L212 112 ZM121 124 Q132 135 144 158.5 Q156 182 163 208 Q174 203 184 199 Q180 195 170 173 L202 173 Q217 173 236 174 L236 157 Q220 158 201 158 L164 158 Q151 134 135 113 Q129 119 121 124 ZM101 107 L101 127 L45 127 L45 107 L101 107 ZM101 74 L101 93 L45 93 L45 74 L101 74 Z" /><glyph glyph-name="uni4E86" unicode="&#x4e86;" d="M224 192 L224 170 Q213 166 183 146 Q153 126 140 116 L140 2 Q139 -15 122.5 -19.5 Q106 -24 89 -26 Q84 -5 79 2 Q104 1 111 2.5 Q118 4 118 16 L118 96 Q118 119 115 128 Q132 135 189 174 L83 174 Q59 173 37 173 L37 193 Q59 192 73 192 L224 192 Z" /><glyph glyph-name="uni4E88" unicode="&#x4e88;" d="M157 126 Q150 119 143 111 L240 111 Q237 101 233.5 88 Q230 75 226 62 Q217 65 203 67 Q208 82 212 95 L141 95 L141 -2 Q140 -15 127.5 -19 Q115 -23 99 -25 Q97 -12 89 0 Q106 0 112.5 0.5 Q119 1 119 10 L119 95 L46 95 Q30 95 13 94 L13 112 Q30 111 48 111 L137 111 Q121 125 106.5 135 Q92 145 83 151 Q90 159 97 166 Q104 161 112 156.5 Q120 152 129 146 Q161 169 176 183 L79 183 Q61 183 46 182 L46 200 Q61 199 79 199 L210 199 L210 181 Q192 170 175.5 158 Q159 146 145 135 Q150 131 157 126 Z" /><glyph glyph-name="uni4E89" unicode="&#x4e89;" d="M209 140 Q208 126 208 101 L219 101 Q233 101 244 102 L244 85 Q234 86 220 86 L208 86 Q208 47 209 34 L189 34 L189 44 L134 44 L134 0 Q133 -15 123.5 -18 Q114 -21 95 -24 Q92 -12 85 -1 Q107 -2 111 0.5 Q115 3 115 10 L115 44 L43 44 L43 60 Q58 59 75 59 L115 59 L115 86 L52 86 Q35 86 18 85 L18 102 Q35 101 48 101 L115 101 L115 126 L83 126 Q69 126 52 125 L52 138 Q44 130 33 121 Q31 125 19 133 Q38 146 56 168.5 Q74 191 84 212 Q91 206 105 203 Q99 198 95.5 193.5 Q92 189 88 184 L177 184 Q169 173 148 140 L209 140 ZM78 167 Q68 155 55 141 Q67 140 79 140 L128 140 Q135 153 143 167 L78 167 ZM189 59 L189 86 L134 86 L134 59 L189 59 ZM189 101 L189 126 L134 126 L134 101 L189 101 Z" /><glyph glyph-name="uni4E8B" unicode="&#x4e8b;" d="M209 64 Q224 64 242 65 L242 47 Q232 48 209 48 Q209 22 210 7 L190 7 L190 17 L136 17 L136 -2 Q135 -14 127.5 -18 Q120 -22 98 -25 Q96 -15 88 -3 Q106 -3 112 -2 Q118 -1 118 4 L118 17 L62 17 Q51 17 36 16 L36 34 Q51 33 62 33 L118 33 L118 48 L43 48 Q30 48 18 47 L18 65 Q30 64 43 64 L118 64 L118 78 L60 78 Q49 78 36 77 L36 95 Q49 94 60 94 L118 94 L118 107 L48 107 Q49 122 49 134 Q49 147 48 159 L118 159 L118 173 L47 173 Q31 173 17 172 L17 190 Q31 189 46 189 L118 189 Q118 196 117 207 L137 207 Q136 199 136 189 L204 189 Q221 189 239 190 L239 172 Q221 173 204 173 L136 173 L136 159 L208 159 Q207 147 207 134 Q207 121 208 107 L136 107 L136 94 L210 94 Q209 84 209 64 ZM188 123 L188 143 L136 143 L136 123 L188 123 ZM118 123 L118 143 L67 143 L67 123 L118 123 ZM190 33 L190 48 L136 48 L136 33 L190 33 ZM190 64 L190 78 L136 78 L136 64 L190 64 Z" /><glyph glyph-name="uni4E8C" unicode="&#x4e8c;" d="M202 25 Q226 25 241 27 L241 2 Q225 3 202 3 L57 3 Q31 3 14 2 L14 26 Q32 25 56 25 L202 25 ZM174 166 Q196 167 214 168 L214 143 Q196 144 175 144 L82 144 Q58 144 40 143 L40 167 Q58 166 81 166 L174 166 Z" /><glyph glyph-name="uni4E8E" unicode="&#x4e8e;" d="M116 97 L46 97 Q26 97 11 96 L11 116 Q26 115 46 115 L116 115 L116 178 L67 178 Q49 178 36 177 L36 197 Q49 196 67 196 L181 196 Q198 196 215 197 L215 177 Q198 178 181 178 L137 178 L137 115 L202 115 Q224 115 242 116 L242 96 Q226 97 202 97 L137 97 L137 5 Q137 -13 125 -16.5 Q113 -20 90 -21 Q89 -8 82 6 Q98 4 107 4.5 Q116 5 116 13 L116 97 Z" /><glyph glyph-name="uni4E8F" unicode="&#x4e8f;" d="M207 81 Q202 58 194 29.5 Q186 1 181 -8 Q176 -17 163.5 -20 Q151 -23 129 -25 Q127 -9 120 3 Q155 -2 161 6.5 Q167 15 180 62 L61 62 Q68 82 75 117 L46 117 Q32 117 13 116 L13 137 Q32 136 45 136 L208 136 Q223 136 245 137 L245 116 Q223 117 208 117 L97 117 L88 81 L207 81 ZM184 192 Q194 192 212 193 L212 172 Q195 173 184 173 L76 173 Q63 173 49 172 L49 193 Q63 192 75 192 L184 192 Z" /><glyph glyph-name="uni4E91" unicode="&#x4e91;" d="M197 2 Q110 -5 80.5 -8.5 Q51 -12 45 -14 Q41 -3 36 8 Q43 10 55 24 Q67 38 83.5 64.5 Q100 91 102 104 L50 104 Q38 104 17 103 L17 122 Q38 121 53 121 L209 121 Q222 121 239 122 L239 103 Q223 104 208 104 L107 104 Q113 100 127 91 Q120 84 114.5 76 Q109 68 97.5 51 Q86 34 64 8 Q97 11 186 17 Q168 41 153 57 Q161 63 168 70 Q215 15 228 -4 Q221 -9 211 -17 Q204 -6 197 2 ZM181 189 Q196 189 212 190 L212 170 Q197 171 181 171 L76 171 Q64 171 49 170 L49 190 Q64 189 75 189 L181 189 Z" /><glyph glyph-name="uni4E92" unicode="&#x4e92;" d="M209 6 Q228 6 241 7 L241 -13 Q229 -12 209 -12 L50 -12 Q27 -12 13 -13 L13 7 Q27 6 49 6 L156 6 L163 45 L60 45 Q73 103 86 167 L58 167 Q42 167 28 166 L28 185 Q42 184 59 184 L201 184 Q220 184 233 185 L233 166 Q220 167 201 167 L106 167 L98 128 L196 128 Q186 66 176 6 L209 6 ZM95 111 Q89 83 85 62 L166 62 L173 111 L95 111 Z" /><glyph glyph-name="uni4E94" unicode="&#x4e94;" d="M199 184 Q213 184 226 185 L226 167 Q213 168 200 168 L126 168 L120 115 L198 115 Q196 103 196 85 L194 12 Q226 12 240 13 L240 -8 Q226 -7 199 -7 L55 -7 Q31 -7 17 -9 L17 13 Q32 12 53 12 L86 12 L98 99 L74 99 Q56 99 45 98 L45 116 Q57 115 74 115 L101 115 L107 168 L62 168 Q46 168 32 167 L32 185 Q45 184 62 184 L199 184 ZM174 12 L177 99 L118 99 L106 12 L174 12 Z" /><glyph glyph-name="uni4E95" unicode="&#x4e95;" d="M79 156 Q79 190 78 205 L101 205 Q100 193 100 156 L155 156 Q155 189 154 206 L178 206 Q177 190 177 156 L199 156 Q218 156 234 157 L234 137 Q218 138 199 138 L177 138 L177 86 L205 86 Q225 86 245 87 L245 66 Q225 67 205 67 L177 67 L177 17 Q177 -2 178 -23 L154 -23 Q155 -2 155 17 L155 67 L99 67 Q95 12 40 -24 Q31 -15 19 -9 Q72 18 78 67 L49 67 Q30 67 9 66 L9 87 Q30 86 50 86 L79 86 L79 138 L59 138 Q42 138 24 137 L24 157 Q42 156 59 156 L79 156 ZM155 86 L155 138 L100 138 L100 86 L155 86 Z" /><glyph glyph-name="uni4E9A" unicode="&#x4e9a;" d="M186 191 Q207 191 225 192 L225 173 Q208 174 186 174 L162 174 L162 5 L191 5 Q215 5 240 6 L240 -15 Q216 -14 192 -14 L60 -14 Q38 -14 16 -15 L16 6 Q38 5 60 5 L90 5 L90 174 L68 174 Q47 174 27 173 L27 192 Q47 191 68 191 L186 191 ZM142 5 L142 174 L110 174 L110 5 L142 5 ZM49 138 Q56 123 64 105.5 Q72 88 83 58 Q72 53 64 49 Q56 74 30 128 Q40 133 49 138 ZM227 127 Q217 111 208.5 92.5 Q200 74 187 47 Q177 52 168 56 Q198 111 206 138 Q215 133 227 127 Z" /><glyph glyph-name="uni4E9B" unicode="&#x4e9b;" d="M56 170 Q55 157 55 141 L55 89 Q67 91 80 94 L80 172 Q80 187 79 203 L100 203 Q98 187 98 172 L98 158 Q115 158 130 159 L130 142 Q115 143 98 143 L98 97 Q112 100 133 104 Q131 96 133 86 Q82 77 56 71 Q30 65 22 63 Q20 71 15 83 L37 86 L37 142 Q37 158 36 170 L56 170 ZM162 204 Q161 189 161 168 L161 142 Q201 163 215 177 Q222 167 231 159 Q220 155 161 125 L161 98 Q160 86 173 85 L205 85 Q215 85 217 109 Q226 102 236 100 Q231 69 210 69 L164 69 Q143 70 143 91 L143 167 Q143 190 142 204 L162 204 ZM195 3 Q210 3 239 4 L239 -15 Q210 -14 195 -14 L54 -14 Q34 -14 18 -15 L18 4 Q35 3 55 3 L195 3 ZM166 51 Q191 51 209 52 L209 34 Q192 35 163 35 L86 35 Q65 35 46 34 L46 52 Q72 51 86 51 L166 51 Z" /><glyph glyph-name="uni4EA1" unicode="&#x4ea1;" d="M207 152 Q225 152 244 153 L244 133 Q228 134 207 134 L77 134 L77 14 L188 14 Q209 14 226 15 L226 -6 Q210 -5 189 -5 L55 -5 Q56 12 56 31 L56 134 L47 134 Q31 134 13 133 L13 153 Q30 152 47 152 L207 152 ZM126 209 Q140 183 149 162 Q136 158 125 154 Q114 186 104 199 Q115 203 126 209 Z" /><glyph glyph-name="uni4EA4" unicode="&#x4ea4;" d="M93 104 Q111 63 128 46 Q155 73 169 109 Q177 103 189 96 Q165 58 142 33 Q176 7 240 1 Q230 -13 228 -22 Q164 -10 126 21 Q83 -11 26 -24 Q23 -12 15 -2 Q76 5 111 34 Q88 61 74 94 Q86 99 93 104 ZM50 149 Q35 149 21 148 L21 168 L49 166 L205 166 Q221 167 238 168 L238 147 Q221 148 205 149 L50 149 ZM101 132 Q87 119 41 80 Q33 90 22 96 Q41 106 56.5 121 Q72 136 80 147 Q90 140 101 132 ZM173 147 Q178 143 196 129.5 Q214 116 231 104 Q220 96 212 87 Q203 99 156 132 Q164 140 173 147 ZM130 212 Q140 189 145 175 Q131 171 121 168 Q115 185 106 205 Q118 209 130 212 Z" /><glyph glyph-name="uni4EA5" unicode="&#x4ea5;" d="M131 210 Q137 192 142 172 L193 172 Q223 172 238 173 L238 153 Q225 154 194 154 L105 154 Q111 150 117 147 Q110 141 101 132.5 Q92 124 76 109 Q99 110 142 111 Q154 123 162 138 Q173 129 183 125 Q172 113 156.5 96.5 Q141 80 114 61.5 Q87 43 44 28 Q40 39 31 48 Q92 61 128 95 Q62 91 46 86 Q44 96 39 107 Q51 109 66.5 123 Q82 137 92 154 L64 154 Q38 154 13 153 L13 173 Q39 172 65 172 L118 172 Q113 192 107 203 Q121 206 131 210 ZM209 89 Q200 82 188.5 69 Q177 56 162 40 Q210 7 231 -8 Q220 -16 213 -25 Q186 2 147 27 Q101 -6 32 -27 Q29 -18 20 -7 Q70 4 113 28 Q156 52 187 103 Q200 94 209 89 Z" /><glyph glyph-name="uni4EA6" unicode="&#x4ea6;" d="M201 165 Q222 165 242 166 L242 147 Q221 148 201 148 L169 148 L169 6 Q168 -14 158.5 -18 Q149 -22 126 -22 Q125 -11 119 4 Q144 1 146.5 2.5 Q149 4 149 11 L149 148 L111 148 Q113 65 95 29.5 Q77 -6 38 -24 Q31 -13 20 -5 Q58 7 76 39.5 Q94 72 92 148 L58 148 Q40 148 18 147 L18 166 Q40 165 59 165 L201 165 ZM73 109 Q68 104 60 83.5 Q52 63 37 38 Q30 44 18 50 Q28 65 35 81.5 Q42 98 48 116 Q60 112 73 109 ZM206 114 Q215 96 223.5 78.5 Q232 61 240 47 Q228 43 218 38 Q206 70 186 105 Q196 111 206 114 ZM129 211 Q136 197 139 188.5 Q142 180 144 173 Q134 170 121 167 Q114 190 106 202 Q118 207 129 211 Z" /><glyph glyph-name="uni4EA7" unicode="&#x4ea7;" d="M202 148 Q197 142 190.5 130.5 Q184 119 179 109 L210 109 Q231 109 238 110 L238 90 Q230 91 212 91 L61 91 Q61 12 23 -25 Q19 -17 8 -10 Q34 19 38 50.5 Q42 82 40 109 L158 109 Q171 136 177 159 Q190 153 202 148 ZM140 211 Q142 204 148 179 L198 179 Q216 179 232 180 L232 161 Q216 162 201 162 L80 162 Q65 162 42 161 L42 180 Q66 179 73 179 L125 179 Q122 192 117 206 Q129 209 140 211 ZM95 158 Q107 142 118 121 Q108 117 97 111 Q88 132 76 147 Q86 153 95 158 Z" /><glyph glyph-name="uni4EA9" unicode="&#x4ea9;" d="M218 128 Q217 112 217 90 L217 21 Q217 -1 218 -24 L196 -24 L196 -4 L63 -4 L63 -24 L42 -24 Q43 -4 43 21 L43 91 Q43 110 42 128 L218 128 ZM64 153 Q40 153 13 152 L13 172 Q38 171 68 171 L120 171 Q115 183 106 200 Q121 205 127 209 Q137 186 144 171 L187 171 Q213 171 245 172 L245 152 Q213 153 187 153 L64 153 ZM196 13 L196 55 L138 55 L138 13 L196 13 ZM196 71 L196 112 L138 112 L138 71 L196 71 ZM118 13 L118 55 L63 55 L63 13 L118 13 ZM118 71 L118 112 L63 112 L63 71 L118 71 Z" /><glyph glyph-name="uni4EAB" unicode="&#x4eab;" d="M216 90 L216 72 Q191 67 172.5 58.5 Q154 50 143 45 L208 45 Q229 45 247 46 L247 28 Q230 29 208 29 L142 29 L142 -3 Q143 -13 134.5 -18 Q126 -23 104 -26 Q104 -16 96 -5 Q119 -6 121 -2.5 Q123 1 123 29 L49 29 Q29 29 14 28 L14 46 Q30 45 51 45 L123 45 Q123 48 122 53 L166 74 L73 74 Q60 74 41 73 L41 91 Q54 90 75 90 L216 90 ZM201 153 Q200 140 200 128 Q200 117 201 106 L56 106 Q57 118 57 129 Q57 141 56 153 L201 153 ZM136 212 Q143 192 145 185 L198 185 Q217 185 234 186 L234 168 Q217 169 198 169 L63 169 Q45 169 24 168 L24 186 Q48 185 69 185 L123 185 Q121 191 114 206 L136 212 ZM182 120 L182 139 L75 139 L75 120 L182 120 Z" /><glyph glyph-name="uni4EAC" unicode="&#x4eac;" d="M204 138 Q203 122 203 99 Q203 77 204 65 L141 65 L141 4 Q141 -13 132 -18 Q123 -23 98 -26 Q95 -14 88 -4 Q110 -5 115.5 -3 Q121 -1 121 11 L121 65 L55 65 Q56 82 56 103 Q56 124 55 138 L204 138 ZM126 211 Q136 195 145 176 L200 176 Q223 176 240 177 L240 158 Q223 159 200 159 L57 159 Q38 159 17 158 L17 177 Q37 176 57 176 L121 176 Q118 185 107 203 Q119 207 126 211 ZM183 82 L183 121 L76 121 L76 82 L183 82 ZM93 43 Q75 25 34 -13 Q26 -4 18 3 Q60 34 77 59 Q84 50 93 43 ZM176 55 Q197 39 212.5 26.5 Q228 14 236 6 Q228 -2 220 -11 Q206 5 163 39 Q169 46 176 55 Z" /><glyph glyph-name="uni4EAD" unicode="&#x4ead;" d="M193 153 Q192 142 192 129 Q192 116 193 103 L58 103 Q59 116 59 129 Q59 142 58 153 L193 153 ZM238 89 Q237 80 237 72 Q237 64 238 52 L218 52 L218 73 L37 73 L37 50 L16 50 Q17 59 17 69 Q17 80 16 89 L238 89 ZM168 55 Q190 55 207 56 L207 38 Q191 39 169 39 L138 39 L138 -1 Q137 -15 126.5 -19 Q116 -23 94 -26 Q92 -15 86 -5 Q109 -5 113.5 -2.5 Q118 0 118 5 L118 39 L91 39 Q71 39 52 38 L52 56 Q71 55 91 55 L168 55 ZM131 211 Q135 201 140 186 L188 186 Q212 186 230 187 L230 169 Q213 170 188 170 L61 170 Q42 170 26 169 L26 187 Q41 186 61 186 L118 186 Q115 197 110 205 Q119 207 131 211 ZM173 119 L173 138 L78 138 L78 119 L173 119 Z" /><glyph glyph-name="uni4EAE" unicode="&#x4eae;" d="M199 152 Q198 143 198 129 Q198 115 199 106 L58 106 Q59 116 59 129 Q59 142 58 152 L199 152 ZM243 10 Q237 -19 217 -20 L168 -20 Q150 -19 149 0 L149 40 L106 40 Q102 8 87 -5 Q72 -18 39 -27 Q37 -15 25 -6 Q72 -1 78 18.5 Q84 38 82 54 L170 54 L170 9 Q171 -5 184 -4 L209 -4 Q219 -4 220 21 Q232 13 243 10 ZM240 88 Q239 80 239 69 Q239 59 240 51 L218 51 L218 72 L39 72 L39 50 L17 50 Q18 60 18 69 Q18 78 17 88 L240 88 ZM108 206 Q119 208 130 212 Q137 196 140 187 L195 187 Q214 187 234 188 L234 170 Q214 171 195 171 L65 171 Q43 171 24 170 L24 188 Q43 187 64 187 L116 187 Q113 198 108 206 ZM177 120 L177 138 L80 138 L80 120 L177 120 Z" /><glyph glyph-name="uni4EB2" unicode="&#x4eb2;" d="M192 153 Q183 146 172 121 L204 121 Q220 121 241 122 L241 104 Q221 105 204 105 L141 105 L141 72 L192 72 Q208 72 230 73 L230 55 Q209 56 192 56 L141 56 L141 1 Q141 -15 132 -19 Q123 -23 102 -26 Q100 -14 91 -3 Q110 -5 115.5 -3 Q121 -1 121 5 L121 56 L62 56 Q47 56 29 55 L29 73 Q48 72 63 72 L121 72 L121 105 L55 105 Q36 105 18 104 L18 122 Q36 121 55 121 L150 121 Q162 144 167 164 Q183 157 192 153 ZM191 183 Q206 183 227 184 L227 166 Q206 167 191 167 L67 167 Q49 167 30 166 L30 184 Q49 183 67 183 L117 183 Q113 195 108 206 Q120 208 130 211 Q136 200 140 183 L191 183 ZM181 44 Q191 36 206 23 Q221 10 233 -1 Q223 -8 215 -16 Q207 -5 166 30 Q173 37 181 44 ZM19 -1 Q43 13 67 47 Q78 41 90 36 Q80 31 67 15.5 Q54 0 38 -14 Q32 -7 19 -1 ZM88 123 Q83 136 73 154 Q82 158 90 163 Q103 141 107 131 Q97 128 88 123 Z" /><glyph glyph-name="uni4EBA" unicode="&#x4eba;" d="M14 -6 Q53 13 75 41 Q97 69 105.5 98.5 Q114 128 115 153.5 Q116 179 114 207 Q125 206 139 205 Q136 189 136 172 Q136 155 138 133 Q140 111 166.5 66.5 Q193 22 244 0 Q232 -12 228 -20 Q158 14 128 103 Q108 24 31 -23 Q25 -15 14 -6 Z" /><glyph glyph-name="uni4EBF" unicode="&#x4ebf;" d="M209 180 L209 163 Q195 154 165.5 111 Q136 68 123 37 Q110 6 129 3 Q148 0 177 1 Q206 2 210 10.5 Q214 19 216 42 Q228 34 239 32 Q234 9 231 1.5 Q228 -6 219 -11 Q210 -16 161 -16.5 Q112 -17 102 -1.5 Q92 14 103 41 Q114 68 137 103 Q160 138 176 160 L133 160 Q109 160 95 159 L95 181 Q108 180 133 180 L209 180 ZM93 197 Q90 193 84 181 Q78 169 72 153 L72 24 Q72 -8 73 -25 L51 -25 Q52 -9 52 23 L52 118 Q39 96 25 76 Q18 87 11 93 Q33 119 48.5 151.5 Q64 184 71 208 Q81 202 93 197 Z" /><glyph glyph-name="uni4EC0" unicode="&#x4ec0;" d="M151 126 L151 176 Q151 190 150 206 L173 206 Q171 190 171 176 L171 126 L212 126 Q225 126 243 127 L243 107 Q226 108 213 108 L171 108 L171 10 Q171 -6 172 -23 L150 -23 Q151 -7 151 9 L151 108 L116 108 Q100 108 85 107 L85 127 Q100 126 115 126 L151 126 ZM99 197 Q93 188 87 177 Q81 166 75 153 L75 16 Q75 -10 76 -25 L53 -25 Q54 -8 54 14 L54 116 Q42 95 28 76 Q22 83 13 91 Q31 109 51 148 Q71 187 76 208 Q87 201 99 197 Z" /><glyph glyph-name="uni4EC1" unicode="&#x4ec1;" d="M73 19 Q73 -7 74 -24 L53 -24 Q54 -7 54 19 L54 123 Q46 107 30 79 Q25 85 13 91 Q29 111 46.5 146.5 Q64 182 71 210 Q85 203 94 200 Q90 195 84.5 183.5 Q79 172 73 156 L73 19 ZM207 26 Q224 26 241 27 L241 5 Q224 6 208 6 L120 6 Q103 6 87 5 L87 27 Q103 26 119 26 L207 26 ZM197 157 Q211 157 229 158 L229 136 Q211 137 197 137 L136 137 Q119 137 101 136 L101 158 Q119 157 136 157 L197 157 Z" /><glyph glyph-name="uni4EC5" unicode="&#x4ec5;" d="M92 165 L92 185 Q110 184 131 184 L222 184 Q208 100 173 48 Q206 16 245 2 Q234 -11 231 -21 Q193 -1 160 33 Q124 -1 87 -23 Q82 -13 71 -3 Q113 14 146 49 Q117 87 104 166 L92 165 ZM66 21 Q66 -8 67 -24 L45 -24 Q47 -5 47 21 L47 117 Q34 98 27 87 Q20 96 10 103 Q25 117 41.5 148.5 Q58 180 65 210 Q76 205 89 201 Q81 191 66 151 L66 21 ZM125 166 Q138 92 160 66 Q187 105 197 166 L125 166 Z" /><glyph glyph-name="uni4EC6" unicode="&#x4ec6;" d="M106 199 Q98 192 85 150 L85 21 Q85 0 86 -22 L64 -22 Q65 0 65 21 L65 117 Q52 94 30 64 Q23 74 14 79 Q41 106 59 146.5 Q77 187 81 209 Q92 204 106 199 ZM169 18 Q169 -1 170 -21 L147 -21 Q148 -1 148 18 L148 171 Q148 188 147 206 L170 206 Q169 188 169 171 L169 18 ZM184 140 Q196 130 214.5 114 Q233 98 246 86 Q238 79 231 69 Q215 89 172 124 Q180 132 184 140 Z" /><glyph glyph-name="uni4EC7" unicode="&#x4ec7;" d="M196 11 Q195 -1 203 -1 Q212 -1 216 -0.5 Q220 0 222 7.5 Q224 15 225 29 Q236 22 246 20 Q238 -12 232 -15 Q226 -18 216 -18 Q207 -18 196 -17.5 Q185 -17 181 -11 Q177 -5 177 4 L183 131 L146 129 Q142 34 93 -24 Q85 -16 75 -13 Q123 38 127 128 Q98 127 85 124 L82 143 Q99 143 128 145 Q129 185 128 206 Q139 203 152 203 Q149 192 147 146 L204 149 Q202 133 201 118 L196 11 ZM90 196 Q85 190 69 148 L69 18 Q69 -7 70 -25 L49 -25 Q50 -6 50 18 L50 115 Q37 94 27 79 Q18 88 11 93 Q30 114 45 144.5 Q60 175 68 206 Q78 200 90 196 Z" /><glyph glyph-name="uni4ECA" unicode="&#x4eca;" d="M138 194 Q187 124 245 101 Q235 92 229 81 Q168 117 128 181 Q93 126 28 80 Q22 90 12 96 Q46 113 76.5 144 Q107 175 121 211 Q130 207 143 202 L138 194 ZM210 76 L210 59 Q203 56 177 21.5 Q151 -13 142 -31 Q138 -27 124 -17 Q140 3 178 58 L82 58 Q63 58 55 57 L55 77 Q63 76 83 76 L210 76 ZM117 136 Q137 113 150 98 Q141 92 132 84 Q117 108 102 122 Q113 131 117 136 Z" /><glyph glyph-name="uni4ECB" unicode="&#x4ecb;" d="M139 199 Q135 195 133 192 Q183 128 244 118 Q232 106 229 93 Q173 109 124 178 Q82 119 31 84 Q24 94 13 103 Q55 125 82.5 159.5 Q110 194 113 208 Q127 203 139 199 ZM99 107 Q98 61 88.5 30.5 Q79 0 46 -26 Q38 -15 25 -8 Q57 9 67.5 34 Q78 59 76 109 Q90 107 99 107 ZM180 110 Q179 100 179 85 L179 4 Q179 -8 180 -24 L157 -24 Q158 -8 158 4 L158 84 Q158 98 157 110 L180 110 Z" /><glyph glyph-name="uni4ECD" unicode="&#x4ecd;" d="M148 174 Q148 88 133 47 Q118 6 94 -22 Q88 -15 75 -9 Q100 15 115 57 Q130 99 128 174 Q108 174 99 173 L99 192 Q118 191 132 191 L221 191 Q218 177 207 116 L243 116 L238 76 L229 3 Q227 -8 217.5 -13.5 Q208 -19 182 -22 Q182 -13 174 1 Q197 0 203.5 4 Q210 8 211 18 L221 98 L182 98 Q190 133 196 174 L148 174 ZM11 92 Q26 107 47 147 Q68 187 73 207 Q83 201 94 196 Q89 191 69 149 L69 20 Q69 -8 70 -27 L49 -27 Q50 -9 50 17 L50 116 Q43 103 26 79 Q18 88 11 92 Z" /><glyph glyph-name="uni4ECE" unicode="&#x4ece;" d="M176 200 Q174 189 173.5 176 Q173 163 174.5 129 Q176 95 196 56.5 Q216 18 244 -2 Q233 -12 227 -21 Q182 20 165 86 Q151 22 100 -25 Q93 -17 83 -11 Q114 13 130 45 Q146 77 150 107.5 Q154 138 152 203 Q164 201 176 200 ZM87 196 Q85 183 83 104 Q118 68 129 54 Q119 48 112 38 Q105 52 79 82 Q70 36 26 -13 Q24 -8 10 1 Q42 33 53.5 64 Q65 95 65 141 Q65 187 64 199 Q77 196 87 196 Z" /><glyph glyph-name="uni4ED1" unicode="&#x4ed1;" d="M96 115 Q94 93 94 73 L94 61 Q156 87 176 106 Q184 94 193 86 Q161 70 94 43 L94 17 Q94 0 110 1 L173 1 Q185 0 188.5 6.5 Q192 13 196 38 Q210 32 219 31 Q211 -17 192 -16 L101 -16 Q73 -16 72 6 L72 74 Q72 97 71 115 L96 115 ZM134 192 Q188 130 241 110 Q228 100 225 89 Q174 112 123 176 Q97 130 27 87 Q22 99 13 106 Q57 126 85 160 Q113 194 117 212 Q128 206 142 202 Q138 198 134 192 Z" /><glyph glyph-name="uni4ED3" unicode="&#x4ed3;" d="M186 114 Q185 100 185 87 L185 62 Q186 44 174.5 39 Q163 34 137 31 Q131 49 126 54 Q157 54 161 56 Q165 58 165 71 L165 97 L88 97 L88 15 Q89 2 100 2 L182 2 Q194 2 198.5 9.5 Q203 17 204 34 Q214 25 227 21 Q221 1 214.5 -7.5 Q208 -16 191 -16 L93 -16 Q68 -16 68 8 L68 75 Q68 92 67 114 L186 114 ZM138 197 Q180 138 247 120 Q236 110 232 98 Q169 122 128 182 Q93 128 27 91 Q23 99 10 109 Q58 129 85.5 160 Q113 191 118 212 Q131 208 143 205 L138 197 Z" /><glyph glyph-name="uni4ED4" unicode="&#x4ed4;" d="M125 2 Q135 1 144.5 1.5 Q154 2 154 10 L154 87 L113 87 Q99 87 83 86 L83 106 Q98 105 114 105 L154 105 Q154 122 153 136 Q180 158 193 173 L130 173 Q112 173 100 172 L100 191 Q114 190 131 190 L227 190 L227 174 Q201 154 175 128 L175 105 L207 105 Q228 105 240 106 L240 86 Q228 87 208 87 L175 87 L175 4 Q174 -12 161.5 -16 Q149 -20 133 -22 Q131 -11 125 2 ZM93 196 Q86 188 69 150 L69 12 Q69 -10 70 -24 L48 -24 Q50 -10 50 13 L50 115 Q36 92 23 77 Q17 88 10 96 Q25 110 45 147 Q65 184 69 208 Q84 200 93 196 Z" /><glyph glyph-name="uni4ED6" unicode="&#x4ed6;" d="M100 115 Q100 154 99 169 L120 169 Q119 156 119 121 L151 131 L151 172 Q151 192 149 206 L170 206 Q169 192 169 171 L169 138 L223 157 Q222 104 222 83 Q222 62 211 57 Q200 52 183 49 Q181 59 175 70 Q194 70 198 71.5 Q202 73 202 81 L203 131 L169 119 L169 55 Q169 38 170 26 L150 26 Q151 38 151 55 L151 114 L119 103 L119 17 Q119 3 133 4 L204 4 Q212 4 216 8.5 Q220 13 222 37 Q234 28 245 26 Q238 0 230 -7 Q222 -14 207 -13 L129 -13 Q102 -14 100 11 L100 97 Q85 92 76 87 L68 106 Q81 108 100 115 ZM90 197 Q81 185 66 151 L66 19 Q66 -6 68 -23 L47 -23 Q48 -6 48 19 L48 117 Q35 93 28 82 Q21 91 12 96 Q25 110 42.5 145.5 Q60 181 66 207 Q82 200 90 197 Z" /><glyph glyph-name="uni4ED7" unicode="&#x4ed7;" d="M74 -6 Q112 6 137 36 Q117 59 95 120 Q102 121 115 125 Q133 69 148 54 Q159 81 160 135 L118 135 Q95 135 83 134 L83 153 Q95 152 118 152 L160 152 Q160 191 158 203 Q174 202 181 202 Q180 193 180 182 L180 152 L200 152 Q216 152 240 153 L240 134 Q217 135 203 135 L180 135 Q180 80 163 39 Q194 13 241 -1 Q231 -8 226 -21 Q189 -6 151 22 Q133 0 88 -23 Q82 -13 74 -6 ZM9 94 Q34 122 50 157 Q66 192 70 209 Q85 201 93 198 Q84 186 69 150 L69 25 Q69 -2 70 -22 L48 -22 Q49 -2 49 24 L49 116 Q32 89 23 79 Q14 90 9 94 Z" /><glyph glyph-name="uni4ED8" unicode="&#x4ed8;" d="M89 146 Q106 145 123 145 L183 145 L183 175 Q183 188 182 200 L205 200 Q203 187 203 173 L203 145 L215 145 Q232 145 242 146 L242 127 Q233 128 215 128 L203 128 L203 8 Q204 -10 191 -16.5 Q178 -23 158 -24 Q155 -11 149 -1 Q173 -2 178 1 Q183 4 183 14 L183 128 L122 128 Q106 128 89 127 L89 146 ZM94 198 Q91 194 84.5 180.5 Q78 167 72 154 L72 25 Q72 -5 73 -23 L52 -23 Q53 -7 53 24 L53 119 Q37 93 25 81 Q18 91 12 95 Q28 111 45 142 Q62 173 72 209 Q85 201 94 198 ZM128 107 Q144 78 152 59 Q143 55 132 49 Q124 73 111 96 Q119 100 128 107 Z" /><glyph glyph-name="uni4ED9" unicode="&#x4ed9;" d="M116 148 Q115 134 115 119 L115 14 L152 16 L152 164 Q152 186 151 208 L173 208 Q172 187 172 164 L172 18 L210 20 L210 114 Q210 131 209 147 L231 147 Q230 131 230 114 L230 21 Q230 3 231 -16 L210 -16 L210 3 L95 -5 Q96 11 96 27 L96 119 Q96 134 95 148 L116 148 ZM90 199 Q82 187 77 175.5 Q72 164 69 156 L69 21 Q69 -7 70 -22 L49 -22 Q50 -2 50 21 L50 112 Q36 87 30 78 Q24 87 15 94 Q28 109 45 146.5 Q62 184 69 209 Q80 203 90 199 Z" /><glyph glyph-name="uni4EE3" unicode="&#x4ee3;" d="M132 118 Q127 183 126 204 Q132 203 149 201 Q147 189 152 122 Q200 131 226 139 L231 120 Q220 119 154 105 Q166 42 189.5 18 Q213 -6 216.5 5 Q220 16 221 29 Q232 22 243 20 Q236 -8 229.5 -17 Q223 -26 205.5 -20 Q188 -14 167.5 12 Q147 38 134 101 Q96 93 87 90 L81 109 Q97 111 132 118 ZM90 199 Q84 189 68 146 L68 19 Q68 -2 69 -24 L48 -24 Q49 -2 49 19 L49 110 Q34 86 24 74 Q18 82 9 89 Q25 104 42 137 Q59 170 67 208 Q82 201 90 199 ZM188 195 Q206 173 213 162 Q204 156 195 149 Q186 166 172 183 Q180 188 188 195 Z" /><glyph glyph-name="uni4EE4" unicode="&#x4ee4;" d="M215 83 L215 62 Q197 53 178 37.5 Q159 22 143 5 L170 -13 Q162 -22 155 -31 Q124 -5 74 17 L86 35 Q96 31 125 14 Q152 41 178 65 L81 65 Q60 65 39 64 L39 84 Q61 83 81 83 L215 83 ZM135 194 Q178 142 248 116 Q238 105 232 94 Q166 126 124 179 Q83 125 25 89 Q16 101 8 108 Q35 119 67 147 Q99 175 118 212 Q131 207 142 202 Q139 200 135 194 ZM117 144 Q127 134 150 109 L132 93 Q122 108 102 129 Q110 135 117 144 Z" /><glyph glyph-name="uni4EE5" unicode="&#x4ee5;" d="M216 191 Q211 178 206.5 131 Q202 84 187 54 Q228 14 243 -6 Q234 -12 225 -20 Q207 6 175 36 Q136 -7 88 -28 Q78 -13 72 -8 Q115 5 145 34 Q175 63 182 112.5 Q189 162 188 197 Q205 193 216 191 ZM106 86 Q113 75 121 67 Q88 42 41 -7 Q32 3 26 8 Q34 18 34 30 L34 141 Q34 156 33 174 L56 174 Q55 167 55 151 L55 35 Q84 61 106 86 ZM98 201 Q109 189 121 174.5 Q133 160 148 139 Q139 133 130 125 Q117 148 82 188 Q90 193 98 201 Z" /><glyph glyph-name="uni4EEA" unicode="&#x4eea;" d="M115 172 Q127 101 157 63 Q179 105 194 183 Q203 180 217 177 Q211 159 198 116.5 Q185 74 169 48 Q210 11 247 4 Q236 -7 230 -20 Q186 3 156 33 Q124 1 83 -20 Q79 -10 69 -1 Q111 13 142 47 Q104 100 95 169 Q104 170 115 172 ZM86 200 Q78 194 62 151 L62 18 Q62 -10 64 -27 L42 -27 Q43 -9 43 18 L43 119 Q37 107 23 87 Q18 96 9 103 Q25 120 39.5 150.5 Q54 181 62 211 Q69 206 86 200 ZM155 209 Q160 194 163.5 179.5 Q167 165 170 152 L148 146 Q144 165 141 177.5 Q138 190 134 202 Q144 205 155 209 Z" /><glyph glyph-name="uni4EEC" unicode="&#x4eec;" d="M88 202 Q81 192 65 157 L65 21 Q65 -7 66 -27 L44 -27 Q45 -6 45 21 L45 119 Q41 110 26 87 Q18 95 9 99 Q22 113 40.5 147.5 Q59 182 64 210 Q80 204 88 202 ZM232 177 Q231 158 231 136 L231 0 Q232 -16 219.5 -20 Q207 -24 190 -26 Q187 -14 181 -2 Q199 -3 205.5 -1.5 Q212 0 212 9 L212 159 L194 159 Q177 159 164 157 L164 178 Q178 177 194 177 L232 177 ZM117 151 Q116 143 116 121 L116 -26 L95 -26 Q96 -13 96 16 L96 116 Q96 139 95 151 L117 151 ZM118 205 Q128 194 134.5 185 Q141 176 148 166 Q138 160 130 153 Q124 166 103 192 Q111 198 118 205 Z" /><glyph glyph-name="uni4EF0" unicode="&#x4ef0;" d="M235 191 Q234 172 234 154 L234 38 Q234 22 226.5 17.5 Q219 13 197 10 Q196 20 188 31 Q203 30 209 32 Q215 34 215 40 L215 175 L179 175 L179 15 Q179 -4 180 -22 L159 -22 Q160 -4 160 15 L160 156 Q160 173 158 191 L235 191 ZM84 200 Q77 194 64 162 L64 26 Q64 -2 65 -24 L44 -24 Q45 0 45 26 L45 125 Q39 111 26 88 Q20 95 11 102 Q24 120 38.5 149.5 Q53 179 63 211 Q75 202 84 200 ZM141 202 Q147 188 152 182 Q141 180 115 172 L115 40 Q126 48 146 71 Q147 55 151 49 Q138 38 122.5 23.5 Q107 9 102 2 Q96 13 90 19 Q94 25 95 35 L95 150 Q95 173 94 186 Q126 192 141 202 Z" /><glyph glyph-name="uni4EF2" unicode="&#x4ef2;" d="M159 158 Q159 190 158 206 L178 206 L178 158 L237 158 Q236 144 236 129 L236 62 Q236 51 237 40 L218 40 L218 57 L178 57 L178 17 Q178 -2 179 -22 L158 -22 Q159 -2 159 17 L159 57 L120 57 L120 35 L101 35 Q102 44 102 60 L102 127 Q102 143 101 158 L159 158 ZM14 98 Q38 126 54.5 160 Q71 194 74 207 Q84 200 95 196 Q89 187 71 151 L71 30 Q71 -4 72 -23 L52 -23 Q53 -6 53 25 L53 121 Q37 96 26 82 Q22 91 14 98 ZM218 73 L218 142 L178 142 L178 73 L218 73 ZM159 73 L159 142 L120 142 L120 73 L159 73 Z" /><glyph glyph-name="uni4EF6" unicode="&#x4ef6;" d="M131 179 Q126 175 117 151 L156 151 L156 171 Q156 196 155 205 L176 205 Q175 197 175 172 L175 151 L205 151 Q218 151 229 152 L229 133 Q218 134 205 134 L175 134 L175 80 L208 80 Q223 80 244 81 L244 62 Q227 63 207 63 L175 63 L175 11 Q175 -4 176 -22 L155 -22 Q156 -4 156 11 L156 63 L117 63 Q100 63 77 62 L77 81 Q99 80 113 80 L156 80 L156 134 L111 134 Q108 126 94 97 Q91 100 76 106 Q86 121 94 140 Q102 159 108 188 Q116 183 131 179 ZM46 128 Q36 113 22 95 Q17 105 8 110 Q26 128 41 154 Q56 180 66 210 Q78 202 87 199 Q80 193 65 161 L65 25 Q65 -7 66 -23 L45 -23 Q46 -9 46 24 L46 128 Z" /><glyph glyph-name="uni4EF7" unicode="&#x4ef7;" d="M88 199 Q82 189 66 151 L66 18 Q66 -9 67 -26 L47 -26 Q47 -9 48 18 L48 119 Q36 97 26 84 Q21 91 9 98 Q30 121 45 152 Q60 183 65 207 Q78 201 88 199 ZM167 188 Q194 141 246 118 Q237 110 231 100 Q189 124 158 172 Q132 125 90 94 Q85 101 76 109 Q113 133 130 162 Q147 191 150 206 Q166 198 173 196 L167 188 ZM139 106 Q136 83 133 43.5 Q130 4 93 -27 Q87 -18 77 -12 Q114 14 116.5 50.5 Q119 87 118 108 Q131 106 139 106 ZM203 108 Q202 86 202 69 L202 6 Q202 -9 203 -26 L182 -26 Q183 -9 183 7 L183 75 Q183 86 182 108 L203 108 Z" /><glyph glyph-name="uni4EFB" unicode="&#x4efb;" d="M215 195 Q222 180 226 175 Q189 168 172 165 L172 102 L213 102 Q228 102 242 103 L242 84 Q228 85 214 85 L172 85 L172 11 L203 11 Q217 11 233 12 L233 -7 Q217 -6 203 -6 L124 -6 Q108 -6 91 -7 L91 12 Q108 11 124 11 L152 11 L152 85 L108 85 Q91 85 79 84 L79 103 Q92 102 108 102 L152 102 L152 162 Q113 157 101 156 Q98 167 92 174 Q113 174 153.5 180.5 Q194 187 215 195 ZM92 200 Q83 189 66 154 L66 27 Q66 1 67 -25 L45 -25 Q46 1 46 26 L46 123 Q34 105 23 92 Q18 100 9 107 Q25 121 43 152.5 Q61 184 69 210 Q81 204 92 200 Z" /><glyph glyph-name="uni4EFD" unicode="&#x4efd;" d="M190 204 Q195 175 210 146 Q225 117 248 98 Q241 95 231 83 Q224 91 214 103 Q212 91 211 52.5 Q210 14 207.5 1 Q205 -12 194 -16 Q183 -20 163 -22 Q160 -10 155 0 Q176 -1 183 1 Q190 3 191 23.5 Q192 44 193 90 L148 90 Q147 52 137 26 Q127 0 95 -25 Q87 -14 80 -9 Q110 9 119.5 32 Q129 55 129 90 Q120 90 107 89 L107 103 Q99 92 86 78 Q80 86 70 92 Q115 131 129 195 Q138 191 150 187 Q145 176 137 155.5 Q129 135 111 108 Q122 107 136 107 L212 107 Q183 145 171 199 Q183 201 190 204 ZM9 101 Q23 115 41 147.5 Q59 180 66 209 Q79 203 88 199 Q82 190 64 151 L64 25 Q64 3 65 -23 L44 -23 Q45 2 45 25 L45 117 Q31 96 23 87 Q17 94 9 101 Z" /><glyph glyph-name="uni4EFF" unicode="&#x4eff;" d="M79 -10 Q104 10 114.5 43 Q125 76 124 145 L112 145 Q97 144 84 143 L84 162 Q97 161 111 161 L211 161 Q227 161 244 162 L244 144 Q227 145 211 145 L144 145 L143 112 L227 112 Q225 99 224 83 L218 2 Q216 -15 203.5 -19 Q191 -23 173 -25 Q171 -14 165 -3 Q184 -3 191 -1 Q198 1 199 11 L204 95 L142 95 Q139 19 98 -26 Q93 -19 79 -10 ZM49 125 Q38 105 26 90 Q20 97 11 103 Q26 120 43 151.5 Q60 183 67 209 Q80 201 89 198 Q84 193 68 158 L68 24 Q68 1 69 -24 L48 -24 Q49 1 49 23 L49 125 ZM153 210 Q159 201 174 173 Q166 169 155 163 Q149 180 136 200 Q145 204 153 210 Z" /><glyph glyph-name="uni4F01" unicode="&#x4f01;" d="M58 -12 Q52 -12 28 -13 L28 6 Q55 5 54 5 L65 5 L65 69 Q65 81 63 100 L87 100 Q85 81 85 69 L85 5 L124 5 L124 102 Q124 114 123 133 L145 133 Q144 115 144 83 L175 83 Q191 83 210 84 L210 65 Q192 66 176 66 L144 66 L144 5 L206 5 Q209 5 227 6 L227 -13 Q209 -12 205 -12 L58 -12 ZM138 192 Q171 141 246 120 Q236 113 231 98 Q153 131 127 179 Q93 129 23 92 Q16 105 8 112 Q59 132 86.5 161.5 Q114 191 120 209 Q126 205 143 199 L138 192 Z" /><glyph glyph-name="uni4F0A" unicode="&#x4f0a;" d="M226 188 Q225 173 225 133 Q238 133 247 134 L247 115 Q238 116 225 116 L225 81 Q225 69 226 47 L206 47 L206 62 L153 62 Q141 9 109 -24 Q97 -14 87 -13 Q122 11 133 62 Q109 62 96 61 L96 80 Q109 79 136 79 Q138 93 138 116 Q99 116 86 115 L86 134 Q100 133 138 133 L138 171 Q124 171 101 170 L101 189 Q117 188 138 188 L226 188 ZM92 196 Q87 189 81 176 Q75 163 70 152 L70 18 Q70 -4 71 -20 L49 -20 Q50 -5 50 18 L50 118 Q33 91 24 79 Q20 85 10 94 Q22 106 41 138.5 Q60 171 70 207 Q74 203 92 196 ZM206 133 L206 171 L159 171 Q158 151 158 133 L206 133 ZM206 79 L206 116 L158 116 Q158 98 156 79 L206 79 Z" /><glyph glyph-name="uni4F0D" unicode="&#x4f0d;" d="M204 189 Q222 189 234 190 L234 171 Q222 172 204 172 L160 172 L151 115 L216 115 Q212 75 207 6 Q231 6 241 7 L241 -12 Q227 -11 206 -11 L119 -11 Q97 -11 80 -12 L80 7 Q98 6 115 6 L130 97 Q104 97 94 96 L94 116 Q106 115 133 115 L141 172 L129 172 Q112 172 98 171 L98 190 Q111 189 133 189 L204 189 ZM92 201 Q85 195 67 154 L67 24 Q67 -5 68 -22 L47 -22 Q48 -6 48 23 L48 120 Q33 95 24 83 Q16 91 8 96 Q23 113 41 145.5 Q59 178 69 211 Q76 206 92 201 ZM187 6 L195 97 L149 97 L135 6 L187 6 Z" /><glyph glyph-name="uni4F0F" unicode="&#x4f0f;" d="M113 115 Q95 115 82 114 L82 134 Q94 133 112 133 L147 133 Q148 183 146 205 Q158 203 170 202 Q167 181 167 133 L216 133 Q231 133 245 134 L245 114 Q235 115 216 115 L169 115 Q186 26 244 -6 Q236 -11 227 -24 Q174 17 159 83 Q146 23 94 -24 Q87 -14 76 -7 Q136 32 145 115 L113 115 ZM91 201 Q87 195 68 153 L68 26 Q68 -2 69 -24 L48 -24 Q49 -6 49 25 L49 121 Q33 96 21 81 Q17 87 8 98 Q23 111 41.5 144 Q60 177 69 211 Q77 206 91 201 ZM208 198 Q221 178 231 157 Q224 154 211 147 Q199 176 190 188 Q199 191 208 198 Z" /><glyph glyph-name="uni4F10" unicode="&#x4f10;" d="M82 123 Q98 124 134 129 Q131 169 131 207 Q143 205 156 204 Q150 187 153 132 Q221 143 233 147 L236 127 Q227 127 155 115 Q159 76 168 54 Q190 75 204 108 Q215 101 227 95 Q220 89 207.5 71.5 Q195 54 178 35 Q191 16 203.5 9 Q216 2 218.5 11 Q221 20 220 34 Q232 25 245 22 Q240 -3 236 -11.5 Q232 -20 218.5 -19 Q205 -18 189.5 -6 Q174 6 162 23 Q135 4 101 -11 Q93 5 87 10 Q119 15 153 40 Q140 69 135 112 Q125 110 112 108 Q99 106 87 103 L82 123 ZM89 195 Q78 187 66 149 L66 20 Q66 -7 67 -22 L45 -22 Q47 -5 47 20 L47 114 Q34 93 25 80 Q20 88 8 96 Q23 112 38 142.5 Q53 173 61 206 Q80 198 89 195 ZM192 196 Q202 183 215 165 Q207 161 196 153 Q183 177 173 184 Q181 188 192 196 Z" /><glyph glyph-name="uni4F11" unicode="&#x4f11;" d="M145 148 Q145 193 144 208 L165 208 Q164 195 164 148 L201 148 Q225 148 234 149 L234 130 Q225 131 203 131 L171 131 Q203 56 248 26 Q235 22 226 9 Q190 39 164 99 L164 11 Q164 -3 165 -23 L143 -23 Q145 -5 145 11 L145 99 Q124 44 93 7 Q87 16 72 21 Q112 56 136 131 L110 131 Q93 131 81 130 L81 149 Q97 148 111 148 L145 148 ZM82 199 Q75 191 65 161 L65 21 Q65 -6 66 -21 L44 -21 Q46 -3 46 21 L46 126 Q39 111 24 83 Q20 91 9 99 Q22 117 36.5 150.5 Q51 184 55 207 Q65 203 82 199 Z" /><glyph glyph-name="uni4F17" unicode="&#x4f17;" d="M21 111 Q49 120 76 146 Q103 172 111 205 Q119 203 135 200 L130 190 Q163 134 227 118 Q219 111 213 99 Q150 122 121 172 Q94 122 36 94 Q31 104 21 111 ZM180 107 Q178 99 177 91 Q176 83 178 67 Q180 51 202.5 27.5 Q225 4 242 -2 Q231 -10 225 -19 Q191 3 168 42 Q154 6 123 -25 Q116 -17 104 -13 Q129 4 141.5 27.5 Q154 51 155 70 Q156 89 156 110 Q167 108 180 107 ZM97 103 Q93 94 86 59 Q112 44 130 30 Q122 23 116 16 Q107 27 81 42 Q63 6 36 -18 Q30 -10 17 -6 Q51 21 62.5 55 Q74 89 74 108 Q88 106 97 103 Z" /><glyph glyph-name="uni4F18" unicode="&#x4f18;" d="M186 14 Q185 4 193 2 Q201 0 208 0.5 Q215 1 218.5 5 Q222 9 226 32 Q233 25 248 21 Q242 -1 236.5 -8 Q231 -15 219 -16 L188 -16 Q167 -16 167 8 L167 122 L154 122 Q149 24 95 -22 Q88 -13 75 -9 Q127 27 134 122 L116 122 Q94 122 79 121 L79 139 Q94 138 116 138 L135 138 Q135 188 134 206 Q141 204 157 203 Q154 188 154 138 L208 138 Q219 138 237 139 L237 121 Q220 122 209 122 L186 122 L186 14 ZM8 95 Q21 108 40 144.5 Q59 181 64 208 Q74 202 89 197 Q80 188 68 153 L68 24 Q68 -6 69 -21 L48 -21 Q49 -7 49 23 L49 119 Q36 97 22 79 Q17 88 8 95 ZM194 201 Q200 192 206 183.5 Q212 175 218 168 Q210 163 201 155 Q195 167 178 189 Q185 194 194 201 Z" /><glyph glyph-name="uni4F19" unicode="&#x4f19;" d="M174 202 Q172 193 171.5 175 Q171 157 170.5 126 Q170 95 186.5 57.5 Q203 20 243 -9 Q235 -12 226 -26 Q179 11 162 73 Q145 17 100 -24 Q92 -13 84 -9 Q119 17 135.5 56.5 Q152 96 152 140 Q152 185 151 204 Q163 202 174 202 ZM92 191 Q84 181 69 147 L69 18 Q69 -9 70 -22 L49 -22 Q50 -4 50 18 L50 115 Q43 103 24 79 Q20 85 9 92 Q31 115 48.5 149 Q66 183 69 201 Q79 196 92 191 ZM128 155 Q124 146 119.5 125 Q115 104 111 91 Q103 93 91 95 Q104 139 106 160 Q114 158 128 155 ZM231 152 Q226 142 219 122 L209 91 Q199 96 190 98 Q205 137 209 159 Q217 155 231 152 Z" /><glyph glyph-name="uni4F1A" unicode="&#x4f1a;" d="M128 48 Q121 43 73 2 Q139 4 175 6 Q166 16 148 32 Q155 38 162 45 Q176 32 189 19.5 Q202 7 219 -11 Q212 -17 202 -26 Q193 -13 187 -8 Q164 -9 112.5 -12 Q61 -15 46 -19 Q41 -6 38 1 Q54 6 76 26.5 Q98 47 107 60 L78 60 Q51 60 28 59 L28 76 Q52 75 77 75 L177 75 Q202 75 226 76 L226 59 Q202 60 173 60 L113 60 Q121 52 128 48 ZM139 192 Q174 142 245 117 Q236 109 231 99 Q163 130 128 179 Q81 126 25 94 Q15 108 8 111 Q45 124 78.5 154 Q112 184 124 209 Q133 203 145 198 L139 192 ZM146 121 Q168 121 182 122 L182 104 Q167 105 146 105 L103 105 Q84 105 71 104 L71 122 Q84 121 102 121 L146 121 Z" /><glyph glyph-name="uni4F1E" unicode="&#x4f1e;" d="M138 139 Q137 123 137 115 L137 57 L195 57 Q219 57 235 58 L235 39 Q217 40 196 40 L137 40 Q137 -12 138 -26 L116 -26 Q117 0 117 39 L64 39 Q38 39 19 38 L19 57 Q40 56 64 56 L117 56 L117 104 Q117 125 116 139 L138 139 ZM138 196 Q175 149 243 132 Q231 122 229 112 Q167 132 127 182 Q96 135 32 100 Q27 108 15 116 Q93 152 119 211 L145 203 L138 196 ZM74 117 Q94 86 100 73 Q89 69 79 64 Q73 82 56 108 Q66 112 74 117 ZM200 110 Q194 97 177 63 Q164 68 157 70 Q174 95 180 117 Q189 112 200 110 Z" /><glyph glyph-name="uni4F1F" unicode="&#x4f1f;" d="M150 166 Q150 192 149 206 L171 206 Q169 195 169 166 L199 166 Q221 166 237 167 L237 149 Q229 150 206 150 L169 150 L169 124 Q209 124 223 125 L223 107 Q208 108 169 108 L169 76 L240 76 Q238 41 237.5 22.5 Q237 4 225.5 0 Q214 -4 197 -8 Q196 0 188 15 Q215 14 216.5 20.5 Q218 27 218 60 L169 60 L169 14 Q169 -5 170 -21 L149 -21 Q150 -4 150 14 L150 60 L119 60 Q97 60 83 59 L83 77 Q98 76 121 76 L150 76 L150 108 Q113 108 99 107 L99 125 Q112 124 150 124 L150 150 L124 150 Q102 150 90 149 L90 167 Q103 166 123 166 L150 166 ZM9 97 Q30 123 43.5 149 Q57 175 63 203 Q71 197 89 193 Q82 187 69 152 L69 21 Q69 -6 70 -22 L47 -22 Q49 -3 49 21 L49 119 Q38 100 28 84 Q16 94 9 97 Z" /><glyph glyph-name="uni4F20" unicode="&#x4f20;" d="M220 79 Q201 37 188 10 Q199 4 218 -8 Q212 -15 205 -27 Q188 -15 160.5 0.5 Q133 16 122 21 Q127 30 131 38 Q144 32 171 19 Q181 39 190 62 L112 62 Q118 80 125 106 L103 106 Q88 106 77 105 L77 123 Q90 122 104 122 L128 122 Q132 141 134 153 L119 153 Q101 153 90 152 L90 170 Q102 169 118 169 L137 169 Q141 198 141 209 Q154 206 164 205 Q161 200 155 169 L198 169 Q214 169 228 170 L228 152 Q215 153 197 153 L153 153 Q151 142 147 122 L210 122 Q230 122 241 123 L241 105 Q229 106 210 106 L144 106 Q140 90 137 79 L220 79 ZM89 195 Q81 187 66 150 L66 22 Q66 -1 67 -21 L45 -21 Q47 -5 47 21 L47 120 Q32 96 22 82 Q18 90 8 98 Q20 112 37 141 Q54 170 65 207 Q74 202 89 195 Z" /><glyph glyph-name="uni4F24" unicode="&#x4f24;" d="M145 98 Q148 122 148 136 Q161 134 172 133 Q167 118 165 98 L231 98 L224 3 Q223 -13 211 -17.5 Q199 -22 183 -24 Q182 -14 174 -1 Q192 -2 198 -1 Q204 0 205 10 L211 80 L163 80 Q155 17 99 -25 Q96 -20 81 -11 Q134 21 143 80 Q117 80 93 79 L93 99 Q115 98 145 98 ZM87 196 Q80 190 67 156 L67 23 Q67 -2 68 -24 L47 -24 Q48 -2 48 22 L48 118 Q37 99 23 80 Q15 90 8 96 Q25 114 40 147 Q55 180 62 206 L87 196 ZM150 199 Q143 191 128 162 L203 162 Q223 162 239 163 L239 144 L119 144 Q107 123 91 106 Q84 112 71 115 Q89 130 103 155 Q117 180 124 206 Q136 202 150 199 Z" /><glyph glyph-name="uni4F26" unicode="&#x4f26;" d="M142 67 Q185 90 199 105 Q204 97 215 85 Q195 78 142 47 L142 12 Q143 -3 158 -3 L199 -3 Q209 -2 211.5 6 Q214 14 214 26 Q224 19 237 15 Q231 -7 223 -14 Q215 -21 204 -20 L147 -20 Q125 -20 123 3 L123 89 Q123 104 122 119 L144 119 Q142 107 142 91 L142 67 ZM91 197 Q83 190 67 151 L67 22 Q67 -9 68 -28 L48 -28 Q49 -8 49 21 L49 117 Q34 92 23 78 Q19 84 8 96 Q21 106 39.5 140.5 Q58 175 67 208 Q75 202 91 197 ZM162 189 Q202 142 246 126 Q236 119 233 103 Q190 124 154 172 Q128 124 88 92 Q80 103 72 109 Q94 121 115.5 150 Q137 179 146 211 Q162 204 172 202 Q168 199 162 189 Z" /><glyph glyph-name="uni4F2A" unicode="&#x4f2a;" d="M145 144 Q147 162 147 176 Q147 191 146 206 Q162 204 175 203 Q169 193 167.5 178.5 Q166 164 164 144 L233 144 L225 14 Q224 -9 208 -14 Q192 -19 174 -22 Q172 -6 162 4 Q197 2 200.5 6 Q204 10 204 19 L211 127 L162 127 Q151 29 100 -26 Q93 -18 79 -16 Q135 38 142 127 L120 127 Q99 127 85 126 L85 145 Q98 144 120 144 L145 144 ZM9 95 Q21 111 35.5 143.5 Q50 176 57 206 Q66 203 83 198 Q75 191 63 155 L63 25 Q63 8 64 -22 L42 -22 Q43 6 43 24 L43 117 Q39 105 25 83 Q16 92 9 95 ZM168 83 Q174 77 181 68 Q188 59 198 44 Q194 42 181 32 Q172 49 154 70 Q162 77 168 83 ZM106 194 Q120 182 137 164 L123 150 Q115 160 92 180 L106 194 Z" /><glyph glyph-name="uni4F2F" unicode="&#x4f2f;" d="M171 204 Q165 197 161.5 186.5 Q158 176 155 166 L227 166 Q226 154 226 119 L226 21 Q226 -10 227 -20 L207 -20 L207 5 L117 5 L117 -23 L97 -23 Q98 -9 98 17 L98 119 Q98 152 97 166 L136 166 Q142 198 142 209 Q152 207 171 204 ZM86 197 Q78 192 63 151 L63 23 Q63 -9 65 -24 L43 -24 Q44 -9 44 22 L44 116 Q31 94 22 79 Q15 88 8 96 Q20 110 36.5 143 Q53 176 61 209 Q78 200 86 197 ZM207 22 L207 78 L117 78 L117 22 L207 22 ZM207 95 L207 149 L117 149 L117 95 L207 95 Z" /><glyph glyph-name="uni4F30" unicode="&#x4f30;" d="M148 152 L148 175 Q148 188 146 203 L170 203 Q168 188 168 176 L168 152 L205 152 Q224 152 240 153 L240 134 Q226 135 205 135 L168 135 L168 89 L220 89 Q219 61 219 33 Q219 6 220 -18 L200 -18 L200 1 L117 1 L117 -20 L97 -20 Q98 7 98 34 Q98 61 97 89 L148 89 L148 135 L118 135 Q97 135 81 134 L81 153 Q97 152 117 152 L148 152 ZM88 196 Q79 186 65 148 L65 27 Q65 -4 66 -21 L44 -21 Q46 -3 46 26 L46 117 Q32 94 20 79 Q17 86 8 97 Q20 111 37.5 142 Q55 173 63 206 Q71 202 88 196 ZM200 18 L200 72 L117 72 L117 18 L200 18 Z" /><glyph glyph-name="uni4F34" unicode="&#x4f34;" d="M150 115 L150 179 Q150 195 149 203 L170 203 Q169 194 169 178 L169 115 L198 115 Q216 115 232 116 L232 98 Q214 99 196 99 L169 99 L169 60 L208 60 Q229 60 242 61 L242 43 Q231 44 207 44 L169 44 L169 11 Q169 -11 170 -26 L149 -26 Q150 -11 150 12 L150 44 L110 44 Q90 44 76 43 L76 61 Q90 60 112 60 L150 60 L150 99 L120 99 Q99 99 84 98 L84 116 Q101 115 120 115 L150 115 ZM87 196 Q82 190 76.5 178.5 Q71 167 64 151 L64 26 Q64 -5 65 -26 L44 -26 Q45 -4 45 26 L45 116 Q33 96 21 81 Q17 88 8 97 Q22 111 38.5 140.5 Q55 170 65 206 Q74 201 87 196 ZM185 140 Q200 159 214 189 Q221 183 233 177 Q228 171 221 160 Q214 149 201 129 Q192 137 185 140 ZM105 187 Q123 163 134 141 Q128 137 117 130 Q105 157 90 176 Q97 180 105 187 Z" /><glyph glyph-name="uni4F36" unicode="&#x4f36;" d="M89 200 Q80 187 64 154 L64 15 Q64 -9 65 -25 L45 -25 Q46 -5 46 15 L46 124 Q36 110 26 98 Q19 106 11 111 Q26 125 43 153 Q60 181 68 210 Q74 206 89 200 ZM122 40 Q143 25 154 17 Q169 33 196 66 L120 66 Q105 66 89 64 L89 83 Q106 82 120 82 L224 82 L224 66 Q212 57 199.5 43 Q187 29 168 7 Q189 -10 195 -14 Q192 -17 181 -29 Q162 -11 111 25 Q118 33 122 40 ZM165 189 Q197 134 247 109 Q241 104 232 92 Q182 128 155 173 Q133 131 88 91 Q80 100 72 105 Q100 124 120.5 151.5 Q141 179 150 208 Q159 204 171 199 L165 189 ZM149 137 Q166 119 182 100 Q175 95 166 87 Q152 107 135 124 Q145 132 149 137 Z" /><glyph glyph-name="uni4F38" unicode="&#x4f38;" d="M155 168 Q155 183 154 206 L174 206 Q173 183 173 168 L236 168 Q235 144 235 122 L235 73 Q235 54 236 31 L216 31 L216 50 L173 50 Q173 -1 174 -23 L154 -23 Q155 0 155 50 L113 50 L113 28 L93 28 Q94 52 94 73 L94 123 Q94 144 93 168 L155 168 ZM90 197 Q81 188 75.5 176.5 Q70 165 66 154 L66 24 Q66 -7 67 -21 L47 -21 Q48 -5 48 23 L48 122 Q32 96 25 84 Q17 95 8 98 Q22 113 39.5 146 Q57 179 64 206 L90 197 ZM216 116 L216 152 L173 152 L173 116 L216 116 ZM155 116 L155 152 L113 152 L113 116 L155 116 ZM216 66 L216 100 L173 100 L173 66 L216 66 ZM155 66 L155 100 L113 100 L113 66 L155 66 Z" /><glyph glyph-name="uni4F3A" unicode="&#x4f3a;" d="M240 194 Q239 181 239 155 L239 2 Q238 -17 227.5 -20.5 Q217 -24 197 -27 Q196 -18 186 -3 Q203 -3 211 -1.5 Q219 0 219 12 L219 175 L137 175 Q113 175 102 174 L102 195 Q113 194 138 194 L240 194 ZM189 101 Q188 92 188 64 Q188 36 189 23 L170 23 L170 34 L117 34 L117 18 L97 18 Q98 31 98 61 Q98 91 97 101 L189 101 ZM85 201 Q77 192 63 159 L63 20 Q63 -5 64 -24 L42 -24 Q43 -6 43 20 L43 125 Q31 109 23 96 Q17 104 9 112 Q20 123 35.5 151 Q51 179 60 211 Q68 207 85 201 ZM171 145 Q188 145 200 146 L200 126 Q188 127 171 127 L122 127 Q101 127 92 126 L92 146 Q101 145 122 145 L171 145 ZM170 51 L170 84 L117 84 L117 51 L170 51 Z" /><glyph glyph-name="uni4F3C" unicode="&#x4f3c;" d="M211 196 Q208 186 208 135 Q208 85 202 54 Q235 19 248 -1 Q242 -2 230 -14 Q219 5 193 36 Q170 0 131 -28 Q127 -19 114 -14 Q150 7 168 34 Q186 61 188.5 93.5 Q191 126 188 200 Q200 197 211 196 ZM78 199 Q72 187 62 159 L62 24 Q62 -4 63 -23 L42 -23 Q43 0 43 24 L43 116 Q38 104 26 84 Q23 90 11 99 Q25 119 38 150 Q51 181 56 207 Q60 203 78 199 ZM114 167 Q113 152 113 134 L113 48 Q135 70 143 83 Q152 72 157 69 Q118 26 105 12 Q99 20 90 29 Q96 37 95 49 L95 133 Q95 154 94 167 L114 167 ZM140 201 Q161 168 173 143 Q168 140 155 133 Q146 155 124 192 Q131 194 140 201 Z" /><glyph glyph-name="uni4F43" unicode="&#x4f43;" d="M237 188 Q236 173 236 160 L236 20 Q236 -3 237 -16 L217 -16 L217 3 L110 3 L110 -19 L91 -19 Q92 -3 92 17 L92 152 Q92 164 91 188 L237 188 ZM41 -26 Q42 -13 42 20 L42 118 Q38 106 26 83 Q19 92 8 101 Q29 132 39 162 Q49 192 51 212 Q64 204 77 201 Q71 195 61 156 L61 20 Q61 -2 62 -26 L41 -26 ZM217 19 L217 90 L173 90 L173 19 L217 19 ZM154 19 L154 90 L110 90 L110 19 L154 19 ZM154 105 L154 172 L110 172 L110 105 L154 105 ZM217 105 L217 172 L173 172 L173 105 L217 105 Z" /><glyph glyph-name="uni4F46" unicode="&#x4f46;" d="M103 147 Q103 162 102 186 L225 186 Q224 170 224 149 L224 73 Q224 57 225 42 L102 42 Q103 56 103 69 L103 147 ZM23 89 Q14 101 8 107 Q29 134 41.5 163 Q54 192 57 211 Q72 205 83 202 Q75 194 64 157 L64 24 Q64 -7 65 -24 L43 -24 Q44 -8 44 23 L44 125 Q28 97 23 89 ZM203 58 L203 107 L123 107 L123 58 L203 58 ZM203 123 L203 170 L123 170 L123 123 L203 123 ZM208 7 Q217 7 245 8 L245 -12 Q215 -11 206 -11 L116 -11 Q104 -11 78 -12 L78 8 Q107 7 115 7 L208 7 Z" /><glyph glyph-name="uni4F4D" unicode="&#x4f4d;" d="M85 197 Q78 190 65 150 L65 23 Q65 -9 66 -26 L44 -26 Q46 -8 46 22 L46 118 Q31 91 22 78 Q15 91 8 97 Q21 111 36.5 143 Q52 175 60 208 Q73 200 85 197 ZM215 121 Q211 115 204 90 Q197 65 184 12 L218 12 Q237 12 244 13 L244 -7 Q235 -6 218 -6 L116 -6 Q91 -6 82 -7 L82 13 Q91 12 114 12 L163 12 Q176 56 188 127 Q204 123 215 121 ZM210 161 Q228 161 237 162 L237 143 Q228 144 209 144 L120 144 Q106 144 91 143 L91 162 Q107 161 120 161 L210 161 ZM122 122 Q140 71 150 29 Q138 25 130 22 Q125 45 118.5 67 Q112 89 102 115 Q112 117 122 122 ZM155 208 Q167 187 176 172 Q168 170 155 163 Q148 181 136 198 Q146 202 155 208 Z" /><glyph glyph-name="uni4F4E" unicode="&#x4f4e;" d="M92 182 Q110 181 150 185.5 Q190 190 211 200 Q217 189 224 179 Q205 176 174 172 Q174 153 176 114 L200 114 Q217 114 234 115 L234 97 Q217 98 201 98 L178 98 Q183 53 194.5 30.5 Q206 8 213 3 Q220 -2 222.5 5 Q225 12 227 31 Q237 23 246 21 Q240 -4 234 -13.5 Q228 -23 214 -20 Q200 -17 183.5 10.5 Q167 38 160 98 L111 98 L111 20 Q131 38 143 51 Q147 39 151 32 Q111 -2 100 -14 Q93 -7 87 1 Q92 6 93 20 L93 149 Q93 163 92 182 ZM82 203 Q76 196 64 158 L64 17 Q64 -3 65 -25 L44 -25 Q45 -3 45 18 L45 121 Q35 100 25 85 Q16 94 9 97 Q24 116 38.5 147.5 Q53 179 60 211 Q63 208 82 203 ZM158 114 Q156 151 156 169 Q125 167 111 166 L111 114 L158 114 ZM154 -25 Q138 -3 130 4 Q138 11 143 17 Q157 2 169 -12 Q161 -18 154 -25 Z" /><glyph glyph-name="uni4F4F" unicode="&#x4f4f;" d="M187 164 Q208 164 235 165 L235 145 Q209 146 187 146 L168 146 L168 92 L183 92 Q196 92 221 93 L221 73 Q201 74 183 74 L168 74 L168 3 L190 3 Q216 3 243 4 L243 -16 Q216 -15 190 -15 L121 -15 Q96 -15 84 -16 L84 4 Q101 3 122 3 L147 3 L147 74 L137 74 Q115 74 96 73 L96 93 Q115 92 137 92 L147 92 L147 146 L132 146 Q109 146 86 145 L86 165 Q109 164 132 164 L187 164 ZM89 200 Q82 190 67 156 L67 22 Q67 -11 68 -26 L46 -26 Q47 -11 47 21 L47 124 Q29 95 22 87 Q15 97 8 106 Q30 128 45.5 163 Q61 198 62 211 Q72 206 89 200 ZM151 170 Q146 180 135 199 Q145 204 155 210 Q158 205 162.5 197 Q167 189 171 180 Q162 175 151 170 Z" /><glyph glyph-name="uni4F51" unicode="&#x4f51;" d="M172 203 Q168 196 165.5 184 Q163 172 159 162 L213 162 Q232 162 243 163 L243 143 Q231 144 214 144 L154 144 Q145 119 132 96 L231 96 Q230 75 229 56 L229 12 Q229 -9 230 -19 L209 -19 L209 -3 L139 -3 L139 -23 L119 -23 Q120 -11 120 13 L120 79 Q105 58 88 44 Q82 53 71 59 Q119 96 133 144 L124 144 Q101 144 85 143 L85 163 Q101 162 124 162 L139 162 Q147 194 147 208 L172 203 ZM8 95 Q20 109 37.5 139.5 Q55 170 65 209 Q78 203 89 199 Q80 188 67 153 L67 22 Q67 -5 68 -23 L48 -23 L48 119 Q33 91 21 77 Q16 87 8 95 ZM209 14 L209 79 L139 79 L139 14 L209 14 Z" /><glyph glyph-name="uni4F53" unicode="&#x4f53;" d="M146 154 Q146 190 145 205 L165 205 Q164 191 164 154 L208 154 Q228 154 237 155 L237 137 Q228 138 208 138 L181 138 Q197 74 248 48 Q237 42 231 31 Q177 72 164 137 L164 41 Q193 41 202 42 L202 24 Q193 25 164 25 Q164 3 165 -23 L145 -23 Q146 4 146 25 Q128 25 108 24 L108 42 Q128 41 146 41 L146 138 Q135 72 80 26 Q74 35 62 41 Q114 75 128 138 L107 138 Q91 138 79 137 L79 155 Q91 154 107 154 L146 154 ZM80 196 Q73 187 61 151 L61 23 Q61 -8 62 -22 L42 -22 Q43 -9 43 22 L43 116 Q38 105 23 82 Q18 91 9 97 Q21 109 37 144.5 Q53 180 57 205 Q68 200 80 196 Z" /><glyph glyph-name="uni4F55" unicode="&#x4f55;" d="M164 137 Q163 120 163 84 Q163 48 164 35 L145 35 L145 45 L110 45 L110 28 L91 28 Q92 54 92 87 Q92 120 91 137 L164 137 ZM219 188 Q237 188 244 189 L244 169 Q235 171 215 171 L215 6 Q215 -11 205.5 -16 Q196 -21 175 -24 Q173 -12 166 1 Q184 0 190.5 2 Q197 4 197 14 L197 171 L124 171 Q100 171 84 169 L84 189 Q96 188 121 188 L219 188 ZM39 -21 Q41 0 41 30 L41 129 Q34 113 21 94 Q15 102 7 108 Q20 124 34.5 152.5 Q49 181 56 211 Q64 206 80 199 Q73 193 59 161 L59 28 Q59 1 60 -21 L39 -21 ZM145 62 L145 120 L110 120 L110 62 L145 62 Z" /><glyph glyph-name="uni4F59" unicode="&#x4f59;" d="M154 122 Q166 122 181 123 L181 104 Q169 105 154 105 L138 105 L138 73 L179 73 Q202 73 215 74 L215 54 Q201 55 180 55 L138 55 L138 -3 Q138 -18 127.5 -21 Q117 -24 102 -26 Q101 -17 94 -2 Q113 -3 115.5 -1 Q118 1 118 7 L118 55 L72 55 Q49 55 36 54 L36 74 Q48 73 72 73 L118 73 L118 105 L102 105 Q93 105 73 104 L73 123 Q89 122 101 122 L154 122 ZM136 194 Q178 143 246 132 Q237 126 230 108 Q166 130 124 182 Q95 134 32 96 Q18 109 13 112 Q59 133 84.5 164 Q110 195 116 211 Q126 207 142 202 L136 194 ZM93 28 Q83 20 65 4.5 Q47 -11 37 -18 Q29 -9 21 -2 Q64 27 76 43 Q84 35 93 28 ZM176 47 Q190 34 201 22 L224 0 Q215 -7 205 -16 Q195 1 162 34 Q168 38 176 47 Z" /><glyph glyph-name="uni4F5B" unicode="&#x4f5b;" d="M202 0 Q199 14 192 24 Q214 22 215.5 31 Q217 40 217 59 L186 59 L186 12 Q186 -8 187 -21 L166 -21 Q167 -8 167 12 L167 59 L144 59 Q138 2 91 -24 Q83 -13 74 -8 Q119 10 125 59 L85 59 Q88 90 88 122 L129 122 L129 150 Q101 150 88 149 L88 169 Q99 168 129 168 Q129 189 128 203 Q142 201 150 201 Q147 192 147 168 L167 168 Q167 191 166 202 L188 202 Q186 192 186 168 L230 168 Q228 154 228 135 Q228 116 229 106 L186 106 L186 76 L236 76 Q236 66 235.5 39.5 Q235 13 225.5 7.5 Q216 2 202 0 ZM45 -23 Q46 3 46 23 L46 120 Q35 100 27 88 Q21 95 11 101 Q24 114 39.5 144 Q55 174 64 205 Q75 199 88 194 Q83 190 78.5 180 Q74 170 64 147 L64 24 Q64 3 65 -23 L45 -23 ZM211 122 L211 150 L186 150 L186 122 L211 122 ZM128 76 Q129 91 129 106 L106 106 L105 76 L128 76 ZM167 76 L167 106 L147 106 Q147 87 146 76 L167 76 ZM167 122 L167 150 L147 150 L147 122 L167 122 Z" /><glyph glyph-name="uni4F5C" unicode="&#x4f5c;" d="M163 202 Q153 194 141 164 L207 164 Q229 164 242 165 L242 147 Q229 148 207 148 L161 148 L161 109 L202 109 Q219 109 230 110 L230 91 Q217 92 202 92 L161 92 L161 47 L204 47 Q224 47 237 48 L237 29 Q224 30 205 30 L161 30 L161 11 Q161 -17 162 -27 L141 -27 Q142 -16 142 3 L142 148 L132 148 Q117 122 103 103 Q92 113 84 116 Q98 130 113 156 Q128 182 137 212 Q152 205 163 202 ZM93 198 Q84 191 70 155 L70 27 Q70 -5 71 -24 L48 -24 Q49 -6 49 26 L49 120 Q35 97 22 81 Q14 93 8 98 Q21 112 39.5 144.5 Q58 177 67 211 Q78 204 93 198 Z" /><glyph glyph-name="uni4F60" unicode="&#x4f60;" d="M45 125 Q34 109 27 97 Q21 104 10 111 Q29 131 43.5 156.5 Q58 182 65 210 Q72 205 88 200 Q82 192 64 157 L64 27 Q64 -4 65 -23 L44 -23 Q45 -7 45 28 L45 125 ZM77 111 Q100 138 112.5 168 Q125 198 125 207 Q137 202 151 199 Q145 194 133 168 L238 168 Q235 159 229 143.5 Q223 128 218 114 Q208 117 198 119 Q205 134 211 151 L126 151 Q114 125 98 103 Q90 108 77 111 ZM119 -2 Q139 -2 145 0.5 Q151 3 151 11 L151 95 Q151 119 150 130 L171 130 Q170 119 170 95 L170 0 Q170 -13 159 -17.5 Q148 -22 129 -25 Q127 -15 119 -2 ZM202 93 Q226 60 244 31 Q238 27 225 19 Q208 51 186 83 Q196 89 202 93 ZM77 30 Q102 56 119 91 Q131 85 138 81 Q132 71 120 53 Q108 35 93 17 Q85 24 77 30 Z" /><glyph glyph-name="uni4F63" unicode="&#x4f63;" d="M79 -15 Q98 10 101 56 L101 151 Q101 171 100 193 L232 193 Q231 178 231 155 L231 6 Q231 -12 221.5 -16.5 Q212 -21 197 -23 Q192 -7 189 -1 Q205 -1 208.5 0.5 Q212 2 212 10 L212 60 L173 60 L173 35 Q173 12 174 -9 L153 -9 Q154 11 154 34 L154 60 L120 60 Q118 11 98 -25 Q91 -18 79 -15 ZM11 110 Q25 125 39.5 151 Q54 177 63 210 Q73 204 84 201 Q78 194 69 169 L69 25 Q69 7 70 -22 L50 -22 Q51 7 51 25 L51 135 Q37 111 26 96 Q21 104 11 110 ZM212 134 L212 176 L173 176 L173 134 L212 134 ZM212 76 L212 118 L173 118 L173 76 L212 76 ZM154 76 L154 118 L120 118 L120 76 L154 76 ZM154 134 L154 176 L120 176 L120 134 L154 134 Z" /><glyph glyph-name="uni4F69" unicode="&#x4f69;" d="M60 -11 Q72 8 77 35.5 Q82 63 82 115 Q82 168 81 202 L217 202 Q216 168 216 114 Q216 61 220.5 28.5 Q225 -4 231 44 Q238 36 248 32 Q242 10 236.5 -1.5 Q231 -13 225 -13.5 Q219 -14 212 -2 Q205 10 202 39 Q199 68 199 186 L98 186 Q99 99 97 58 Q95 17 78 -19 Q73 -13 60 -11 ZM110 163 Q121 162 135 162 L160 162 Q180 162 186 163 L186 146 Q178 147 156 147 L156 119 L188 119 Q187 107 187 89 L187 34 Q187 23 182.5 19.5 Q178 16 167 13 Q164 22 157 30 Q169 31 171 35 L171 104 L156 104 L156 20 Q156 -1 157 -14 L139 -14 Q140 -1 140 20 L140 104 L125 104 L125 15 L108 15 Q109 30 109 67 Q109 104 108 119 L140 119 L140 147 Q123 147 110 146 L110 163 ZM73 199 Q70 194 53 151 L53 21 Q53 -6 54 -23 L35 -23 Q37 -6 37 20 L37 122 Q30 109 22 95 Q16 102 9 107 Q17 117 32.5 149 Q48 181 53 208 Q63 203 73 199 Z" /><glyph glyph-name="uni4F73" unicode="&#x4f73;" d="M150 170 Q150 193 149 202 L171 202 Q170 194 170 170 L187 170 Q211 170 228 171 L228 151 Q210 153 189 153 L170 153 L170 117 L200 117 Q222 117 238 119 L238 100 Q223 101 200 101 L123 101 Q100 101 85 100 L85 119 Q98 118 123 117 L150 117 L150 153 L128 153 Q106 153 93 151 L93 171 Q106 170 127 170 L150 170 ZM151 61 Q151 71 150 93 L172 93 Q171 75 171 61 L190 61 Q212 61 228 62 L228 44 Q211 45 191 45 L171 45 L171 5 L200 5 Q228 5 242 6 L242 -12 Q221 -11 202 -11 L118 -11 Q96 -11 82 -12 L82 6 Q92 5 117 5 L151 5 L151 45 L132 45 Q112 45 95 43 L95 62 Q113 61 132 61 L151 61 ZM89 198 Q82 191 68 158 L68 25 Q68 -6 70 -22 L47 -22 Q49 -5 49 24 L49 126 Q40 108 23 87 Q16 95 8 102 Q22 116 42 153.5 Q62 191 64 208 Q77 202 89 198 Z" /><glyph glyph-name="uni4F7F" unicode="&#x4f7f;" d="M148 175 Q148 197 147 210 Q160 208 170 207 Q167 197 167 175 L199 175 Q221 175 239 176 L239 158 Q220 159 199 159 L167 159 L167 137 L228 137 Q227 123 227 107 Q227 92 228 76 L166 76 Q164 44 155 24 Q183 -1 244 -2 Q237 -7 233 -21 Q180 -19 143 9 Q120 -15 87 -27 Q86 -20 73 -12 Q111 -1 129 20 Q112 37 93 60 Q99 63 107 71 Q123 49 140 36 Q146 53 147 76 L88 76 Q89 92 89 108 Q89 124 88 137 L148 137 L148 159 L115 159 Q94 159 79 158 L79 176 Q93 175 114 175 L148 175 ZM77 199 Q72 193 61 162 L61 24 Q61 2 62 -23 L42 -23 Q43 1 43 22 L43 128 Q29 99 24 90 Q19 99 9 105 Q20 120 35.5 152.5 Q51 185 54 208 L77 199 ZM208 92 L208 122 L167 122 L167 92 L208 92 ZM148 92 L148 122 L108 122 L108 92 L148 92 Z" /><glyph glyph-name="uni4F84" unicode="&#x4f84;" d="M222 91 Q215 100 209 105 Q201 104 170 101 Q169 94 169 78 L169 64 L189 64 Q213 64 227 65 L227 47 Q212 48 193 48 L169 48 L169 6 L213 6 Q226 6 243 7 L243 -12 Q230 -11 211 -11 L118 -11 Q91 -11 79 -12 L79 7 Q90 6 117 6 L150 6 L150 48 L133 48 Q112 48 96 47 L96 65 Q111 64 132 64 L150 64 L150 79 Q150 88 148 99 Q114 95 100 90 Q96 104 90 113 Q109 125 120.5 140 Q132 155 140 173 L131 173 Q107 173 94 172 L94 190 Q108 189 131 189 L197 189 Q217 189 232 190 L232 172 Q217 173 197 173 L146 173 Q154 167 163 160 Q153 153 119 112 Q151 115 199 120 Q196 124 181 141 Q188 145 197 152 Q210 138 219.5 126 Q229 114 239 104 Q231 98 222 91 ZM89 202 Q81 193 65 153 L65 27 Q65 -9 66 -25 L44 -25 Q45 -8 45 28 L45 122 Q32 98 24 87 Q16 97 8 106 Q20 117 36.5 147 Q53 177 62 211 Q71 207 89 202 Z" /><glyph glyph-name="uni4F88" unicode="&#x4f88;" d="M160 201 Q154 196 144 180 L229 180 Q211 146 194.5 130.5 Q178 115 163 106 Q169 103 183 99 Q173 90 170 86 L244 86 Q225 35 191 9.5 Q157 -16 93 -25 Q91 -17 82 -4 Q128 -3 160 14 Q148 28 136 38 Q144 42 151 50 Q161 41 178 25 Q198 38 214 68 L156 68 Q140 51 113 32 Q107 40 97 46 Q135 67 159 104 Q136 90 93 76 Q90 85 80 96 Q118 102 145 117 Q140 125 126 140 Q135 145 142 151 Q150 141 162 127 Q185 143 197 164 L135 164 Q124 148 105 129 Q98 136 89 142 Q105 154 118 173 Q131 192 137 210 Q146 205 160 201 ZM90 202 Q82 193 67 155 L67 30 Q67 -6 68 -23 L47 -23 Q48 -5 48 31 L48 128 Q38 112 25 94 Q14 103 8 106 Q33 135 47 165.5 Q61 196 64 211 Q75 207 90 202 Z" /><glyph glyph-name="uni4F8B" unicode="&#x4f8b;" d="M138 189 Q153 189 164 190 L164 172 Q153 173 140 173 L126 173 Q125 161 121 134 L162 134 Q160 82 144.5 42 Q129 2 92 -24 Q88 -16 76 -6 Q110 10 128 53 Q119 61 102 72 Q108 80 113 87 Q128 75 134 71 Q140 90 143 118 L117 118 Q112 97 89 63 Q81 71 71 77 Q85 91 95 113.5 Q105 136 107 173 Q92 173 86 172 L86 190 Q96 189 112 189 L138 189 ZM82 199 Q75 191 62 154 L62 19 Q62 -1 63 -24 L43 -24 Q44 -3 44 17 L44 120 Q38 108 26 90 Q22 95 8 105 Q21 117 37.5 150.5 Q54 184 58 208 Q66 203 82 199 ZM238 203 Q236 191 236 172 L236 10 Q236 -11 228 -16 Q220 -21 194 -23 Q193 -12 186 2 Q207 0 212 1 Q217 2 218 12 L218 171 Q218 190 216 203 L238 203 ZM197 169 Q195 155 195 130 L195 72 Q195 48 196 37 L175 37 Q177 48 177 71 L177 131 Q176 154 175 169 L197 169 Z" /><glyph glyph-name="uni4F8D" unicode="&#x4f8d;" d="M151 123 L151 156 L135 156 Q113 156 98 155 L98 174 Q113 173 135 173 L151 173 Q151 197 149 206 L173 206 Q170 196 170 188 L170 173 L194 173 Q214 173 224 174 L224 155 Q215 156 194 156 L170 156 L170 123 L214 123 Q233 123 246 124 L246 105 Q231 106 216 106 L205 106 L205 79 L214 79 Q231 79 242 80 L242 61 Q229 62 214 62 L205 62 L205 -3 Q205 -14 195 -18 Q185 -22 163 -24 Q160 -13 154 -2 Q171 -2 177.5 -1.5 Q184 -1 185 9 L185 62 L122 62 Q103 62 88 61 L88 80 Q101 79 122 79 L185 79 L185 106 L118 106 Q97 106 82 105 L82 124 Q95 123 117 123 L151 123 ZM85 198 Q77 189 64 157 L64 28 Q64 -3 65 -22 L43 -22 Q44 -4 44 27 L44 124 Q36 112 23 93 Q17 102 8 108 Q18 118 34.5 146 Q51 174 61 209 Q69 205 85 198 ZM127 54 Q132 45 135.5 38 Q139 31 145 20 Q135 16 126 12 Q122 24 110 46 Q117 49 127 54 Z" /><glyph glyph-name="uni4F9B" unicode="&#x4f9b;" d="M233 128 Q226 129 208 129 L195 129 L195 72 L217 72 Q227 72 240 73 L240 52 Q226 53 213 53 L111 53 Q92 53 80 52 L80 73 Q92 72 110 72 L120 72 L120 129 L113 129 Q97 129 87 128 L87 147 Q98 146 113 146 L120 146 L120 173 Q120 192 119 201 L139 201 Q138 194 138 171 L138 146 L175 146 L175 175 Q175 186 174 200 L197 200 Q195 187 195 174 L195 146 L210 146 Q222 146 233 147 L233 128 ZM44 -23 Q45 -5 45 12 L45 118 Q38 105 27 88 Q21 94 9 101 Q21 113 37 141 Q53 169 62 209 Q75 202 87 198 Q80 192 65 151 L65 14 Q65 -6 66 -23 L44 -23 ZM175 72 L175 129 L138 129 L138 72 L175 72 ZM142 31 Q131 19 119 4.5 Q107 -10 93 -25 Q83 -15 73 -11 Q100 9 123 44 Q133 37 142 31 ZM194 44 Q203 36 216 21 Q229 6 239 -8 Q229 -14 220 -22 Q205 2 177 31 Q185 37 194 44 Z" /><glyph glyph-name="uni4F9D" unicode="&#x4f9d;" d="M161 208 Q164 201 167 190 Q170 179 173 169 L212 169 Q223 169 239 170 L239 151 Q224 152 213 152 L162 152 Q155 125 142 101 L142 7 Q159 21 168 31 Q171 21 176 10 Q144 -14 130 -27 Q125 -19 115 -9 Q122 -4 123 10 L123 71 Q104 47 88 31 Q81 39 71 46 Q126 90 141 152 L112 152 Q98 152 83 151 L83 170 Q98 169 111 169 L151 169 Q150 176 141 201 Q147 204 161 208 ZM87 199 Q79 192 67 157 L67 25 Q67 -7 68 -23 L47 -23 Q48 -8 48 24 L48 120 Q38 101 23 80 Q17 89 9 95 Q22 111 37.5 140.5 Q53 170 66 209 Q72 205 87 199 ZM237 107 Q233 102 219.5 91.5 Q206 81 191 67 Q210 19 243 1 Q232 -10 226 -17 Q193 10 176 54 Q159 98 155 121 Q164 123 173 127 Q178 99 184 85 Q205 101 219 125 L237 107 Z" /><glyph glyph-name="uni4FA0" unicode="&#x4fa0;" d="M145 172 Q145 199 144 207 Q156 205 166 205 Q164 195 164 172 Q211 172 224 173 L224 154 Q211 155 164 155 L164 86 L201 86 Q226 86 238 87 L238 68 Q224 69 203 69 L172 69 Q201 13 243 0 Q233 -8 227 -22 Q182 7 159 57 Q143 8 90 -24 Q86 -14 75 -4 Q128 19 142 69 L117 69 Q94 69 79 68 L79 87 Q95 86 118 86 L145 86 L145 155 Q103 155 90 154 L90 173 Q102 172 145 172 ZM80 197 Q72 187 60 153 L60 30 Q60 6 61 -22 L41 -22 Q42 6 42 31 L42 120 Q34 106 23 89 Q17 97 8 103 Q19 115 34.5 146.5 Q50 178 56 207 Q67 201 80 197 ZM217 136 Q214 131 210.5 119.5 Q207 108 203 94 Q193 98 182 100 Q189 113 194 141 Q208 138 217 136 ZM113 140 Q119 121 125 100 Q114 99 105 95 Q102 111 93 134 Q102 136 113 140 Z" /><glyph glyph-name="uni4FA3" unicode="&#x4fa3;" d="M234 87 Q233 70 233 30 Q233 -10 234 -22 L213 -22 L213 -2 L119 -2 L119 -22 L98 -22 Q99 -6 99 32 Q99 70 98 87 L234 87 ZM223 197 Q222 186 222 157 Q222 128 223 114 L108 114 Q109 124 109 155 Q109 186 108 197 L223 197 ZM89 198 Q82 188 66 147 L66 28 Q66 -7 67 -23 L44 -23 Q46 -6 46 29 L46 115 Q40 104 25 86 Q16 95 9 101 Q34 128 47.5 159.5 Q61 191 64 207 Q76 202 89 198 ZM213 15 L213 70 L119 70 L119 15 L213 15 ZM202 130 L202 180 L129 180 L129 130 L202 130 Z" /><glyph glyph-name="uni4FA5" unicode="&#x4fa5;" d="M192 79 Q221 79 237 80 L237 61 Q221 62 193 62 L187 62 L187 13 Q187 6 189 3.5 Q191 1 205 1 Q219 1 221.5 6.5 Q224 12 225 26 Q237 16 246 16 Q239 -6 233 -11.5 Q227 -17 213 -16 L185 -16 Q168 -15 167 5 L167 62 L141 62 Q137 -2 85 -24 Q81 -15 69 -5 Q117 11 121 62 L108 62 Q94 62 80 61 L80 80 Q94 79 113 79 L192 79 ZM124 174 Q120 190 119 206 Q131 204 140 204 Q140 194 142 178 Q178 184 221 194 L226 176 Q212 175 146 162 Q151 143 159 133 Q192 150 204 162 Q211 152 220 146 Q204 139 169 121 Q186 107 197.5 104.5 Q209 102 212 108 Q215 114 217 124 Q224 118 237 114 Q231 99 224 90.5 Q217 82 197.5 85.5 Q178 89 152 112 Q116 96 95 90 Q94 98 85 107 Q110 112 142 126 Q134 136 128 158 Q94 151 85 149 L80 167 Q89 168 124 174 ZM78 199 Q71 190 60 157 L60 31 Q60 -2 61 -20 L40 -20 Q41 -1 41 32 L41 122 Q35 110 23 92 Q16 101 8 107 Q17 117 30.5 144.5 Q44 172 53 208 Q62 204 78 199 Z" /><glyph glyph-name="uni4FA6" unicode="&#x4fa6;" d="M143 137 Q143 185 142 207 L164 207 Q163 197 163 182 L208 182 Q231 182 244 183 L244 165 Q231 166 209 166 L163 166 L163 137 L227 137 Q226 126 226 86 Q226 46 227 37 L205 37 L205 121 L117 121 L117 34 L96 34 Q97 45 97 85 Q97 126 96 137 L143 137 ZM87 200 Q79 191 65 155 L65 28 Q65 -6 66 -19 L44 -19 Q45 -5 45 27 L45 120 Q38 109 24 89 Q15 99 10 103 Q33 135 46.5 164 Q60 193 65 209 Q79 203 87 200 ZM174 104 Q170 91 166.5 56.5 Q163 22 143 4 Q123 -14 94 -25 Q90 -15 78 -5 Q123 5 137 31 Q151 57 149 105 Q160 104 174 104 ZM183 38 Q199 28 213.5 17.5 Q228 7 241 -5 Q232 -14 226 -21 Q211 -4 170 23 Q175 28 183 38 Z" /><glyph glyph-name="uni4FA7" unicode="&#x4fa7;" d="M161 189 Q160 179 160 160 L160 89 Q160 71 161 54 L142 54 L142 173 L94 173 L94 53 L76 53 Q77 71 77 89 L77 160 Q77 168 76 189 L161 189 ZM74 198 Q68 192 55 153 L55 26 Q55 -3 56 -24 L37 -24 Q38 -3 38 26 L38 122 Q34 113 22 92 Q15 102 8 108 Q23 128 36 160 Q49 192 51 208 Q63 201 74 198 ZM236 203 Q235 192 235 175 L235 0 Q235 -13 226 -17 Q217 -21 199 -24 Q197 -13 191 -2 Q205 -2 210.5 -1 Q216 0 216 10 L216 175 Q216 191 215 203 L236 203 ZM131 149 Q129 136 128 93 Q127 50 113.5 22 Q100 -6 83 -24 Q74 -16 64 -13 Q88 10 99 38.5 Q110 67 110.5 99 Q111 131 109 152 Q120 150 131 149 ZM198 171 Q197 160 197 143 L197 73 Q197 52 198 34 L178 34 Q179 46 179 73 L179 143 Q179 160 178 171 L198 171 ZM136 42 Q152 26 172 -5 Q164 -9 155 -18 Q139 11 121 30 Q129 35 136 42 Z" /><glyph glyph-name="uni4FA8" unicode="&#x4fa8;" d="M96 194 Q107 194 144 198 Q181 202 209 212 Q214 199 221 191 Q203 188 164 183 Q163 167 160 150 L200 150 Q222 150 235 152 L235 134 Q219 135 185 135 Q209 98 246 90 Q237 85 233 70 Q182 90 167 135 L156 135 Q137 95 89 70 Q83 79 73 86 Q110 95 137 135 Q102 135 87 134 L87 151 Q101 150 142 150 Q145 166 146 181 Q132 180 104 177 Q103 185 96 194 ZM41 -26 Q43 -7 43 27 L43 126 Q31 102 23 89 Q19 96 8 104 Q20 117 35.5 149.5 Q51 182 56 211 Q68 205 81 201 Q73 195 61 161 L61 26 Q61 -8 62 -26 L41 -26 ZM143 79 Q142 48 135.5 20 Q129 -8 106 -28 Q96 -19 85 -15 Q110 0 116.5 27 Q123 54 120 81 Q130 80 143 79 ZM179 -26 Q180 -12 180 10 L180 52 Q180 67 179 82 L200 82 Q199 67 199 52 L199 11 Q199 -11 200 -26 L179 -26 Z" /><glyph glyph-name="uni4FAE" unicode="&#x4fae;" d="M144 203 Q138 199 131 183 L204 183 Q224 183 238 184 L238 166 Q224 167 203 167 L122 167 Q118 160 107 144 L218 144 L215 89 Q235 89 245 90 L245 72 Q234 73 214 73 L212 28 Q229 28 239 29 L239 10 Q229 11 211 11 Q209 -16 204 -21 Q199 -26 175 -28 Q174 -18 167 -5 Q185 -6 188 -5.5 Q191 -5 192 11 L94 11 L100 73 Q83 73 75 72 L75 90 Q86 89 101 89 L105 141 Q100 134 89 121 Q83 127 73 132 Q90 149 102 169.5 Q114 190 122 212 Q130 206 144 203 ZM86 204 Q78 196 61 149 L61 16 Q61 -5 62 -26 L41 -26 Q42 -4 42 16 L42 119 Q33 99 24 84 Q16 94 8 99 Q32 130 45.5 163 Q59 196 61 212 Q74 207 86 204 ZM194 28 L196 73 L120 73 L117 28 L194 28 ZM197 89 L199 128 L124 128 L121 89 L197 89 ZM157 67 Q163 59 172 40 Q163 36 156 31 Q152 42 141 58 Q149 63 157 67 ZM161 124 Q167 112 173 99 Q164 97 155 92 Q151 105 144 115 Q152 118 161 124 Z" /><glyph glyph-name="uni4FAF" unicode="&#x4faf;" d="M207 194 L201 152 L212 152 Q226 152 241 153 L241 135 Q226 136 211 136 L124 136 Q130 133 140 129 Q133 121 128 111 L188 111 Q208 111 220 112 L220 94 Q208 95 188 95 L173 95 Q172 75 171 65 L200 65 Q220 65 236 66 L236 48 Q220 49 200 49 L176 49 Q200 7 243 -3 Q235 -13 231 -26 Q185 -5 164 36 Q141 -5 90 -27 Q85 -13 77 -6 Q130 9 149 49 L120 49 Q101 49 83 48 L83 66 Q101 65 120 65 L152 65 Q154 79 154 95 L120 95 Q114 86 107 75 Q99 81 89 85 Q109 107 119 136 L114 136 Q98 136 82 134 L82 153 Q97 152 120 152 L182 152 L186 178 L139 178 Q120 178 102 177 L102 195 Q115 194 139 194 L207 194 ZM82 202 Q74 192 62 155 L62 28 Q62 -7 63 -25 L41 -25 Q43 -6 43 29 L43 124 Q37 109 25 91 Q17 99 8 104 Q19 116 35.5 146.5 Q52 177 59 212 Q63 209 82 202 Z" /><glyph glyph-name="uni4FB5" unicode="&#x4fb5;" d="M102 77 Q116 76 138 76 L214 76 Q201 40 176 16 Q209 -3 243 -2 Q232 -17 230 -23 Q195 -18 160 6 Q136 -13 93 -25 Q91 -17 81 -7 Q110 -6 145 16 Q127 32 115 61 L102 61 L102 77 ZM223 201 Q222 189 222 165 Q222 141 223 128 L132 128 Q115 128 99 127 L99 142 Q114 141 132 141 L206 141 L206 156 L133 156 Q115 156 103 155 L103 171 Q113 170 131 170 L206 170 L206 186 L131 186 Q114 186 99 185 L99 202 Q112 201 130 201 L223 201 ZM9 109 Q20 120 38.5 150.5 Q57 181 65 211 Q75 205 88 200 Q80 194 61 151 L61 23 Q61 -2 62 -23 L42 -23 Q43 -2 43 22 L43 126 Q31 107 22 93 Q16 104 9 109 ZM242 112 Q241 106 241 97 Q241 88 242 78 L224 78 L224 98 L97 98 L97 77 L79 77 Q80 86 80 95 Q80 105 79 112 L242 112 ZM132 61 Q147 34 161 26 Q176 40 188 61 L132 61 Z" /><glyph glyph-name="uni4FBF" unicode="&#x4fbf;" d="M198 192 Q218 192 238 193 L238 176 Q222 177 200 177 L170 177 L170 155 L229 155 Q228 142 228 109 Q228 76 229 65 L169 65 Q167 43 154 21 Q187 1 244 -1 Q235 -10 234 -22 Q179 -16 142 7 Q120 -13 83 -28 Q79 -16 70 -10 Q109 0 127 18 Q111 31 95 51 Q104 55 110 62 Q125 42 140 32 Q147 41 151 65 L94 65 Q95 76 95 108 Q95 140 94 155 L152 155 L152 177 L134 177 Q102 177 92 176 L85 176 L85 193 Q103 192 136 192 L198 192 ZM84 200 Q75 181 60 147 L60 21 Q60 -4 61 -24 L41 -24 Q42 -3 42 21 L42 116 Q30 97 21 87 Q17 93 8 101 Q19 112 36 140.5 Q53 169 63 208 Q72 203 84 200 ZM209 81 L209 102 L170 102 L170 81 L209 81 ZM209 117 L209 138 L170 138 L170 117 L209 117 ZM152 81 L152 102 L113 102 L113 81 L152 81 ZM152 117 L152 138 L113 138 L113 117 L152 117 Z" /><glyph glyph-name="uni4FC3" unicode="&#x4fc3;" d="M225 193 Q224 176 224 150 Q224 124 225 112 L176 112 L176 75 L208 75 Q216 75 231 76 L231 56 Q216 57 208 57 L176 57 L176 6 Q208 1 242 4 Q237 -7 235 -19 Q194 -20 162 -10.5 Q130 -1 115 28 Q107 4 90 -21 Q82 -12 72 -7 Q88 8 97 33 Q106 58 107 95 Q115 92 129 89 Q123 74 122 58 Q121 42 132 28.5 Q143 15 158 12 L158 112 L108 112 Q109 124 109 151 Q109 179 108 193 L225 193 ZM47 125 Q35 105 26 93 Q18 100 8 106 Q20 118 37.5 148.5 Q55 179 63 210 Q72 205 87 199 Q78 191 65 155 L65 21 Q65 -3 66 -20 L45 -20 Q47 -1 47 20 L47 125 ZM204 130 L204 177 L128 177 L128 130 L204 130 Z" /><glyph glyph-name="uni4FC4" unicode="&#x4fc4;" d="M142 11 Q167 24 182 43 Q173 70 170 115 L132 115 L132 78 Q142 81 157 87 Q156 76 158 69 Q139 64 132 61 L132 11 Q132 -9 124.5 -13 Q117 -17 96 -20 Q93 -6 88 3 Q104 3 109.5 4 Q115 5 115 17 L115 55 Q90 47 82 42 Q79 52 73 62 Q91 65 115 73 L115 115 Q94 115 82 114 L82 132 Q95 131 115 131 L115 165 Q105 163 96 160 Q91 173 87 177 Q134 185 146 194 Q152 182 158 175 Q149 174 132 170 L132 131 L170 131 Q169 164 169 179 Q169 194 167 207 Q180 205 191 204 Q187 192 187 177 L187 131 L207 131 Q226 131 241 132 L241 114 Q227 115 209 115 L187 115 Q190 79 196 57 Q211 82 215 95 Q225 87 235 83 Q227 75 202 36 Q214 11 219.5 5.5 Q225 0 227 8 Q229 16 229 26 Q238 18 248 16 Q244 -2 239 -11 Q234 -20 228 -22 Q222 -24 210.5 -11.5 Q199 1 188 23 Q171 6 156 -5 Q151 3 142 11 ZM44 -23 Q45 -4 45 27 L45 123 Q41 112 28 93 Q20 101 11 106 Q24 118 40 149.5 Q56 181 60 209 Q70 205 86 201 Q78 191 63 150 L63 27 Q63 -10 65 -23 L44 -23 ZM217 144 Q210 161 198 177 Q207 182 215 187 Q219 181 223.5 174.5 Q228 168 235 154 Q225 149 217 144 Z" /><glyph glyph-name="uni4FCA" unicode="&#x4fca;" d="M165 96 Q159 92 153 86 L218 86 Q205 39 185 14 Q207 1 244 -2 Q235 -10 232 -24 Q198 -18 170 1 Q138 -19 93 -27 Q90 -18 82 -7 Q119 -6 155 15 Q141 32 132 56 Q121 39 106 24 Q99 34 89 40 Q105 49 120 70 Q135 91 142 108 Q150 101 165 96 ZM91 197 Q82 189 66 151 L66 25 Q66 -9 67 -27 L46 -27 Q48 -8 48 26 L48 121 Q38 105 25 90 Q19 97 8 102 Q35 131 49 160.5 Q63 190 66 207 Q79 200 91 197 ZM165 196 Q155 190 144.5 178.5 Q134 167 120 153 Q145 155 200 162 Q191 170 183 176 Q191 182 197 190 L221 169 Q232 160 242 149 Q232 142 226 134 Q220 139 213 147 Q149 141 129 138 Q109 135 102 132 Q98 143 92 155 Q103 158 117.5 173 Q132 188 143 211 Q151 204 165 196 ZM188 138 Q201 130 214.5 121 Q228 112 243 99 Q238 93 230 83 Q206 105 176 122 L188 138 ZM146 120 Q137 113 123.5 102 Q110 91 91 77 Q87 86 78 93 Q108 110 130 135 Q137 128 146 120 ZM170 26 Q185 43 193 71 L146 71 Q154 41 170 26 Z" /><glyph glyph-name="uni4FCF" unicode="&#x4fcf;" d="M183 -1 Q208 -4 208 3 L208 29 L119 29 L119 -25 L98 -25 Q100 -11 100 11 L100 96 Q100 119 98 135 L156 135 L156 178 Q156 195 155 210 L176 210 Q175 196 175 178 L175 135 L228 135 Q227 117 227 94 L227 -2 Q227 -18 218 -21 Q209 -24 191 -26 Q191 -17 183 -1 ZM42 -24 Q43 -2 43 19 L43 127 Q36 113 23 94 Q18 103 8 109 Q32 139 45 168.5 Q58 198 61 210 Q68 206 85 202 Q78 197 62 158 L62 21 Q62 -1 63 -24 L42 -24 ZM208 45 L208 74 L119 74 L119 45 L208 45 ZM208 90 L208 119 L119 119 L119 90 L208 90 ZM192 156 Q208 182 213 198 Q221 193 234 188 Q230 183 224 173 Q218 163 210 147 Q201 153 192 156 ZM113 193 Q126 172 134 153 Q124 150 116 144 Q107 165 96 184 Q105 188 113 193 Z" /><glyph glyph-name="uni4FD0" unicode="&#x4fd0;" d="M62 33 Q88 58 107 111 L99 111 Q87 111 70 110 L70 128 Q83 127 99 127 L112 127 L112 168 Q97 164 81 161 Q79 167 73 177 Q101 181 122 187.5 Q143 194 156 202 Q165 186 169 183 Q154 179 130 172 L130 127 L140 127 Q151 127 167 128 L167 110 Q153 111 139 111 L130 111 L130 83 Q135 87 143 94 Q158 75 169 61 Q161 56 153 48 Q147 58 130 79 L130 19 Q130 -8 131 -25 L111 -25 Q112 -3 112 18 L112 77 Q99 47 78 19 Q73 25 62 33 ZM79 199 Q73 189 67.5 178.5 Q62 168 57 156 L57 31 Q57 -4 59 -24 L38 -24 Q39 -3 39 32 L39 124 Q33 113 21 97 Q18 103 8 111 Q23 127 39.5 161.5 Q56 196 57 208 Q65 204 79 199 ZM234 199 Q232 182 232 160 L232 1 Q232 -16 224 -19 Q216 -22 193 -25 Q191 -13 182 -2 Q204 -2 208 -1.5 Q212 -1 214 5 L214 160 Q214 179 212 199 L234 199 ZM196 165 Q195 147 195 132 L195 79 Q195 55 196 41 L176 41 Q177 55 177 79 L177 132 Q177 146 176 165 L196 165 Z" /><glyph glyph-name="uni4FD7" unicode="&#x4fd7;" d="M173 156 Q182 129 202.5 111 Q223 93 248 88 Q241 81 235 69 Q223 72 213 78 Q212 70 212 29 Q212 -11 213 -22 L194 -22 L194 -7 L133 -7 L133 -25 L114 -25 Q115 -12 115 27 Q115 66 114 78 Q103 68 86 58 Q80 66 69 71 Q104 90 123.5 118.5 Q143 147 150 168 Q158 164 176 161 L173 156 ZM82 203 Q74 196 61 157 L61 28 Q61 -8 62 -26 L42 -26 Q43 -8 43 29 L43 119 Q34 101 25 85 Q17 92 8 96 Q19 110 36.5 147 Q54 184 58 211 Q69 206 82 203 ZM194 10 L194 64 L133 64 L133 10 L194 10 ZM208 81 Q178 100 159 145 Q143 108 117 81 L208 81 ZM151 194 Q140 187 100 141 Q90 150 82 155 Q120 189 129 206 Q138 200 151 194 ZM193 207 Q221 184 240 166 Q232 162 223 151 Q205 174 178 195 Q187 200 193 207 Z" /><glyph glyph-name="uni4FD8" unicode="&#x4fd8;" d="M222 111 L222 92 Q207 88 196 82.5 Q185 77 172 68 L172 57 L208 57 Q228 57 241 58 L241 39 Q229 40 209 40 L172 40 L172 3 Q172 -16 160.5 -20.5 Q149 -25 131 -28 Q130 -14 123 -4 Q142 -4 147.5 -2.5 Q153 -1 153 12 L153 40 L115 40 Q92 40 77 39 L77 58 Q92 57 115 57 L153 57 Q153 71 152 79 Q171 86 185 95 L136 95 Q113 95 97 94 L97 112 Q112 111 134 111 L222 111 ZM41 -25 Q43 -6 43 28 L43 112 Q35 97 24 81 Q18 88 8 95 Q21 109 37.5 142.5 Q54 176 61 208 Q69 203 84 198 Q76 191 62 145 L62 26 Q62 -5 64 -25 L41 -25 ZM91 189 Q112 189 154 194 Q196 199 213 208 Q217 198 229 184 Q209 184 167.5 178.5 Q126 173 99 170 Q95 183 91 189 ZM182 126 Q198 148 204 173 Q214 168 225 164 L212 138 Q207 128 202 117 Q196 121 182 126 ZM158 166 Q163 153 171 132 Q160 129 152 125 Q148 140 139 159 Q148 162 158 166 ZM111 160 Q114 153 118 146 Q122 139 128 127 Q119 124 110 119 Q105 132 94 150 Q102 154 111 160 Z" /><glyph glyph-name="uni4FDD" unicode="&#x4fdd;" d="M217 197 Q216 182 216 158 Q216 135 217 122 L169 122 L169 90 L199 90 Q226 90 241 91 L241 72 Q224 73 201 73 L184 73 Q193 53 209 37.5 Q225 22 247 14 Q239 7 232 -5 Q208 8 192.5 28 Q177 48 169 68 L169 13 Q169 -10 170 -23 L149 -23 Q150 -9 150 11 L150 72 Q126 24 89 -7 Q83 2 71 7 Q106 26 129 73 L115 73 Q94 73 80 72 L80 91 Q94 90 113 90 L150 90 L150 122 L104 122 Q105 136 105 160 Q105 185 104 197 L217 197 ZM85 199 Q80 192 74 179 Q68 166 64 155 L64 26 Q64 -6 65 -23 L45 -23 Q46 -7 46 25 L46 120 Q32 96 21 82 Q16 91 8 97 Q29 122 43.5 153.5 Q58 185 63 209 Q71 203 85 199 ZM198 138 L198 181 L123 181 L123 138 L198 138 Z" /><glyph glyph-name="uni4FE1" unicode="&#x4fe1;" d="M226 63 Q225 51 225 23 Q225 -4 226 -18 L207 -18 L207 -1 L121 -1 L121 -22 L101 -22 Q102 -7 102 20 Q102 48 101 63 L226 63 ZM85 199 Q79 193 66 159 L66 22 Q66 -8 67 -25 L45 -25 Q48 -7 48 23 L48 124 Q36 100 25 84 Q19 94 10 100 Q21 112 37 142.5 Q53 173 61 207 Q72 203 85 199 ZM207 15 L207 49 L121 49 L121 15 L207 15 ZM243 156 Q223 157 164 157 Q105 157 84 156 L84 173 L243 173 L243 156 ZM228 120 Q211 121 166 121 Q121 121 99 120 L99 137 Q118 136 164 136 Q211 136 228 137 L228 120 ZM228 85 Q214 86 167 86 Q121 86 99 85 L99 102 Q120 101 167 101 Q215 101 228 102 L228 85 ZM161 208 Q164 202 167 195 Q170 188 173 180 Q164 177 155 175 Q148 196 143 201 Q153 205 161 208 Z" /><glyph glyph-name="uni4FE9" unicode="&#x4fe9;" d="M108 35 Q119 52 123.5 82.5 Q128 113 128 125 L107 125 L107 -22 L87 -22 Q88 -6 88 18 L88 106 Q88 128 87 142 L129 142 L129 178 Q106 178 89 177 L89 195 Q106 194 123 194 L210 194 Q224 194 236 195 L236 177 Q228 178 190 178 L190 142 L235 142 Q233 130 233 110 L233 6 Q232 -15 221.5 -18 Q211 -21 198 -23 Q196 -11 190 0 Q211 -2 213 2.5 Q215 7 215 16 L215 125 L190 125 L190 94 Q195 84 202.5 69.5 Q210 55 214 42 Q208 39 198 33 Q194 46 185 71 Q181 52 166 15 Q155 22 147 25 Q155 38 163.5 62 Q172 86 173 125 L147 125 Q146 116 144 99 Q160 78 166 71 L151 59 Q146 69 141 78 Q138 51 126 23 Q119 30 108 35 ZM24 88 Q19 96 10 104 Q22 117 38 149 Q54 181 58 206 Q71 198 81 195 Q73 186 62 151 L62 29 Q62 -6 64 -22 L42 -22 Q44 -5 44 30 L44 120 Q33 101 24 88 ZM173 142 L173 178 L147 178 L147 142 L173 142 Z" /><glyph glyph-name="uni4FED" unicode="&#x4fed;" d="M169 202 Q165 197 162 192 Q207 136 245 121 Q236 116 229 101 Q215 109 200 123 L200 107 Q189 108 180 108 L143 108 Q123 108 113 107 L113 122 Q108 116 85 95 Q81 101 68 110 Q86 121 108 147 Q130 173 144 210 Q158 205 169 202 ZM84 197 Q78 187 65 154 L65 19 Q65 -8 66 -25 L44 -25 Q46 -7 46 18 L46 121 Q32 98 22 83 Q16 93 8 98 Q31 131 44.5 161.5 Q58 192 60 208 Q70 202 84 197 ZM220 85 Q212 72 204.5 51 Q197 30 190 8 L206 8 Q221 8 238 10 L238 -11 Q224 -10 206 -10 L115 -10 Q92 -10 83 -11 L83 9 Q92 8 116 8 L170 8 Q188 56 196 95 Q202 92 220 85 ZM196 126 Q166 151 151 176 Q134 146 116 126 L196 126 ZM157 91 Q159 84 163 67 Q167 50 170 37 Q163 36 151 32 Q147 52 138 86 Q149 89 157 91 ZM112 84 Q115 72 119 58.5 Q123 45 128 29 Q115 25 109 23 Q105 44 94 78 Q102 80 112 84 Z" /><glyph glyph-name="uni4FEE" unicode="&#x4fee;" d="M166 203 Q157 194 153 183 L224 183 Q217 169 209 155.5 Q201 142 189 130 Q219 111 248 112 Q240 105 237 92 Q202 98 176 118 Q138 94 110 86 Q106 95 95 104 Q126 109 162 130 Q149 140 138 156 Q129 141 117 125 Q110 131 101 135 Q116 151 128 175 Q140 199 142 212 Q152 207 166 203 ZM80 200 Q73 195 59 153 L59 24 Q59 -8 60 -22 L41 -22 Q42 -2 42 21 L42 125 Q37 112 24 92 Q20 97 9 106 Q18 115 34.5 148 Q51 181 57 209 Q64 205 80 200 ZM244 28 Q232 23 198 5 Q164 -13 111 -27 Q108 -17 97 -9 Q142 2 175.5 16 Q209 30 227 45 Q237 33 244 28 ZM93 158 Q92 147 92 133 L92 48 Q92 35 93 25 L74 25 Q75 36 75 48 L75 133 Q75 146 74 158 L93 158 ZM217 61 Q191 44 167 31 Q143 18 130 11 Q120 24 113 28 Q130 32 155 44.5 Q180 57 199 76 Q211 65 217 61 ZM193 88 Q176 79 130 53 Q125 61 116 69 Q164 87 177 103 Q186 93 193 88 ZM176 140 Q187 153 196 168 L149 168 Q164 148 176 140 Z" /><glyph glyph-name="uni4FEF" unicode="&#x4fef;" d="M182 182 Q175 179 165 173 L212 173 Q229 173 242 174 L242 154 Q229 155 212 155 L106 155 Q106 75 100.5 43 Q95 11 81 -14 Q76 -8 63 -3 Q81 23 84.5 58.5 Q88 94 88 121 Q88 148 87 173 L162 173 Q156 188 147 203 Q156 206 166 212 Q173 199 182 182 ZM80 195 Q73 187 60 150 L60 25 Q60 -4 61 -25 L41 -25 Q42 -5 42 26 L42 121 Q37 110 24 88 Q20 94 8 103 Q27 128 40.5 158 Q54 188 56 205 Q64 199 80 195 ZM159 110 Q170 109 184 109 L203 109 L203 124 Q203 139 202 148 L222 148 Q221 139 221 123 L221 109 Q235 109 244 110 L244 91 Q235 92 221 92 L221 6 Q221 -12 212.5 -17 Q204 -22 184 -26 Q182 -15 176 -3 Q193 -3 198 -1 Q203 1 203 13 L203 92 L184 92 Q171 92 159 91 L159 110 ZM160 139 Q156 136 147 117 L147 13 Q147 -11 148 -24 L128 -24 Q129 -9 129 13 L129 83 Q126 77 118 65 Q114 71 107 78 Q114 87 125 110.5 Q136 134 138 148 Q147 143 160 139 ZM172 33 Q167 51 157 69 Q165 73 174 78 Q181 63 190 41 L172 33 Z" /><glyph glyph-name="uni4FF1" unicode="&#x4ff1;" d="M218 55 Q228 55 240 57 L240 37 Q227 39 215 39 L108 39 Q92 39 78 37 L78 57 Q91 55 102 55 L102 156 Q102 179 101 198 L219 198 Q218 182 218 158 L218 55 ZM82 198 Q73 189 62 156 L62 19 Q62 -6 64 -24 L43 -24 Q44 -6 44 18 L44 126 Q33 105 24 92 Q19 100 8 108 Q20 120 35 148.5 Q50 177 59 210 Q68 205 82 198 ZM121 126 L199 126 L199 146 L121 146 L121 126 ZM189 36 Q196 30 207.5 20.5 Q219 11 239 -8 Q229 -15 222 -26 Q189 8 173 18 Q179 23 189 36 ZM121 163 L199 163 L199 182 L121 182 L121 163 ZM199 74 L121 74 L121 55 L199 55 L199 74 ZM121 90 L199 90 L199 109 L121 109 L121 90 ZM96 -27 Q91 -20 80 -11 Q113 14 122 34 Q129 29 144 19 Q136 13 125.5 2 Q115 -9 96 -27 Z" /><glyph glyph-name="uni4FFA" unicode="&#x4ffa;" d="M134 175 Q140 191 142 208 Q151 204 165 201 Q160 196 152 175 L200 175 Q218 175 237 176 L237 160 Q219 161 201 161 L189 161 Q211 124 245 115 Q238 109 232 98 Q220 104 214 108 L214 58 Q214 43 215 29 L162 29 L162 6 Q162 -4 171 -5 Q180 -6 197 -6 Q213 -6 216.5 -2.5 Q220 1 221 19 Q229 13 243 10 Q236 -11 231.5 -16 Q227 -21 211 -21 L166 -21 Q146 -21 146 -1 L146 29 L112 29 L112 20 L95 20 Q96 42 96 53 L96 102 Q86 95 79 90 Q73 99 65 105 Q106 124 127 161 L115 161 Q102 161 84 160 L84 176 Q98 175 116 175 L134 175 ZM81 197 Q76 192 61 154 L61 15 Q61 -5 62 -24 L43 -24 Q44 -4 44 15 L44 122 Q38 111 23 92 Q17 99 8 103 Q24 119 39.5 151.5 Q55 184 60 207 Q69 201 81 197 ZM146 110 Q146 122 145 136 L163 136 Q162 129 162 110 L210 110 Q187 128 171 161 L147 161 Q130 131 106 110 L146 110 ZM197 76 L197 96 L162 96 L162 76 L197 76 ZM146 76 L146 96 L112 96 L112 76 L146 76 ZM197 43 L197 62 L162 62 L162 43 L197 43 ZM146 43 L146 62 L112 62 L112 43 L146 43 Z" /><glyph glyph-name="uni500D" unicode="&#x500d;" d="M221 70 Q220 55 220 24 Q220 -6 221 -20 L201 -20 L201 0 L118 0 L118 -25 L99 -25 Q100 -4 100 24 Q100 52 99 70 L221 70 ZM93 199 Q87 193 81 181 L63 145 L63 29 Q63 -6 64 -25 L44 -25 Q45 -5 45 30 L45 115 Q38 104 23 86 Q18 94 10 100 Q29 119 45.5 149 Q62 179 71 210 Q84 201 93 199 ZM210 147 Q201 134 197 125.5 Q193 117 189 108 L209 108 Q226 108 240 109 L240 92 Q225 93 208 93 L113 93 Q96 93 81 92 L81 109 Q96 108 116 108 L170 108 Q180 134 185 156 Q198 151 210 147 ZM201 16 L201 54 L118 54 L118 16 L201 16 ZM188 174 Q214 174 233 175 L233 158 Q215 159 190 159 L143 159 Q115 159 94 158 L94 175 Q114 174 142 174 L188 174 ZM127 154 Q139 137 148 120 Q139 116 130 110 Q121 130 110 144 Q119 147 127 154 ZM158 212 Q166 197 173 183 Q162 180 153 176 Q148 191 140 204 Q149 207 158 212 Z" /><glyph glyph-name="uni5012" unicode="&#x5012;" d="M136 193 Q153 193 164 194 L164 173 Q153 174 130 174 Q113 134 104 122 Q130 124 144 126 Q138 137 133 145 Q143 149 149 153 Q167 119 171 107 Q162 102 154 98 Q152 104 150 109 Q143 109 131 107 L131 75 Q153 75 162 76 L162 56 Q150 57 131 57 L131 21 Q149 24 168 29 Q167 18 168 10 Q136 4 114 -1 Q92 -6 82 -10 Q80 -1 74 13 Q83 13 113 17 L113 57 Q92 57 82 56 L82 76 Q91 75 113 75 L113 106 Q95 104 84 100 Q81 112 77 122 Q87 125 95.5 138.5 Q104 152 111 174 Q95 174 83 173 L83 194 Q93 193 114 193 L136 193 ZM82 200 Q74 192 60 154 L60 12 Q60 -7 61 -25 L41 -25 Q42 -9 42 11 L42 122 Q37 109 24 89 Q18 96 8 104 Q18 117 32 143.5 Q46 170 55 210 Q68 205 82 200 ZM238 206 Q237 191 237 175 L237 2 Q235 -11 224 -15 Q213 -19 195 -23 Q193 -12 186 3 Q200 2 209.5 3.5 Q219 5 219 17 L219 175 Q219 190 218 206 L238 206 ZM200 174 Q199 165 199 142 L199 67 Q199 47 200 38 L179 38 Q180 47 180 67 L180 142 Q180 164 179 174 L200 174 Z" /><glyph glyph-name="uni5014" unicode="&#x5014;" d="M227 195 Q226 181 226 166 Q226 151 227 135 L109 135 Q112 47 84 -19 Q74 -11 64 -8 Q81 17 86.5 53.5 Q92 90 92 120 Q92 150 90 195 L227 195 ZM167 79 Q167 112 166 125 L185 125 Q184 113 184 79 L208 79 Q208 107 207 115 L226 115 Q225 105 225 89 Q225 74 226 62 L184 62 L184 1 L213 3 Q213 27 212 45 L232 45 Q231 35 231 9 Q231 -16 232 -25 L213 -25 L213 -13 L118 -20 Q119 -1 119 15 Q119 32 118 43 L137 43 Q136 37 136 -2 L167 0 L167 62 L125 62 Q126 75 126 87 Q126 100 125 113 L144 113 Q143 101 143 79 L167 79 ZM81 195 Q74 187 60 151 L60 14 Q60 -5 61 -25 L41 -25 Q43 -5 43 10 L43 118 Q32 99 22 87 Q17 95 7 103 Q18 114 35 144.5 Q52 175 59 205 Q69 200 81 195 ZM208 151 L208 180 L109 180 L109 151 L208 151 Z" /><glyph glyph-name="uni5018" unicode="&#x5018;" d="M170 205 Q169 193 169 175 L169 125 L235 125 Q234 111 234 89 L234 0 Q234 -11 226.5 -14.5 Q219 -18 200 -22 Q199 -14 192 -1 Q206 -1 211 0 Q216 1 215 9 L215 109 L109 109 L109 -22 L89 -22 Q90 -10 90 11 L90 89 Q89 113 88 125 L150 125 L150 175 Q150 196 149 205 L170 205 ZM84 198 Q75 190 63 158 L63 30 Q63 -3 64 -21 L44 -21 Q45 -2 45 31 L45 124 Q32 102 24 90 Q18 100 8 106 Q19 117 36.5 150 Q54 183 59 208 Q68 202 84 198 ZM196 85 Q195 72 195 52 Q195 32 196 19 L129 19 Q130 33 130 51 Q130 70 129 85 L196 85 ZM178 34 L178 70 L147 70 L147 34 L178 34 ZM230 186 Q221 172 202 135 Q193 139 184 142 Q205 179 210 195 Q220 190 230 186 ZM103 194 Q121 170 134 146 Q125 142 117 136 Q107 158 88 184 Q95 188 103 194 Z" /><glyph glyph-name="uni5019" unicode="&#x5019;" d="M109 86 Q129 116 134 136 Q148 131 154 129 Q151 126 145 113 L195 113 Q211 113 224 114 L224 96 Q210 97 195 97 L182 97 Q181 88 179 66 L207 66 Q225 66 239 67 L239 49 Q226 50 207 50 L182 50 Q208 7 246 -2 Q238 -8 232 -22 Q190 -3 171 36 Q156 0 105 -25 Q99 -15 88 -8 Q144 10 158 50 L144 50 Q128 50 105 49 L105 67 Q128 66 144 66 L161 66 Q163 87 164 97 L137 97 Q131 87 126 78 Q118 82 109 86 ZM75 201 Q69 192 58 157 L58 27 Q58 -6 60 -22 L39 -22 Q40 -4 40 28 L40 121 Q34 107 22 88 Q15 97 8 102 Q18 115 31.5 143.5 Q45 172 52 210 Q59 206 75 201 ZM151 183 Q134 183 118 182 L118 201 Q133 199 151 199 L210 199 Q203 173 199 155 L212 155 Q230 155 243 156 L243 137 Q230 139 212 139 L139 139 Q117 139 104 137 L104 156 Q116 155 139 155 L179 155 Q182 167 184 183 L151 183 ZM96 165 Q95 154 95 142 L95 53 Q95 40 96 29 L76 29 Q77 40 77 53 L77 139 Q77 153 76 165 L96 165 Z" /><glyph glyph-name="uni501A" unicode="&#x501a;" d="M164 162 Q207 146 228 135 Q224 132 214 119 Q197 131 156 148 Q142 128 104 117 L212 117 Q234 117 247 118 L247 100 Q238 101 219 101 L219 0 Q219 -19 210 -22 Q201 -25 180 -26 Q179 -14 172 -1 Q189 -3 194.5 -2.5 Q200 -2 200 5 L200 101 L116 101 Q94 101 75 100 L75 118 Q89 117 102 117 Q98 126 88 135 Q137 142 146 168 L123 168 Q106 168 91 167 L91 185 Q103 184 125 184 L148 184 Q148 192 147 210 Q156 209 170 208 Q168 203 167.5 196.5 Q167 190 167 184 L196 184 Q215 184 234 185 L234 167 Q218 168 196 168 L166 168 L164 162 ZM86 200 Q80 193 66 160 L66 31 Q66 -3 67 -23 L46 -23 Q47 -2 47 32 L47 127 Q36 108 24 93 Q18 101 8 108 Q22 122 37.5 150 Q53 178 62 209 Q70 205 86 200 ZM170 82 Q169 67 169 48 Q169 30 170 13 L94 13 Q95 27 95 48 Q95 70 94 82 L170 82 ZM151 29 L151 66 L113 66 L113 29 L151 29 Z" /><glyph glyph-name="uni501F" unicode="&#x501f;" d="M217 88 Q216 73 216 34 Q216 -4 217 -20 L199 -20 L199 -7 L116 -7 L116 -21 L98 -21 Q99 -7 99 30 Q99 67 98 88 L217 88 ZM120 174 Q120 194 119 205 L140 205 Q138 201 138 174 L176 174 Q176 198 175 206 L196 206 Q194 195 194 174 Q218 174 232 175 L232 156 Q217 157 194 157 L194 125 L208 125 Q225 125 240 126 L240 107 Q226 108 207 108 L106 108 Q91 108 77 107 L77 126 Q89 125 106 125 L120 125 L120 157 Q99 157 89 156 L89 175 Q98 174 120 174 ZM44 124 Q33 102 24 88 Q18 95 8 102 Q20 116 35.5 147 Q51 178 59 210 Q66 206 83 200 Q74 192 62 156 L62 15 Q62 -9 63 -25 L43 -25 Q44 -12 44 17 L44 124 ZM199 48 L199 71 L116 71 L116 48 L199 48 ZM199 10 L199 31 L116 31 L116 10 L199 10 ZM176 125 L176 157 L138 157 L138 125 L176 125 Z" /><glyph glyph-name="uni5021" unicode="&#x5021;" d="M234 85 Q233 72 233 31 Q233 -9 234 -24 L215 -24 L215 -10 L114 -10 L114 -27 L95 -27 Q96 -15 96 27 Q96 70 95 85 L234 85 ZM225 198 Q224 178 224 148 Q224 118 225 103 L106 103 Q107 120 107 149 Q107 178 106 198 L225 198 ZM87 200 Q79 190 65 153 L65 15 Q65 -9 66 -27 L45 -27 Q46 -9 46 14 L46 123 Q33 102 24 90 Q17 97 8 103 Q21 116 36 144 Q51 172 62 210 Q71 206 87 200 ZM215 7 L215 30 L114 30 L114 7 L215 7 ZM215 46 L215 68 L114 68 L114 46 L215 46 ZM206 120 L206 143 L125 143 L125 120 L206 120 ZM206 160 L206 181 L125 181 L125 160 L206 160 Z" /><glyph glyph-name="uni5026" unicode="&#x5026;" d="M170 205 Q166 197 164.5 181.5 Q163 166 162 154 L199 154 Q219 154 231 155 L231 137 Q219 138 201 138 L158 138 Q156 127 153 118 L205 118 Q229 118 242 119 L242 101 Q229 102 210 102 L198 102 Q203 88 218 78.5 Q233 69 247 65 Q240 59 234 45 Q214 53 199 70 L199 44 Q199 30 189.5 25.5 Q180 21 163 19 Q161 29 155 40 Q176 38 178.5 41.5 Q181 45 181 50 L181 60 L136 60 L136 12 Q136 -1 149 -1 L196 -1 Q205 -1 208 3.5 Q211 8 214 26 Q226 17 237 15 Q231 -4 224 -10.5 Q217 -17 207 -17 L141 -17 Q118 -17 118 6 L118 67 Q105 53 82 39 Q76 47 66 55 Q105 71 125 102 L117 102 Q95 102 79 101 L79 119 Q94 118 118 118 L134 118 Q138 126 140 138 L127 138 Q106 138 91 137 L91 155 Q104 154 126 154 L143 154 Q146 186 146 208 Q158 206 170 205 ZM40 -23 Q41 -9 41 14 L41 120 Q30 101 23 90 Q17 97 8 104 Q24 124 38 155.5 Q52 187 55 209 Q64 204 79 200 Q71 190 59 153 L59 14 Q59 -6 60 -23 L40 -23 ZM194 76 Q186 86 179 102 L145 102 Q136 85 127 76 L194 76 ZM220 192 Q213 185 207.5 176.5 Q202 168 195 159 Q189 163 179 168 Q196 189 201 203 Q208 198 220 192 ZM112 202 Q116 197 120.5 190 Q125 183 133 169 Q126 166 117 159 Q110 174 95 190 Q102 194 112 202 Z" /><glyph glyph-name="uni503A" unicode="&#x503a;" d="M150 184 Q150 196 149 208 L171 208 Q170 195 170 184 L200 184 Q222 184 232 185 L232 168 Q221 169 200 169 L170 169 L170 154 L195 154 Q210 154 225 155 L225 138 Q213 139 195 139 L170 139 L170 124 L206 124 Q229 124 242 125 L242 108 Q227 109 206 109 L115 109 Q96 109 80 108 L80 125 Q95 124 114 124 L150 124 L150 139 L133 139 Q114 139 100 138 L100 155 Q114 154 132 154 L150 154 L150 169 L129 169 Q107 169 92 168 L92 185 Q106 184 125 184 L150 184 ZM10 104 Q20 115 35.5 142 Q51 169 60 203 Q70 198 84 194 Q76 185 62 151 L62 32 Q62 -1 63 -20 L42 -20 Q43 0 43 33 L43 118 Q31 98 25 89 L10 104 ZM226 92 Q225 84 225 62 Q225 41 226 31 L206 31 L206 77 L119 77 L119 28 L99 28 Q100 43 100 62 Q100 82 99 92 L226 92 ZM78 -6 Q130 1 142.5 22.5 Q155 44 152 66 L174 64 Q171 24 153 4.5 Q135 -15 90 -24 Q85 -14 78 -6 ZM187 27 Q203 19 216.5 12 Q230 5 242 -3 Q236 -10 230 -21 Q195 5 176 12 Q181 20 187 27 Z" /><glyph glyph-name="uni503C" unicode="&#x503c;" d="M147 178 L147 204 Q159 203 174 202 Q169 195 168 178 L205 178 Q222 178 235 179 L235 161 Q221 162 205 162 L167 162 L165 140 L216 140 Q215 128 215 108 L215 6 Q235 6 244 7 L244 -11 Q231 -10 208 -10 L114 -10 Q91 -10 76 -11 L76 7 Q85 6 104 6 L104 108 Q104 127 103 140 L144 140 L146 162 L128 162 Q103 162 89 161 L89 179 Q102 178 128 178 L147 178 ZM89 196 Q81 187 66 150 L66 18 Q66 -3 67 -22 L46 -22 Q47 -5 47 15 L47 118 Q35 98 25 86 Q17 97 10 103 Q20 113 37.5 141.5 Q55 170 65 206 Q79 199 89 196 ZM197 106 L197 126 L123 126 L123 106 L197 106 ZM197 6 L197 25 L123 25 L123 6 L197 6 ZM197 40 L197 58 L123 58 L123 40 L197 40 ZM197 73 L197 91 L123 91 L123 73 L197 73 Z" /><glyph glyph-name="uni503E" unicode="&#x503e;" d="M215 32 L215 130 L157 130 L157 26 L138 25 Q139 45 139 88 Q139 131 137 146 L167 146 Q172 166 174 178 L160 178 Q138 178 126 177 L126 195 Q139 194 159 194 L215 194 Q232 194 240 195 L240 177 Q232 178 215 178 L194 178 Q190 163 186 146 L234 146 Q233 130 233 86 Q233 42 234 32 L215 32 ZM10 113 Q28 139 41 168 Q54 197 56 210 Q66 204 77 201 Q72 196 60 162 L60 23 Q60 -7 61 -26 L41 -26 Q42 -7 42 23 L42 131 Q38 122 23 99 Q17 108 10 113 ZM124 64 Q126 57 131 46 Q101 25 86 11 Q81 21 74 29 Q81 35 82 45 L82 144 Q82 163 81 176 L101 176 Q100 163 100 137 L100 126 Q115 126 128 127 L128 109 Q116 110 100 110 L100 45 Q107 50 124 64 ZM198 111 Q195 79 192.5 54.5 Q190 30 178 10 Q166 -10 134 -28 Q128 -20 116 -14 Q168 8 172.5 49 Q177 90 177 115 Q187 111 198 111 ZM246 -11 Q239 -16 230 -26 Q217 -8 194 16 Q200 21 206 29 L246 -11 Z" /><glyph glyph-name="uni5047" unicode="&#x5047;" d="M152 192 Q151 181 151 159 Q151 137 152 123 L100 123 L100 96 L121 96 Q130 96 145 97 L145 79 Q130 80 121 80 L100 80 L100 50 L119 50 Q134 50 146 51 L146 33 Q135 34 119 34 L100 34 L100 -23 L83 -23 Q84 -7 84 10 L84 162 Q84 183 83 192 L152 192 ZM232 101 Q227 55 206 18 Q224 -1 246 -11 Q238 -18 232 -27 Q216 -17 195 5 Q174 -15 148 -27 Q143 -18 135 -11 Q165 -2 185 19 Q170 44 162 85 L157 84 L157 102 Q169 101 192 101 L232 101 ZM43 117 Q36 102 26 84 Q20 90 10 98 Q22 108 36.5 143 Q51 178 56 204 Q66 198 79 195 Q75 192 70.5 180.5 Q66 169 60 150 L60 19 Q60 -7 61 -23 L42 -23 Q43 -5 43 20 L43 117 ZM231 194 Q230 183 229.5 159 Q229 135 231 123 L202 123 Q181 123 164 122 L164 139 Q180 138 201 138 L212 138 L212 179 L202 179 Q179 179 166 178 L166 195 Q180 194 198 194 L231 194 ZM134 139 L134 176 L100 176 L100 139 L134 139 ZM178 85 Q186 48 196 34 Q209 56 212 85 L178 85 Z" /><glyph glyph-name="uni504E" unicode="&#x504e;" d="M228 198 Q227 180 227 149 Q227 118 228 104 L95 104 Q96 117 96 150 Q96 183 95 198 L228 198 ZM203 85 Q221 85 242 86 L242 68 Q221 69 203 69 L165 69 Q170 48 183 32 Q199 47 206 59 Q216 52 227 45 Q217 40 211 34.5 Q205 29 194 20 Q215 3 246 2 Q237 -7 234 -18 Q209 -12 191 0 Q173 12 163.5 29.5 Q154 47 149 69 L117 69 L117 3 Q123 6 142 18 Q145 9 149 0 Q114 -17 103 -26 Q97 -17 91 -10 Q99 -4 99 8 L99 69 Q86 69 77 68 L77 86 Q98 85 117 85 L203 85 ZM86 201 Q78 195 62 156 L62 30 Q62 -4 63 -26 L43 -26 Q44 -3 44 31 L44 124 Q36 112 25 95 Q16 102 8 107 Q20 120 36.5 150 Q53 180 62 211 Q71 205 86 201 ZM209 119 L209 147 L169 147 L169 119 L209 119 ZM152 119 L152 147 L114 147 L114 119 L152 119 ZM209 161 L209 184 L169 184 L169 161 L209 161 ZM152 161 L152 184 L114 184 L114 161 L152 161 Z" /><glyph glyph-name="uni504F" unicode="&#x504f;" d="M66 21 Q91 62 96 104 Q101 146 98 185 L157 185 Q155 196 149 208 Q159 210 167 212 Q171 203 177 185 L227 185 Q226 172 226 156 Q226 140 227 128 L116 128 Q115 117 114 105 L239 105 Q238 88 238 70 L238 -4 Q238 -16 230.5 -19.5 Q223 -23 208 -26 Q206 -16 199 -5 Q221 -6 221 4 L221 43 L197 43 Q197 17 198 0 L179 0 Q181 16 181 43 L160 43 Q160 14 161 -1 L142 -1 Q143 14 143 43 L121 43 L121 -24 L103 -24 L103 63 Q97 42 80 11 Q71 19 66 21 ZM9 98 Q33 126 48 156 Q63 186 66 203 Q75 197 90 193 Q83 189 63 139 L63 22 Q63 -2 64 -23 L44 -23 Q45 -3 45 22 L45 116 Q37 103 25 86 Q19 94 9 98 ZM209 143 L209 170 L116 170 L116 143 L209 143 ZM221 57 L221 90 L197 90 L197 57 L221 57 ZM143 57 L143 90 L121 90 L121 57 L143 57 ZM181 57 L181 90 L160 90 L160 57 L181 57 Z" /><glyph glyph-name="uni505A" unicode="&#x505a;" d="M144 104 Q153 115 163.5 143.5 Q174 172 179 204 Q189 200 203 196 Q196 189 185 152 L209 152 Q228 152 240 153 L240 137 Q230 138 223 138 Q224 76 205 30 Q222 6 243 -3 Q232 -12 228 -20 Q212 -9 193 15 Q176 -6 148 -24 Q142 -16 133 -9 Q159 1 182 30 Q170 53 163 100 L159 91 Q153 98 144 104 ZM110 172 Q110 189 109 198 L129 198 Q128 189 128 172 L128 145 Q139 145 153 146 L153 128 Q136 129 128 129 L128 93 L153 93 Q152 79 152 53 Q152 27 153 14 L134 14 L134 24 L103 24 L103 3 L84 3 Q85 17 85 48 Q85 79 84 93 L110 93 L110 129 Q92 129 80 128 L80 146 Q91 145 110 145 L110 172 ZM12 101 Q23 112 40 143.5 Q57 175 66 207 Q76 201 86 198 Q78 185 65 149 L65 28 Q65 -5 66 -20 L46 -20 Q47 -3 47 29 L47 116 Q37 100 27 85 Q20 96 12 101 ZM177 117 Q185 65 193 49 Q204 78 205 137 L180 137 Q177 129 171 114 L177 117 ZM134 39 L134 78 L103 78 L103 39 L134 39 Z" /><glyph glyph-name="uni505C" unicode="&#x505c;" d="M216 156 Q215 144 215 129 Q215 115 216 107 L101 107 Q102 118 102 131 Q102 144 101 156 L216 156 ZM77 203 Q70 197 61 163 L61 23 Q61 1 62 -21 L43 -21 Q44 0 44 22 L44 130 Q37 116 24 92 Q15 102 8 107 Q17 119 33.5 151 Q50 183 54 210 L77 203 ZM191 59 Q205 59 219 61 L219 43 Q205 44 192 44 L172 44 L172 -2 Q171 -17 161 -20 Q151 -23 134 -25 Q133 -13 126 -2 Q143 -3 148.5 -2 Q154 -1 154 6 L154 44 L131 44 Q116 44 102 43 L102 61 Q116 59 132 59 L191 59 ZM244 94 Q243 86 243.5 76.5 Q244 67 244 61 L227 61 L227 79 L93 79 L93 61 L75 61 Q76 70 76 78 Q76 87 75 94 L244 94 ZM166 212 Q170 201 174 187 L203 187 Q226 187 240 188 L240 171 Q224 172 203 172 L117 172 Q101 172 85 171 L85 188 Q100 187 117 187 L152 187 Q149 198 145 206 Q155 208 166 212 ZM198 122 L198 141 L119 141 L119 122 L198 122 Z" /><glyph glyph-name="uni5065" unicode="&#x5065;" d="M225 184 Q224 171 224 149 Q233 149 243 151 L243 133 Q233 134 224 134 Q224 115 225 100 L183 100 L183 78 L210 78 Q222 79 230 79 L230 61 Q223 63 210 63 L183 63 L183 44 L214 44 Q225 44 234 45 L234 28 Q226 29 214 29 L183 29 L183 1 Q209 -1 244 4 Q238 -6 236 -17 Q198 -18 164.5 -16 Q131 -14 98 8 Q89 -5 74 -23 Q66 -16 58 -12 Q75 3 86 21 Q73 39 66 70 Q74 72 82 75 Q85 55 94 39 Q103 61 104 98 Q84 97 78 93 Q75 101 70 112 Q79 113 85.5 132.5 Q92 152 96 168 Q84 168 72 167 L72 184 Q85 183 94 183 L119 183 Q114 172 97 114 L121 114 Q118 56 106 23 Q129 3 166 1 L166 29 Q148 29 128 28 L128 45 Q148 44 166 44 L166 63 Q151 63 131 61 L131 79 Q151 78 166 78 L166 100 Q149 100 132 99 L132 116 Q150 115 166 115 L166 134 L149 134 Q135 134 125 133 L125 151 Q136 149 150 149 L166 149 L166 169 Q150 169 133 168 L133 185 Q151 184 166 184 Q166 196 165 209 L184 209 Q183 194 183 184 L225 184 ZM68 199 Q61 190 55 164 L55 -21 L37 -21 Q39 -5 39 16 L39 125 Q33 111 24 95 Q18 101 9 108 Q21 124 33 156.5 Q45 189 46 205 Q54 203 68 199 ZM208 149 L208 169 L183 169 L183 149 L208 149 ZM208 115 L208 134 L183 134 L183 115 L208 115 Z" /><glyph glyph-name="uni5076" unicode="&#x5076;" d="M188 40 Q185 45 183 49 Q189 51 198 56 Q206 41 217 20 Q210 17 200 12 Q198 20 195 25 Q136 16 118 12 Q115 23 110 32 Q126 33 153 35 L153 65 L100 65 L100 -21 L81 -21 Q82 -2 82 32 Q82 67 81 82 L153 82 L153 103 L97 103 Q98 116 98 150 Q98 185 97 197 L225 197 Q224 184 224 151 Q224 118 225 103 L170 103 L170 82 L241 82 Q240 69 240 50 L240 -3 Q240 -12 234 -16 Q228 -20 209 -25 Q207 -12 199 -2 Q222 -3 222 5 L222 65 L170 65 L170 37 Q178 38 188 40 ZM9 104 Q20 116 36 147.5 Q52 179 59 208 Q69 203 82 201 Q75 193 62 156 L62 28 Q62 -7 63 -25 L43 -25 Q44 -6 44 29 L44 122 Q38 111 23 90 Q17 100 9 104 ZM153 120 L153 143 L117 143 L117 120 L153 120 ZM205 120 L205 143 L170 143 L170 120 L205 120 ZM153 160 L153 182 L117 182 L117 160 L153 160 ZM205 160 L205 182 L170 182 L170 160 L205 160 Z" /><glyph glyph-name="uni5077" unicode="&#x5077;" d="M120 144 Q111 133 91 116 L156 116 Q155 104 155 85 L155 0 Q155 -18 128 -22 Q125 -10 120 -2 Q137 -2 137 5 L137 29 L108 29 L108 -23 L89 -23 Q90 -7 90 9 L90 84 Q90 103 88 114 L80 107 Q74 117 66 123 Q99 147 119 173 Q139 199 143 212 Q153 207 168 204 L164 198 Q191 158 248 143 Q238 134 233 124 Q218 127 191 145 L191 132 L120 132 L120 144 ZM82 199 Q73 189 58 154 L58 16 Q58 -8 59 -24 L39 -24 Q40 -7 40 14 L40 121 Q34 111 25 94 Q16 103 8 108 Q17 120 32.5 148 Q48 176 57 209 Q66 205 82 199 ZM227 115 Q225 100 225 90 L225 -2 Q225 -11 219 -15.5 Q213 -20 192 -24 Q189 -14 184 -3 Q198 -3 203 -1.5 Q208 0 208 7 L208 90 Q208 100 207 115 L227 115 ZM192 106 Q190 97 190 65 Q190 33 191 20 L172 20 Q173 40 173 64 Q173 89 172 106 L192 106 ZM187 148 Q160 171 154 186 Q140 165 123 148 L187 148 ZM137 80 L137 100 L108 100 L108 80 L137 80 ZM137 44 L137 64 L108 64 L108 44 L137 44 Z" /><glyph glyph-name="uni507F" unicode="&#x507f;" d="M198 67 Q224 67 240 68 L240 51 Q224 52 199 52 L154 52 Q136 23 119 4 Q140 4 194 7 Q188 15 174 32 Q184 38 189 43 Q207 22 215.5 11 Q224 0 234 -13 Q225 -19 215 -25 Q209 -15 204 -8 Q141 -10 93 -16 Q90 -7 86 2 Q98 4 111.5 20.5 Q125 37 132 52 L109 52 Q90 52 77 51 L77 68 Q90 67 109 67 L198 67 ZM83 201 Q77 192 65 161 L65 30 Q65 -5 66 -24 L46 -24 Q47 -4 47 31 L47 122 Q41 110 24 85 Q17 94 10 99 Q22 112 38 144 Q54 176 61 209 Q71 204 83 201 ZM145 143 Q145 193 144 204 L165 204 Q164 193 164 143 L238 143 Q237 132 237 121 Q237 110 238 98 L218 98 L218 128 L94 128 L94 98 L76 98 Q77 109 77 121 Q77 133 76 143 L145 143 ZM166 105 Q185 105 210 106 L210 88 Q185 89 166 89 L136 89 Q117 89 106 88 L106 106 Q116 105 136 105 L166 105 ZM226 186 Q209 164 198 149 Q190 154 182 158 Q198 177 208 197 Q218 190 226 186 ZM103 195 Q120 175 130 161 Q119 154 114 149 Q103 167 89 184 Q96 189 103 195 Z" /><glyph glyph-name="uni5080" unicode="&#x5080;" d="M178 3 Q178 -5 193 -5 L215 -5 Q222 -5 224 -2 Q226 1 228 15 Q238 8 247 6 Q241 -11 237 -15.5 Q233 -20 222 -20 L180 -20 Q161 -20 160 0 L160 80 L158 80 Q144 14 90 -25 Q85 -15 70 -8 Q124 15 139 80 L110 80 L110 65 L90 65 Q92 84 92 121 Q92 159 91 179 L129 179 Q133 191 137 210 Q145 204 159 200 Q154 196 146 179 L219 179 Q218 166 218 130 Q218 94 219 80 L178 80 L178 3 ZM86 199 Q79 191 63 154 L63 27 Q63 -4 66 -24 L44 -24 Q45 -2 45 28 L45 119 Q39 106 27 88 Q19 97 10 103 Q37 137 48.5 166 Q60 195 62 212 Q72 205 86 199 ZM224 26 Q193 19 188 15 Q184 24 180 31 Q185 35 190 44 Q195 53 200 71 Q208 67 216 64 Q212 58 208 50 Q204 42 198 33 L220 37 Q217 42 215 49 Q222 53 228 55 Q235 39 241 25 Q233 22 227 18 Q226 22 224 26 ZM201 134 L201 164 L162 164 L162 134 L201 134 ZM201 94 L201 120 L161 120 Q161 109 159 94 L201 94 ZM110 164 L110 134 L144 134 L144 164 L110 164 ZM141 94 Q143 110 143 120 L110 120 L110 94 L141 94 Z" /><glyph glyph-name="uni5085" unicode="&#x5085;" d="M84 182 Q103 181 114 181 L143 181 Q143 198 142 208 L163 208 Q161 200 161 181 L202 181 Q224 181 237 182 L237 165 Q224 166 203 166 L161 166 L161 151 L222 151 Q221 141 221 110 Q221 80 222 68 L203 68 L203 78 L161 78 Q161 69 162 60 L142 60 Q143 70 143 78 L110 78 L110 61 L91 61 Q92 76 92 107 Q92 139 91 151 L143 151 L143 166 L115 166 Q102 166 84 165 L84 182 ZM11 102 Q22 114 36.5 140.5 Q51 167 60 207 Q70 202 84 198 Q77 190 64 151 L64 30 Q64 -1 65 -21 L45 -21 Q46 -2 46 31 L46 119 Q42 111 27 89 Q21 96 11 102 ZM244 32 Q229 33 214 33 L206 33 L206 2 Q208 -14 197 -18.5 Q186 -23 170 -25 Q167 -15 162 -5 Q178 -5 183 -3.5 Q188 -2 188 10 L188 33 L107 33 Q93 33 75 32 L75 50 Q93 49 107 49 L188 49 Q188 57 187 65 L208 65 Q206 57 206 49 L214 49 Q226 49 244 50 L244 32 ZM144 3 Q134 -2 127 -9 Q123 1 107 18 Q116 24 123 31 Q130 22 134.5 16 Q139 10 144 3 ZM203 93 L203 107 L161 107 L161 93 L203 93 ZM203 122 L203 135 L161 135 L161 122 L203 122 ZM199 212 Q205 204 214 193 Q204 188 195 183 Q189 194 181 201 Q192 207 199 212 ZM143 93 L143 107 L110 107 L110 93 L143 93 ZM143 122 L143 135 L110 135 L110 122 L143 122 Z" /><glyph glyph-name="uni508D" unicode="&#x508d;" d="M162 116 Q169 100 172 88 L216 88 Q234 88 247 89 L247 73 Q233 74 217 74 L148 74 Q147 63 145 53 L220 53 Q215 9 213 -6 Q211 -16 200.5 -20.5 Q190 -25 174 -27 Q172 -16 165 -7 Q191 -8 194 1 Q197 10 199 38 L142 38 Q137 20 126 4.5 Q115 -11 93 -28 Q88 -19 79 -15 Q101 0 114.5 21 Q128 42 129 74 Q99 74 81 73 L81 89 Q100 88 118 88 L152 88 Q149 100 142 109 Q153 112 162 116 ZM87 200 Q79 188 66 154 L66 27 Q66 -9 67 -26 L47 -26 Q48 -8 48 27 L48 120 Q37 101 24 85 Q17 95 9 100 Q22 113 38 143 Q54 173 64 210 Q74 203 87 200 ZM203 158 Q194 144 188 133 L236 133 Q235 128 235 120 Q235 112 236 103 L218 103 L218 119 L109 119 L109 99 L91 99 Q92 106 92 116 Q92 127 91 133 L170 133 Q176 146 182 165 Q192 161 203 158 ZM163 211 Q169 198 172 183 L205 183 Q222 183 234 184 L234 167 Q222 168 206 168 L126 168 Q107 168 94 167 L94 184 Q107 183 126 183 L152 183 Q150 193 145 204 Q159 208 163 211 ZM135 167 Q143 152 148 142 Q140 140 131 135 Q127 148 119 160 Q128 164 135 167 Z" /><glyph glyph-name="uni50A8" unicode="&#x50a8;" d="M165 177 Q165 195 164 207 L183 207 Q182 196 182 177 Q191 177 203 178 L203 161 Q192 162 182 162 L182 126 L189 126 Q211 164 216 185 L238 175 Q231 170 223 153 Q215 136 209 126 L220 126 Q234 126 246 127 L246 109 Q234 111 217 111 L200 111 Q192 101 183 89 L228 89 Q227 74 227 33 Q227 -8 229 -19 L210 -19 L210 -5 L163 -5 L163 -23 L144 -23 Q146 -11 146 58 Q138 52 129 44 Q122 53 115 60 Q131 67 146 78 Q145 85 144 89 L159 89 Q173 102 179 111 L154 111 Q135 111 123 109 L123 127 Q135 126 149 126 L165 126 L165 162 Q149 162 136 161 L136 178 Q149 177 165 177 ZM75 197 Q68 189 57 153 L57 19 Q57 -6 58 -23 L38 -23 Q40 -3 40 17 L40 122 Q33 109 21 90 Q15 100 8 105 Q15 115 30.5 144.5 Q46 174 51 206 Q61 201 75 197 ZM108 126 Q106 114 106 90 L106 28 Q115 34 122 41 Q124 31 128 23 Q102 5 94 -4 Q88 5 82 11 Q90 18 89 31 L89 110 Q78 110 68 109 L68 127 Q81 126 92 126 L108 126 ZM210 10 L210 36 L163 36 L163 10 L210 10 ZM210 51 L210 74 L163 74 L163 51 L210 51 ZM104 190 Q107 181 111 169.5 Q115 158 118 148 Q109 145 100 141 Q97 156 87 184 Q94 186 104 190 Z" /><glyph glyph-name="uni50AC" unicode="&#x50ac;" d="M138 132 Q130 125 122 113 L209 113 Q225 113 237 114 L237 97 Q225 98 209 98 L180 98 L180 81 L203 81 Q217 81 228 82 L228 65 Q215 66 204 66 L180 66 L180 46 L201 46 Q215 46 228 47 L228 30 Q216 31 201 31 L180 31 L180 9 L209 9 Q227 9 241 10 L241 -7 Q227 -6 209 -6 L121 -6 L121 -20 L102 -20 Q103 -6 103 17 L103 89 Q99 80 84 63 Q76 72 68 77 Q92 95 118 143 Q128 137 138 132 ZM84 197 Q76 188 65 159 L65 21 Q65 -6 66 -23 L46 -23 Q47 -4 47 20 L47 127 Q35 109 24 93 Q17 99 7 105 Q24 123 40 152 Q56 181 62 208 Q72 202 84 197 ZM121 190 Q120 182 120 162 L158 162 Q158 192 157 204 L177 204 Q176 193 176 162 L213 162 Q213 181 212 191 L232 191 Q231 179 231 167 Q231 155 232 147 L101 147 Q102 157 102 168 Q102 179 101 190 L121 190 ZM162 9 L162 31 L121 31 L121 9 L162 9 ZM162 46 L162 66 L121 66 L121 46 L162 46 ZM162 81 L162 98 L121 98 L121 81 L162 81 ZM173 145 Q181 135 187 123 Q177 119 169 114 Q164 125 156 136 Q164 140 173 145 Z" /><glyph glyph-name="uni50B2" unicode="&#x50b2;" d="M106 173 Q106 192 105 203 L123 203 Q122 196 122 173 Q142 173 156 174 L156 158 Q141 159 122 159 L122 139 Q140 139 147 140 L147 124 Q141 125 122 125 L122 104 Q138 104 157 105 L157 89 Q137 90 108 90 Q107 78 106 69 L152 69 Q147 16 145 6 Q142 -4 134 -7 Q126 -10 108 -13 Q107 -3 101 8 Q126 7 128.5 13 Q131 19 134 55 L105 55 Q98 12 73 -17 Q67 -9 58 -4 Q91 23 91 90 Q80 90 67 89 L67 105 Q79 104 106 104 L106 125 Q91 125 77 124 L77 140 Q90 139 106 139 L106 159 Q86 159 71 158 L71 174 Q86 173 106 173 ZM200 201 Q195 193 192.5 185.5 Q190 178 183 156 L219 156 Q234 156 243 157 L243 140 Q234 141 227 141 Q225 76 207 31 Q225 6 247 -9 Q239 -14 231 -24 Q209 -2 197 16 Q179 -5 151 -26 Q146 -18 136 -12 Q169 5 187 32 Q173 63 165 110 L182 114 Q186 78 197 48 Q209 87 210 141 L178 141 Q174 131 162 108 Q160 110 146 116 Q170 154 178 208 Q190 203 200 201 ZM76 200 Q71 192 67 182 Q63 172 56 154 L56 30 Q56 -5 57 -24 L39 -24 Q40 -4 40 30 L40 122 Q33 110 22 93 Q15 101 8 105 Q26 129 38 156.5 Q50 184 56 209 Q68 202 76 200 Z" /><glyph glyph-name="uni50BB" unicode="&#x50bb;" d="M163 208 Q155 200 152 188 L230 188 Q229 171 229 145 Q229 119 230 104 L192 104 Q206 97 220 91 Q234 85 246 79 Q240 73 234 63 Q220 73 176 92 Q182 98 187 104 L123 104 Q128 100 139 94 Q131 91 116.5 79.5 Q102 68 89 59 Q81 67 73 72 Q94 81 118 104 L92 104 Q93 121 93 147 Q93 174 92 188 L134 188 Q138 202 139 212 L163 208 ZM159 78 Q152 73 147 67 L219 67 Q204 29 185 13 Q213 -1 245 -1 Q236 -12 234 -23 Q198 -17 170 1 Q138 -20 93 -27 Q89 -17 80 -9 Q123 -7 154 11 Q140 21 127 41 Q115 27 102 17 Q95 24 85 29 Q123 56 137 88 L159 78 ZM210 119 L210 173 L111 173 L111 119 L210 119 ZM78 201 Q70 195 61 165 L61 21 Q61 -4 62 -24 L42 -24 Q43 -3 43 19 L43 128 Q38 116 25 93 Q17 101 8 105 Q18 116 33.5 149.5 Q49 183 54 210 Q65 205 78 201 ZM196 158 Q185 154 176 148 Q190 142 201 135 Q193 129 187 122 Q180 130 164 138 Q146 130 133 120 Q129 128 119 133 Q136 139 147 146 Q138 152 123 157 Q131 162 136 169 Q150 163 162 156 Q171 161 180 170 L196 158 ZM170 21 Q185 34 192 51 L140 51 Q156 28 170 21 Z" /><glyph glyph-name="uni50CF" unicode="&#x50cf;" d="M152 201 Q143 195 135 183 L199 183 Q194 173 184 152 L229 152 Q228 137 228 126 Q228 115 229 102 L158 102 Q152 97 148 93 Q160 84 169 70 Q191 81 206 96 Q210 90 222 82 Q210 75 198 67 Q212 29 242 15 Q229 8 225 1 Q197 23 184 61 Q182 59 176 56 Q181 44 182 30.5 Q183 17 181 4 Q179 -9 169.5 -17 Q160 -25 141 -28 Q139 -18 131 -8 Q155 -9 161 1.5 Q167 12 164 37 Q127 4 92 -12 Q89 -2 78 4 Q116 15 158 53 Q155 61 152 66 Q118 35 88 21 Q83 30 75 36 Q108 45 142 77 L135 84 Q108 66 88 57 Q84 67 75 74 Q112 85 134 102 L95 102 Q96 112 96 140 Q92 135 86 130 Q80 137 71 143 Q88 156 104 174.5 Q120 193 127 211 Q143 203 152 201 ZM81 199 Q73 191 60 153 L60 25 Q60 -4 61 -22 L41 -22 Q43 -3 43 24 L43 122 Q30 101 24 91 Q15 100 8 105 Q22 120 35 147 Q48 174 56 209 Q65 205 81 199 ZM210 116 L210 138 L169 138 Q166 127 162 116 L210 116 ZM165 152 Q168 159 172 169 L125 169 Q118 162 110 152 L165 152 ZM144 116 Q148 128 151 138 L114 138 L114 116 L144 116 Z" /><glyph glyph-name="uni50DA" unicode="&#x50da;" d="M171 204 Q164 194 160 182 L204 182 Q223 182 237 183 L237 165 Q224 167 205 167 L173 167 Q182 145 192 136 Q205 150 212 161 Q219 154 229 147 Q219 141 204 125 Q222 112 248 108 Q243 98 239 87 Q223 93 213 99 L213 42 L168 42 L168 5 Q169 -14 161 -19.5 Q153 -25 131 -28 Q129 -14 123 -4 Q144 -5 146.5 -3 Q149 -1 149 8 L149 42 L98 42 Q99 52 99 96 Q90 89 81 84 Q74 93 65 101 Q84 105 107 125 Q98 133 87 140 Q94 148 99 154 Q111 145 118 137 Q128 150 135 167 L119 167 Q98 167 84 165 L84 183 Q99 182 118 182 L140 182 Q144 194 146 212 Q158 207 171 204 ZM83 200 Q75 193 61 155 L61 26 Q61 -9 63 -27 L42 -27 Q44 -8 44 28 L44 122 Q38 111 26 92 Q18 99 9 104 Q19 117 36 148 Q53 179 58 211 Q67 206 83 200 ZM195 57 L195 73 L116 73 L116 57 L195 57 ZM184 119 Q165 139 157 166 L154 166 Q139 133 124 119 L184 119 ZM195 88 L195 103 L116 103 L116 88 L195 88 ZM131 20 Q122 12 90 -21 Q84 -12 75 -6 Q99 13 112 34 Q119 28 131 20 ZM197 33 Q208 23 218.5 15 Q229 7 238 0 Q229 -8 222 -16 Q213 -5 183 17 Q190 23 197 33 Z" /><glyph glyph-name="uni50E7" unicode="&#x50e7;" d="M216 202 Q209 196 205 187.5 Q201 179 198 172 L237 172 Q236 149 236 124 Q236 100 237 89 L91 89 Q93 102 93 130 Q93 159 92 172 L179 172 Q189 199 190 212 L216 202 ZM222 75 Q221 59 221 24 Q221 -11 222 -24 L203 -24 L203 -11 L126 -11 L126 -26 L107 -26 Q108 -14 108 23 Q108 60 107 75 L222 75 ZM88 202 Q78 191 65 156 L65 22 Q65 -4 66 -25 L45 -25 Q46 1 46 21 L46 127 Q38 107 24 89 Q16 97 8 101 Q19 112 37 145.5 Q55 179 63 211 Q74 206 88 202 ZM218 104 L218 156 L171 156 L171 104 L218 104 ZM153 104 L153 156 L111 156 L111 104 L153 104 ZM203 39 L203 59 L126 59 L126 39 L203 39 ZM203 4 L203 23 L126 23 L126 4 L203 4 ZM139 211 Q149 197 156 186 Q144 180 138 175 Q134 185 123 200 Q132 205 139 211 ZM208 145 Q206 138 204.5 131 Q203 124 201 115 Q190 117 183 117 Q188 137 189 147 Q199 146 208 145 ZM137 145 Q141 131 144 119 Q135 117 127 115 Q125 127 121 141 Q129 142 137 145 Z" /><glyph glyph-name="uni50F5" unicode="&#x50f5;" d="M228 73 Q226 60 226 41 Q226 22 228 8 L93 8 Q94 19 94 41 Q94 63 93 73 L228 73 ZM225 174 Q224 158 224 141 Q224 124 225 109 L92 109 Q93 121 93 142 Q93 163 92 174 L225 174 ZM73 201 Q65 194 59 170 L59 18 Q59 -9 61 -25 L40 -25 Q41 -8 41 18 L41 130 Q29 105 24 96 Q17 104 8 110 Q15 119 28.5 148.5 Q42 178 48 209 Q57 205 73 201 ZM217 -4 Q232 -4 244 -3 L244 -20 Q232 -19 215 -19 L114 -19 Q92 -19 77 -20 L77 -3 Q92 -4 114 -4 L217 -4 ZM212 98 Q230 98 242 99 L242 82 Q229 83 212 83 L111 83 Q92 83 78 82 L78 99 Q92 98 111 98 L212 98 ZM208 198 Q227 198 239 199 L239 183 Q225 184 208 184 L112 184 Q94 184 78 182 L78 199 Q93 198 112 198 L208 198 ZM206 148 L206 160 L166 160 L166 148 L206 148 ZM206 123 L206 135 L166 135 L166 123 L206 123 ZM208 23 L208 35 L169 35 L169 23 L208 23 ZM151 23 L151 35 L112 35 L112 23 L151 23 ZM149 123 L149 135 L111 135 L111 123 L149 123 ZM149 148 L149 160 L111 160 L111 148 L149 148 ZM208 49 L208 60 L169 60 L169 49 L208 49 ZM151 49 L151 60 L112 60 L112 49 L151 49 Z" /><glyph glyph-name="uni50FB" unicode="&#x50fb;" d="M100 120 Q99 109 97 94 L150 94 Q149 78 149 49 Q149 21 150 1 L133 1 L133 19 L108 19 L108 -7 L90 -7 Q91 8 91 78 Q85 56 78 40 Q71 49 63 54 Q80 87 81.5 129 Q83 171 82 194 L147 194 Q146 182 146 159 Q146 137 147 120 L100 120 ZM217 148 Q223 145 237 140 Q232 131 220 99 Q233 99 248 100 L248 83 Q231 84 206 84 L206 50 Q232 50 242 51 L242 33 Q231 34 206 34 L206 3 Q206 -14 207 -26 L188 -26 Q189 -14 189 3 L189 34 Q174 34 159 33 L159 51 Q173 50 189 50 L189 84 Q169 84 154 83 L154 100 Q167 99 187 99 L203 99 Q214 131 217 148 ZM9 104 Q19 117 33.5 148.5 Q48 180 52 205 Q64 200 76 198 Q69 193 57 153 L57 23 Q57 2 58 -16 L39 -16 Q40 3 40 23 L40 120 Q35 109 24 92 Q17 100 9 104 ZM129 135 L129 179 L101 179 L101 135 L129 135 ZM237 155 Q224 156 208 156 L187 156 Q173 156 161 155 L161 172 Q173 171 187 171 L208 171 Q224 171 237 172 L237 155 ZM133 34 L133 79 L108 79 L108 34 L133 34 ZM177 106 Q173 121 164 140 Q171 143 178 147 Q189 127 194 115 Q185 111 177 106 ZM192 212 Q201 198 207 186 Q196 181 190 177 Q185 191 177 204 Q185 208 192 212 Z" /><glyph glyph-name="uni5112" unicode="&#x5112;" d="M190 -7 Q210 -6 211.5 -4 Q213 -2 213 7 L213 39 L184 39 L184 -11 L167 -11 L167 39 L145 39 L145 -16 L127 -16 L127 39 L104 39 L104 -26 L84 -26 Q86 -4 86 16 Q86 36 84 54 L142 54 Q145 65 147 73 L115 73 Q96 73 79 72 L79 89 Q94 88 115 88 L198 88 Q216 88 236 89 L236 72 Q218 73 197 73 L166 73 Q162 64 160 54 L232 54 Q231 41 231 31 L231 -9 Q230 -18 223.5 -21 Q217 -24 201 -26 Q199 -16 190 -7 ZM193 199 Q210 199 228 200 L228 184 Q209 185 193 185 L166 185 L166 167 L240 167 Q239 159 239 149 Q239 139 240 127 L222 127 L222 153 L166 153 L166 104 L149 104 L149 153 L95 153 L95 125 L77 125 Q78 137 78 147 Q78 158 77 167 L149 167 L149 185 L125 185 Q104 185 92 184 L92 200 Q105 199 125 199 L193 199 ZM82 199 Q74 189 60 158 L60 25 Q60 -4 61 -27 L42 -27 Q43 -5 43 26 L43 122 Q38 114 19 87 Q14 97 8 104 Q20 119 37.5 152.5 Q55 186 61 210 Q70 204 82 199 ZM219 103 L180 103 L180 116 L219 116 L219 103 ZM134 103 L97 103 L97 116 L134 116 L134 103 ZM211 127 L180 127 L180 139 L211 139 L211 127 ZM134 127 L107 127 L107 139 L134 139 L134 127 Z" /><glyph glyph-name="uni5121" unicode="&#x5121;" d="M220 198 Q219 183 219 152 Q219 122 220 108 L92 108 Q93 123 93 149 Q93 176 92 198 L220 198 ZM149 90 Q148 70 148 32 Q148 -6 149 -23 L132 -23 L132 -10 L86 -10 L86 -23 L68 -23 Q70 -5 70 31 Q70 68 69 90 L149 90 ZM237 90 Q236 61 236 26 Q236 -8 237 -23 L220 -23 L220 -10 L175 -10 L175 -23 L158 -23 Q159 -8 159 34 Q159 76 158 90 L237 90 ZM23 85 Q18 93 8 102 Q19 114 33.5 142 Q48 170 55 204 Q62 200 79 195 Q71 186 59 147 L59 11 Q59 -9 60 -26 L39 -26 Q41 -10 41 9 L41 114 Q32 98 23 85 ZM148 160 L148 182 L110 182 L110 160 L148 160 ZM202 160 L202 182 L165 182 L165 160 L202 160 ZM148 123 L148 144 L110 144 L110 123 L148 123 ZM202 123 L202 144 L165 144 L165 123 L202 123 ZM102 46 L102 74 L86 74 L86 46 L102 46 ZM102 5 L102 32 L86 32 L86 5 L102 5 ZM190 46 L190 74 L175 74 L175 46 L190 46 ZM132 46 L132 74 L117 74 L117 46 L132 46 ZM220 46 L220 74 L205 74 L205 46 L220 46 ZM190 5 L190 32 L175 32 L175 5 L190 5 ZM132 5 L132 32 L117 32 L117 5 L132 5 ZM220 6 L220 32 L205 32 L205 6 L220 6 Z" /><glyph glyph-name="uni513F" unicode="&#x513f;" d="M171 200 Q169 186 169 159 L169 25 Q169 9 185 9 L205 9 Q217 9 219.5 17.5 Q222 26 223 42 Q234 30 248 28 Q241 9 236 -0.5 Q231 -10 213 -11 L176 -11 Q149 -11 149 17 L149 160 Q149 185 148 200 L171 200 ZM78 198 Q93 197 104 197 Q101 162 100.5 125 Q100 88 88 54 Q76 20 31 -21 Q22 -12 9 -4 Q51 26 64.5 55 Q78 84 79.5 124.5 Q81 165 78 198 Z" /><glyph glyph-name="uni5141" unicode="&#x5141;" d="M206 91 Q198 102 193 108 Q167 106 160 106 L160 13 Q160 -2 176 -3 L201 -3 Q209 -3 212.5 2 Q216 7 219 28 Q232 18 242 16 Q232 -16 220 -18.5 Q208 -21 189 -21 Q171 -21 156 -19 Q141 -17 140 6 L140 104 Q122 102 107 101 Q105 39 87.5 15 Q70 -9 35 -27 Q30 -18 17 -10 Q45 -2 65 21 Q85 44 86 99 Q62 97 45 92 Q41 104 35 114 Q48 118 68.5 145.5 Q89 173 100 204 Q110 198 124 193 Q114 182 101.5 162.5 Q89 143 67 116 Q97 116 182 123 Q171 138 154 156 Q162 162 169 168 Q209 122 223 105 Q216 99 206 91 Z" /><glyph glyph-name="uni5143" unicode="&#x5143;" d="M196 127 Q208 127 226 128 L226 107 Q208 108 196 108 L163 108 L163 17 Q163 3 178 3 L207 3 Q217 3 221 31 Q232 24 243 22 Q238 -13 212 -15 L166 -15 Q143 -15 143 9 L143 108 L107 108 Q111 16 36 -24 Q29 -15 16 -7 Q90 20 86 108 L60 108 Q45 108 26 107 L26 128 Q45 127 60 127 L196 127 ZM178 191 Q187 191 206 192 L206 173 Q188 174 178 174 L75 174 Q63 174 48 173 L48 192 Q63 191 74 191 L178 191 Z" /><glyph glyph-name="uni5144" unicode="&#x5144;" d="M203 194 Q202 181 202 146 Q202 112 203 98 L161 98 L161 19 Q161 2 179 2 L203 2 Q216 2 218 10 Q220 18 222 35 Q232 31 245 28 Q240 4 236 -5.5 Q232 -15 220 -15 L166 -15 Q141 -15 141 8 L141 98 L107 98 Q107 15 27 -19 Q23 -9 13 3 Q87 24 87 98 L52 98 Q53 113 53 147 Q53 181 52 194 L203 194 ZM183 114 L183 178 L72 178 L72 114 L183 114 Z" /><glyph glyph-name="uni5145" unicode="&#x5145;" d="M133 207 Q137 193 144 172 L196 172 Q217 172 231 173 L231 153 Q221 154 197 154 L107 154 Q114 148 124 142 Q111 136 75 107 L179 110 Q171 119 156 131 Q166 138 171 144 Q210 111 225 94 Q216 88 208 79 Q200 89 192 97 Q179 96 164 95 L164 13 Q164 0 177 0 L205 0 Q213 0 215 7 Q217 14 219 32 Q234 25 243 24 Q235 -10 228 -14 Q221 -18 211 -18 L169 -18 Q146 -18 146 3 L146 93 L106 90 Q107 -3 32 -26 Q26 -15 16 -9 Q89 11 87 88 Q62 86 47 82 Q44 98 41 109 Q63 115 76 128 Q89 141 99 154 L58 154 Q41 154 23 153 L23 173 Q41 172 58 172 L120 172 Q115 189 110 201 Q123 204 133 207 Z" /><glyph glyph-name="uni5146" unicode="&#x5146;" d="M18 -5 Q85 13 89 84 Q79 79 60 67 Q41 55 27 45 L13 66 Q35 73 89 104 L89 174 Q89 188 87 203 L109 203 Q108 193 108 172 L108 83 Q105 9 32 -24 Q26 -15 18 -5 ZM243 23 Q233 -7 226 -11 Q219 -15 197 -15 L167 -15 Q137 -15 137 10 L137 170 Q137 194 136 204 L157 204 Q156 192 156 170 L156 25 Q156 4 175 4 L200 4 Q211 4 215 11 Q219 18 221 34 Q230 28 243 23 ZM176 98 Q187 91 203.5 82.5 Q220 74 233 66 Q225 57 220 47 Q207 58 164 80 Q170 88 176 98 ZM167 130 Q199 161 207 177 Q215 169 227 161 Q216 153 203 140.5 Q190 128 181 118 Q174 125 167 130 ZM35 171 Q44 163 55 151.5 Q66 140 72 133 Q64 125 56 118 Q47 130 21 157 Q26 164 35 171 Z" /><glyph glyph-name="uni5148" unicode="&#x5148;" d="M85 189 Q80 183 77 175.5 Q74 168 70 159 L118 159 Q118 189 117 203 L140 203 Q139 191 139 159 L173 159 Q193 159 212 160 L212 140 Q194 141 174 141 L139 141 L139 102 L208 102 Q227 102 242 103 L242 83 Q227 84 208 84 L167 84 L167 12 Q166 -3 180 -3 L200 -3 Q209 -3 212.5 5 Q216 13 217 29 Q229 20 242 19 Q233 -10 226.5 -15 Q220 -20 210 -21 L172 -21 Q149 -21 147 1 L147 84 L107 84 Q103 9 34 -26 Q28 -18 14 -9 Q79 9 86 84 L49 84 Q28 84 14 83 L14 103 Q29 102 49 102 L118 102 L118 141 L63 141 Q59 132 47 110 Q39 117 27 119 Q51 154 61 197 Q73 192 85 189 Z" /><glyph glyph-name="uni5149" unicode="&#x5149;" d="M242 92 Q231 93 206 93 L162 93 L162 16 Q162 2 177 2 L199 2 Q212 2 215 8.5 Q218 15 220 34 Q230 25 244 21 Q240 7 233.5 -4 Q227 -15 213 -15 L164 -15 Q142 -15 142 7 L142 93 L111 93 Q113 5 23 -23 Q16 -11 9 -2 Q49 6 69.5 27.5 Q90 49 91 93 L58 93 Q25 93 15 92 L15 111 Q25 110 57 110 L118 110 L118 172 Q118 190 117 206 L141 206 Q139 196 139 172 L139 110 L206 110 Q229 110 242 111 L242 92 ZM164 133 Q188 162 195 183 Q208 175 219 171 Q212 164 203 150.5 Q194 137 183 122 Q172 128 164 133 ZM71 120 Q64 135 41 166 Q51 172 62 178 Q72 164 78.5 154 Q85 144 92 132 Q81 127 71 120 Z" /><glyph glyph-name="uni514B" unicode="&#x514b;" d="M197 177 Q212 177 230 178 L230 159 Q212 160 197 160 L137 160 L137 132 L205 132 Q204 118 204 99 Q204 80 205 60 L159 60 L159 8 Q159 -2 171 -2 L202 -2 Q209 -2 212 4 Q215 10 215 25 Q228 17 239 14 Q234 -7 226.5 -13.5 Q219 -20 204 -19 L162 -19 Q140 -19 139 1 L139 60 L113 60 Q108 -1 36 -25 Q32 -12 22 -3 Q90 13 92 60 L48 60 Q49 78 49 96 Q49 114 48 132 L119 132 L119 160 L63 160 Q46 160 25 159 L25 178 Q46 177 62 177 L119 177 Q119 197 118 207 L139 207 Q137 197 137 177 L197 177 ZM185 77 L185 116 L69 116 L69 77 L185 77 Z" /><glyph glyph-name="uni514D" unicode="&#x514d;" d="M153 10 Q153 -5 169 -5 L204 -5 Q214 -5 217 0.5 Q220 6 221 24 Q231 16 244 13 Q237 -10 231 -15.5 Q225 -21 211 -22 L160 -22 Q134 -22 134 3 L134 65 L129 65 Q109 10 35 -25 Q30 -16 19 -7 Q88 16 109 65 L67 65 L67 54 L47 54 Q48 71 48 128 Q40 122 29 114 Q23 124 14 131 Q44 147 65.5 170.5 Q87 194 94 210 Q103 204 116 200 Q110 194 99 180 L186 180 Q181 171 158 137 L214 137 Q213 125 213 102 Q213 80 214 65 L153 65 L153 10 ZM194 80 L194 121 L140 121 Q137 102 133 80 L194 80 ZM113 80 Q117 92 120 121 L67 121 L67 80 L113 80 ZM137 137 Q143 146 154 165 L86 165 Q69 147 58 137 L137 137 Z" /><glyph glyph-name="uni5151" unicode="&#x5151;" d="M162 68 L162 10 Q163 -5 180 -4 L204 -4 Q216 -4 219 1 Q222 6 224 22 Q234 15 247 14 Q243 -1 237.5 -10.5 Q232 -20 215 -21 L166 -21 Q142 -21 142 2 L142 68 L109 68 Q106 -4 30 -27 Q26 -18 18 -8 Q87 5 89 68 L45 68 Q46 84 46 110 Q46 136 45 153 L140 153 Q162 191 168 210 Q177 203 190 197 Q182 190 159 153 L207 153 Q206 137 206 110 Q206 84 207 68 L162 68 ZM186 85 L186 135 L66 135 L66 85 L186 85 ZM62 197 Q70 203 75 209 Q97 186 109 170 Q101 165 93 157 Q81 176 62 197 Z" /><glyph glyph-name="uni5154" unicode="&#x5154;" d="M154 26 Q154 10 157 5 Q160 0 174 0 L208 0 Q223 0 225 22 Q235 15 247 12 Q241 -9 233 -14 Q225 -19 211 -19 L160 -19 Q136 -19 134 0 L134 69 Q111 6 30 -28 Q24 -19 13 -10 Q85 10 112 69 L66 69 L66 57 L45 57 Q46 73 46 126 Q37 117 27 108 Q18 117 9 122 Q54 158 81 209 L107 199 Q96 192 91 181 L189 181 Q182 171 160 136 L217 136 Q216 124 216 103 Q216 82 217 69 L154 69 L154 26 ZM137 136 Q142 143 154 164 L79 164 Q64 145 54 136 L137 136 ZM197 87 L197 119 L142 119 Q139 103 137 87 L197 87 ZM117 87 Q120 103 120 119 L66 119 L66 87 L117 87 ZM181 57 Q198 44 214 25 Q206 19 199 13 Q184 32 168 44 Q174 49 181 57 Z" /><glyph glyph-name="uni515A" unicode="&#x515a;" d="M197 115 Q196 102 196 85 Q196 68 197 54 L159 54 L159 11 Q158 -1 173 -1 L203 -1 Q212 -1 214 4.5 Q216 10 218 29 Q230 20 242 19 Q237 -4 231 -11.5 Q225 -19 209 -19 L163 -19 Q140 -19 140 1 L140 54 L109 54 Q107 16 85 0.5 Q63 -15 29 -25 Q24 -13 16 -4 Q56 3 72 14.5 Q88 26 89 54 L59 54 Q60 69 60 86 Q60 104 59 115 L197 115 ZM116 153 Q116 189 115 206 L138 206 Q137 189 137 153 L166 153 Q183 188 186 200 Q196 194 210 190 Q202 179 186 153 L236 153 Q235 145 235 129 Q235 114 236 109 L215 109 L215 138 L42 138 L42 106 L20 106 Q22 113 22 129 Q22 146 21 153 L116 153 ZM176 69 L176 100 L80 100 L80 69 L176 69 ZM62 199 Q69 192 89 168 Q80 163 72 155 Q53 180 44 186 Q54 192 62 199 Z" /><glyph glyph-name="uni515C" unicode="&#x515c;" d="M143 205 Q137 193 133 179 L166 179 Q165 166 165 134 Q165 102 166 86 L87 86 Q89 107 89 135 Q89 164 87 179 L114 179 Q118 198 118 210 Q130 207 143 205 ZM27 187 Q59 191 69 197 Q74 187 80 177 Q65 176 49 174 L49 102 Q57 104 76 110 Q74 100 74 88 Q48 84 28 73 Q24 85 19 93 Q28 98 30 110 L30 162 Q29 180 27 187 ZM164 69 Q162 58 162 41 L162 15 Q162 1 178 1 L207 1 Q214 1 218.5 8.5 Q223 16 225 35 Q235 24 247 21 Q237 -8 231 -11.5 Q225 -15 207 -15 L165 -15 Q144 -15 144 5 L144 41 Q144 57 143 69 L164 69 ZM225 189 Q224 177 224 136 Q224 95 225 82 L196 82 Q187 82 177 81 L177 99 Q191 98 205 98 L205 173 Q189 173 179 172 L179 190 Q185 189 192 189 L225 189 ZM87 69 Q98 67 113 65 Q110 18 87.5 1 Q65 -16 25 -25 Q21 -15 10 -5 Q49 1 70 13.5 Q91 26 87 69 ZM148 101 L148 126 L106 126 L106 101 L148 101 ZM148 141 L148 164 L106 164 L106 141 L148 141 Z" /><glyph glyph-name="uni5162" unicode="&#x5162;" d="M168 173 Q168 196 166 207 L188 207 Q186 198 186 173 Q221 173 233 175 L233 156 Q222 158 186 158 L186 130 L224 130 Q222 116 222.5 99.5 Q223 83 224 71 L202 71 L202 9 Q202 -1 213 -1 Q224 -1 225.5 2 Q227 5 228 19 Q238 10 247 9 Q243 -8 239 -13 Q235 -18 223 -18 L202 -18 Q184 -18 184 -2 L184 71 L171 71 Q171 4 123 -27 Q116 -17 108 -12 Q156 18 153 71 L133 71 Q134 86 134 101 Q134 117 133 130 L168 130 L168 158 Q138 158 126 157 L126 174 Q137 173 168 173 ZM59 173 Q59 195 58 205 L79 205 Q78 197 77 173 Q103 173 114 174 L114 157 Q103 158 77 158 L77 130 L110 130 Q109 116 109 100 Q109 85 111 71 L94 71 L94 24 Q107 37 113 45 Q116 35 122 27 Q113 21 103.5 11.5 Q94 2 86 -7 Q80 3 73 8 Q77 13 77 22 L77 71 L63 71 Q62 14 25 -20 Q17 -13 8 -7 Q46 21 45 71 L26 71 Q28 86 27.5 103.5 Q27 121 26 130 L59 130 L59 158 Q26 158 17 156 L17 174 Q28 173 59 173 ZM205 86 L205 115 L152 115 L152 86 L205 86 ZM92 86 L92 115 L45 115 L45 86 L92 86 Z" /><glyph glyph-name="uni5165" unicode="&#x5165;" d="M226 -15 Q202 1 180 26 Q158 51 131 122 Q103 39 27 -19 Q23 -9 9 2 Q74 33 119 141 Q116 149 101 165 Q86 181 70 187 Q81 196 87 205 Q112 186 127 169 Q142 152 165 95 Q188 38 245 10 Q231 0 226 -15 Z" /><glyph glyph-name="uni5168" unicode="&#x5168;" d="M139 193 Q174 137 245 121 Q236 110 233 98 Q213 106 199 115 L199 99 Q188 100 164 100 L140 100 L140 60 L178 60 Q199 60 212 61 L212 43 Q199 44 178 44 L140 44 L140 -1 L179 -1 Q209 -1 228 1 L228 -20 Q210 -17 181 -17 L71 -17 Q41 -17 26 -18 L26 0 Q41 -1 71 -1 L120 -1 L120 44 L92 44 Q58 44 47 43 L47 61 Q58 60 91 60 L120 60 L120 100 L100 100 Q69 100 60 99 L60 115 Q51 108 26 94 Q20 106 12 115 Q36 121 68 145 Q100 169 119 208 Q131 203 144 198 L139 193 ZM66 118 Q78 117 101 117 L161 117 Q181 117 192 118 Q149 140 128 182 Q101 141 66 118 Z" /><glyph glyph-name="uni516B" unicode="&#x516b;" d="M171 199 Q171 150 185.5 92.5 Q200 35 244 -4 Q233 -6 221 -18 Q199 9 184 38 Q170 68 162.5 105 Q155 142 148 199 Q160 198 171 199 ZM106 180 Q104 176 93 113 Q83 66 69.5 39.5 Q56 13 30 -16 Q26 -10 10 -1 Q47 28 64 79.5 Q81 131 82 187 Q93 182 106 180 Z" /><glyph glyph-name="uni516C" unicode="&#x516c;" d="M178 22 Q170 36 156 54 Q166 60 173 66 Q188 44 201 22.5 Q214 1 221 -12 Q210 -18 202 -23 Q196 -11 186 6 Q119 -3 91.5 -7 Q64 -11 52 -16 Q49 -6 41 6 Q51 10 60 20 Q69 30 86.5 62 Q104 94 111 118 Q126 109 134 107 Q123 90 104.5 56 Q86 22 78 12 Q124 16 178 22 ZM161 208 Q180 157 201.5 131 Q223 105 245 93 Q231 86 226 76 Q196 101 175 134 Q154 167 141 201 Q152 203 161 208 ZM109 191 Q90 151 70 121 Q50 91 29 71 Q21 82 12 87 Q33 103 56 136 Q79 169 89 200 Q96 195 109 191 Z" /><glyph glyph-name="uni516D" unicode="&#x516d;" d="M204 137 Q225 137 239 139 L239 116 Q225 117 205 117 L61 117 Q40 117 19 116 L19 139 Q40 137 60 137 L204 137 ZM112 78 Q92 49 72.5 21.5 Q53 -6 39 -19 Q31 -12 18 -3 Q44 21 63.5 49.5 Q83 78 87 93 Q99 84 112 78 ZM169 94 Q187 68 199.5 52 Q212 36 234 1 Q221 -6 213 -13 Q199 12 184 33 Q169 54 149 79 Q159 86 169 94 ZM116 203 Q137 177 150 155 Q139 150 129 143 Q115 170 98 190 Q109 197 116 203 Z" /><glyph glyph-name="uni5170" unicode="&#x5170;" d="M198 195 Q188 183 179 169.5 Q170 156 163 144 L191 144 Q215 144 227 145 L227 125 Q217 126 192 126 L71 126 Q45 126 30 125 L30 145 Q45 144 72 144 L141 144 Q147 153 156.5 169.5 Q166 186 175 208 Q181 202 198 195 ZM198 8 Q222 8 240 9 L240 -11 Q220 -10 198 -10 L59 -10 Q34 -10 18 -11 L18 9 Q35 8 59 8 L198 8 ZM174 77 Q199 77 213 78 L213 58 Q198 59 176 59 L82 59 Q61 59 43 58 L43 78 Q61 77 78 77 L174 77 ZM73 205 Q93 186 112 164 Q103 158 94 150 Q76 174 58 191 Q65 196 73 205 Z" /><glyph glyph-name="uni5171" unicode="&#x5171;" d="M81 148 Q81 188 80 200 L104 200 Q102 188 102 148 L157 148 Q157 189 156 201 L180 201 Q178 189 178 148 L198 148 Q216 148 229 149 L229 131 Q216 132 198 132 L178 132 L178 74 L212 74 Q230 74 242 75 L242 57 Q231 58 213 58 L43 58 Q24 58 13 57 L13 75 Q24 74 43 74 L81 74 L81 132 L64 132 Q40 132 28 131 L28 149 Q41 148 65 148 L81 148 ZM157 74 L157 132 L102 132 L102 74 L157 74 ZM115 29 Q101 22 78.5 5.5 Q56 -11 34 -21 Q27 -11 18 -4 Q39 5 57.5 16.5 Q76 28 93 45 Q104 36 115 29 ZM162 45 Q174 38 197 24 Q220 10 237 -4 Q228 -11 221 -20 Q204 -7 183.5 6.5 Q163 20 147 28 Q155 36 162 45 Z" /><glyph glyph-name="uni5173" unicode="&#x5173;" d="M187 194 Q181 187 174.5 175 Q168 163 163 153 L185 153 Q206 153 222 154 L222 135 Q209 136 188 136 L136 136 L136 86 L199 86 Q219 86 235 87 L235 68 Q219 69 201 69 L140 69 Q170 18 240 3 Q231 -7 224 -21 Q161 0 129 52 Q112 8 35 -24 Q31 -14 20 -6 Q97 15 115 69 L62 69 Q39 69 24 68 L24 86 Q35 85 58 85 L117 85 L117 136 L70 136 Q51 136 36 135 L36 154 Q51 153 71 153 L143 153 Q157 185 163 206 Q173 200 187 194 ZM85 205 Q98 189 112 167 Q100 161 93 155 Q81 178 69 193 Q78 199 85 205 Z" /><glyph glyph-name="uni5174" unicode="&#x5174;" d="M219 186 Q206 166 194 139 Q182 112 175 97 L197 97 Q221 97 236 98 L236 78 Q222 79 198 79 L56 79 Q33 79 17 78 L17 98 Q32 97 55 97 L152 97 Q170 126 180 154 Q190 182 193 195 Q205 190 219 186 ZM154 61 Q176 45 196 29 Q216 13 235 -3 Q225 -9 216 -20 Q200 -3 179 14 Q158 31 141 44 Q148 53 154 61 ZM107 46 Q94 39 75 17.5 Q56 -4 32 -24 Q22 -15 13 -8 Q36 7 51 22 Q66 37 84 62 Q94 54 107 46 ZM123 205 Q126 194 130 172 Q134 150 141 126 Q130 126 119 122 Q115 139 111 160.5 Q107 182 102 198 L123 205 ZM43 185 Q50 174 60.5 160 Q71 146 86 125 Q76 121 68 111 Q60 125 47.5 142.5 Q35 160 26 171 Q34 177 43 185 Z" /><glyph glyph-name="uni5175" unicode="&#x5175;" d="M205 202 Q208 191 218 179 Q190 176 157 173 Q124 170 81 169 L81 136 L176 136 Q204 136 222 137 L222 117 Q201 118 175 118 L175 68 L202 68 Q225 68 243 69 L243 49 Q225 50 204 50 L58 50 Q32 50 14 49 L14 69 Q30 68 61 68 L61 143 Q61 170 60 186 Q105 186 146 191 Q187 196 205 202 ZM155 68 L155 118 L81 118 L81 68 L155 68 ZM98 32 Q93 28 72 9.5 Q51 -9 36 -23 Q28 -13 19 -9 Q55 19 78 47 Q89 37 98 32 ZM178 48 Q191 36 205 21 Q219 6 231 -9 Q219 -15 211 -23 Q201 -6 162 35 Q171 41 178 48 Z" /><glyph glyph-name="uni5176" unicode="&#x5176;" d="M189 55 Q222 55 241 56 L241 40 Q223 41 210 41 L49 41 Q27 41 13 40 L13 56 Q21 55 66 55 L66 158 Q42 158 27 157 L27 174 Q35 173 66 173 Q66 195 65 205 L89 205 Q87 194 87 173 L168 173 Q168 191 167 204 L190 204 Q189 191 189 173 Q211 173 227 174 L227 157 Q210 158 189 158 L189 55 ZM168 55 L168 80 L87 80 L87 55 L168 55 ZM168 95 L168 120 L87 120 L87 95 L168 95 ZM168 134 L168 158 L87 158 L87 134 L168 134 ZM167 35 Q208 9 230 -9 Q220 -16 213 -25 Q201 -10 153 20 Q163 28 167 35 ZM21 -11 Q32 -5 51 8.5 Q70 22 83 35 Q91 27 99 20 Q88 12 36 -26 Q30 -17 21 -11 Z" /><glyph glyph-name="uni5177" unicode="&#x5177;" d="M200 196 Q199 183 199 163 L199 54 L214 54 Q228 54 242 56 L242 37 Q230 39 215 39 L49 39 Q28 39 16 37 L16 56 Q28 55 47 54 L57 54 L57 161 Q57 181 56 196 L200 196 ZM179 54 L179 74 L77 74 L77 54 L179 54 ZM179 89 L179 109 L77 109 L77 89 L179 89 ZM179 160 L179 179 L77 179 L77 160 L179 160 ZM179 125 L179 144 L77 144 L77 125 L179 125 ZM109 18 Q98 13 79.5 0.5 Q61 -12 36 -24 Q30 -14 22 -6 Q62 10 92 36 Q99 25 109 18 ZM192 19 Q213 9 231 -3 Q221 -11 216 -20 Q197 -6 145 19 Q154 27 159 36 L192 19 Z" /><glyph glyph-name="uni5178" unicode="&#x5178;" d="M214 170 Q213 156 213 138 L213 61 Q235 61 244 62 L244 43 Q231 44 208 44 L40 44 Q25 44 15 43 L15 62 Q25 61 43 61 L43 135 Q43 156 42 170 L94 170 Q94 197 93 206 L115 206 Q114 197 113 170 L144 170 Q144 196 143 207 L165 207 Q164 198 163 170 L214 170 ZM220 -21 Q206 -8 149 20 L163 36 Q175 30 198 18 Q221 6 236 -3 Q228 -11 220 -21 ZM112 17 Q59 -14 38 -25 Q31 -16 22 -9 Q46 0 63 10 Q80 20 93 33 Q102 25 112 17 ZM94 61 L94 102 L63 102 L63 61 L94 61 ZM144 61 L144 102 L113 102 L113 61 L144 61 ZM193 61 L193 102 L163 102 L163 61 L193 61 ZM144 119 L144 153 L113 153 L113 119 L144 119 ZM94 119 L94 153 L63 153 L63 119 L94 119 ZM193 119 L193 153 L163 153 L163 119 L193 119 Z" /><glyph glyph-name="uni517B" unicode="&#x517b;" d="M91 210 Q101 195 109 176 L150 176 Q156 190 162 212 Q173 206 185 203 Q179 196 174.5 189 Q170 182 168 176 L183 176 Q202 176 223 177 L223 160 Q203 161 184 161 L137 161 Q135 148 134 140 L169 140 Q191 140 208 141 L208 125 Q196 126 174 126 L131 126 Q127 116 122 105 L186 105 Q208 105 230 106 L230 89 Q208 90 190 90 L165 90 Q189 58 242 49 Q235 43 231 31 Q201 38 175 57 Q175 -12 176 -25 L155 -25 Q156 -12 156 18 Q156 48 155 63 L168 63 Q156 75 147 90 L113 90 Q101 73 91 65 Q100 63 110 60 Q105 46 102.5 29.5 Q100 13 91 -1 Q82 -15 56 -28 Q49 -18 41 -14 Q71 -3 80 16.5 Q89 36 88 62 Q65 43 25 29 Q22 37 10 44 Q42 51 63 64 Q84 77 93 90 L62 90 Q40 90 22 89 L22 106 Q40 105 57 105 L103 105 Q109 116 112 126 L94 126 Q71 126 45 125 L45 141 Q71 140 89 140 L116 140 Q118 150 119 161 L75 161 Q52 161 31 160 L31 177 Q53 176 70 176 L88 176 Q84 186 74 201 Q81 204 91 210 Z" /><glyph glyph-name="uni517C" unicode="&#x517c;" d="M91 45 Q72 1 30 -23 Q23 -15 13 -9 Q55 12 74 48 Q51 48 39 47 L39 65 Q52 64 72 64 L91 64 L91 87 L49 87 Q29 87 14 86 L14 104 Q29 103 49 103 L91 103 L91 126 L73 126 Q55 126 39 125 L39 142 Q55 141 72 141 L91 141 L91 163 L65 163 Q40 163 21 162 L21 179 Q40 178 64 178 L84 178 Q79 190 72 202 Q82 205 91 209 Q96 200 104 185 Q97 182 89 178 L143 178 Q152 194 159 210 Q170 205 181 201 Q175 194 163 178 L199 178 Q218 178 234 179 L234 162 Q218 163 199 163 L160 163 L160 141 L210 141 L210 103 Q231 103 240 104 L240 86 Q229 87 210 87 L210 48 L178 48 Q203 13 240 0 Q229 -9 223 -19 Q185 0 160 47 L160 8 Q160 -14 161 -25 L141 -25 Q142 -14 142 8 L142 48 L109 48 L109 8 Q109 -13 110 -25 L90 -25 Q91 -17 91 8 L91 45 ZM142 64 L142 87 L109 87 L109 64 L142 64 ZM142 103 L142 126 L109 126 L109 103 L142 103 ZM192 64 L192 87 L160 87 L160 64 L192 64 ZM192 103 L192 126 L160 126 L160 103 L192 103 ZM142 141 L142 163 L109 163 L109 141 L142 141 Z" /><glyph glyph-name="uni517D" unicode="&#x517d;" d="M87 211 Q99 200 111 188 Q104 182 98 176 L144 176 Q156 195 160 210 Q170 204 183 199 Q173 191 164 176 L213 176 Q212 163 212 133 Q212 103 213 89 L41 89 Q42 104 42 131 Q42 159 41 176 L94 176 Q87 187 72 198 Q79 204 87 211 ZM208 45 Q207 31 207 11 Q207 -8 208 -23 L187 -23 L187 -10 L68 -10 L68 -26 L47 -26 Q48 -10 48 12 Q48 35 47 45 L208 45 ZM202 73 Q222 73 242 74 L242 57 Q222 58 202 58 L53 58 Q31 58 14 57 L14 74 Q29 73 53 73 L202 73 ZM187 5 L187 30 L68 30 L68 5 L187 5 ZM193 104 L193 125 L136 125 L136 104 L193 104 ZM193 139 L193 160 L136 160 L136 139 L193 139 ZM117 139 L117 160 L61 160 L61 139 L117 139 ZM117 104 L117 125 L61 125 L61 104 L117 104 Z" /><glyph glyph-name="uni5180" unicode="&#x5180;" d="M212 135 Q211 124 211 102 Q211 80 212 69 L170 69 L170 59 L191 59 Q207 59 217 60 L217 42 Q208 44 192 44 L170 44 L170 30 L203 30 Q229 30 241 31 L241 15 Q223 16 200 16 L56 16 Q33 16 18 15 L18 32 Q34 30 53 30 L85 30 L85 44 L69 44 Q48 44 37 43 L37 60 Q49 59 69 59 L85 59 L85 69 L43 69 Q44 85 44 104 L44 135 L212 135 ZM94 138 Q95 143 95 148 Q36 141 21 136 Q20 146 17 154 Q74 158 95 162 L95 172 L52 172 Q34 172 21 171 L21 188 Q34 187 52 187 L95 187 Q95 193 94 202 L114 202 Q113 188 113 169 Q113 150 114 138 L94 138 ZM159 201 Q157 191 157 184 Q194 189 213 198 Q218 188 222 181 Q210 177 157 170 L157 163 Q156 156 167 156 L209 156 Q220 156 222 173 Q230 167 240 164 Q235 142 215 142 L158 142 Q139 142 139 154 L139 183 Q139 188 138 201 L159 201 ZM159 14 Q186 4 198.5 -0.5 Q211 -5 229 -13 Q223 -21 219 -28 Q202 -19 149 -2 Q155 7 159 14 ZM111 0 Q74 -18 35 -28 Q33 -21 26 -15 Q46 -9 63.5 -2.5 Q81 4 100 14 Q104 7 111 0 ZM193 84 L193 96 L136 96 L136 84 L193 84 ZM193 109 L193 121 L136 121 L136 109 L193 109 ZM118 84 L118 96 L62 96 L62 84 L118 84 ZM118 109 L118 121 L62 121 L62 109 L118 109 ZM151 30 L151 44 L103 44 L103 30 L151 30 ZM151 59 L151 69 L103 69 L103 59 L151 59 Z" /><glyph glyph-name="uni5185" unicode="&#x5185;" d="M57 52 Q87 73 101.5 95 Q116 117 117 150 L49 150 L49 -20 L26 -20 Q28 0 28 14 L28 125 Q28 145 27 167 L118 167 Q118 194 117 207 Q133 206 142 206 Q137 193 137 167 L231 167 Q229 146 229 125 L229 3 Q229 -12 217 -15.5 Q205 -19 184 -22 Q181 -12 170 0 Q194 0 201 1.5 Q208 3 208 11 L208 150 L136 150 Q136 132 133 115 Q142 108 165 90.5 Q188 73 198 63 Q187 54 181 47 Q164 67 127 97 Q109 66 80 39 Q68 49 57 52 Z" /><glyph glyph-name="uni5188" unicode="&#x5188;" d="M235 198 Q234 188 234 162 L234 15 Q234 -10 221.5 -14 Q209 -18 185 -22 Q181 -9 175 2 Q196 2 203.5 4.5 Q211 7 211 20 L211 180 L51 180 L51 -22 L27 -22 Q29 0 29 18 L29 162 Q29 184 28 198 L235 198 ZM189 141 Q183 136 172.5 121 Q162 106 150 89 Q181 59 196 44 Q188 39 176 29 Q165 44 136 72 Q114 49 83 23 Q75 33 64 41 Q95 59 121 87 Q108 100 69 134 Q78 140 87 147 Q119 118 135 103 Q151 124 165 153 Q177 145 189 141 Z" /><glyph glyph-name="uni518C" unicode="&#x518c;" d="M114 197 Q113 182 113 161 L113 102 L144 102 L144 162 Q144 181 143 197 L217 197 Q216 183 216 161 L216 102 Q230 102 246 103 L246 84 Q229 85 216 85 L216 7 Q216 -11 208.5 -15.5 Q201 -20 180 -24 Q178 -11 171 -1 Q184 -1 189.5 0 Q195 1 197 11 L197 85 L162 85 Q160 15 136 -26 Q128 -18 117 -15 Q141 17 143 85 L113 85 L113 1 Q113 -14 103.5 -17 Q94 -20 81 -23 Q78 -13 72 -1 Q84 -1 88.5 -0.5 Q93 0 94 8 L94 85 L62 85 Q60 17 34 -25 Q25 -18 14 -15 Q41 22 42 85 Q29 85 11 84 L11 103 Q28 102 43 102 L43 160 Q43 182 42 197 L114 197 ZM197 102 L197 179 L163 179 L163 102 L197 102 ZM94 102 L94 179 L62 179 L62 102 L94 102 Z" /><glyph glyph-name="uni518D" unicode="&#x518d;" d="M161 -5 Q175 -6 181.5 -5 Q188 -4 188 7 L188 35 L67 35 L67 -26 L45 -26 Q47 -9 47 8 L47 35 Q24 35 9 34 L9 53 Q23 51 47 51 L47 113 Q47 135 45 148 L118 148 L118 179 L62 179 Q42 179 24 178 L24 197 Q42 196 61 196 L194 196 Q217 196 231 197 L231 178 Q217 179 194 179 L138 179 L138 148 L209 148 Q208 135 208 110 L208 51 Q233 51 248 53 L248 34 Q234 35 208 35 L208 -7 Q208 -19 198 -22 Q188 -25 170 -27 Q167 -16 161 -5 ZM118 99 L118 133 L67 133 L67 99 L118 99 ZM188 99 L188 133 L138 133 L138 99 L188 99 ZM118 51 L118 84 L67 84 L67 51 L118 51 ZM188 51 L188 84 L138 84 L138 51 L188 51 Z" /><glyph glyph-name="uni5192" unicode="&#x5192;" d="M206 105 Q205 83 205.5 44.5 Q206 6 206 -21 L187 -21 L187 -12 L71 -12 L71 -23 L52 -23 Q53 1 53 42 Q53 83 52 105 L206 105 ZM233 204 Q232 184 232 163 Q232 142 233 126 L212 126 L212 187 L50 187 L50 126 L29 126 Q30 143 30 163 Q30 184 29 204 L233 204 ZM187 69 L187 89 L71 89 L71 69 L187 69 ZM187 3 L187 22 L71 22 L71 3 L187 3 ZM169 141 Q174 141 191 142 L191 122 Q175 124 169 124 L93 124 Q87 124 72 122 L72 142 Q87 141 91 141 L169 141 ZM158 174 Q171 174 191 175 L191 156 Q173 157 158 157 L106 157 Q90 157 72 156 L72 175 Q91 174 105 174 L158 174 ZM187 37 L187 53 L71 53 L71 37 L187 37 Z" /><glyph glyph-name="uni5195" unicode="&#x5195;" d="M155 36 L155 6 Q155 -5 168 -5 L201 -5 Q215 -6 218 -2 Q221 2 222 16 Q233 8 244 5 Q237 -14 232.5 -17.5 Q228 -21 217 -21 L159 -21 Q136 -21 136 -2 L136 36 L126 36 Q102 -8 30 -26 Q27 -16 21 -7 Q78 3 105 36 L66 36 L66 26 L45 26 Q48 43 48 78 Q42 72 32 64 Q25 72 16 80 Q27 86 45.5 101 Q64 116 70 127 Q78 123 93 119 Q88 115 83 110 L187 110 Q178 99 166 81 L214 81 Q213 74 213 58 Q213 43 214 36 L155 36 ZM217 196 Q215 180 215 161 Q215 143 217 126 L194 126 L194 182 L57 182 L57 125 L34 125 Q35 144 35 162 Q35 180 34 196 L217 196 ZM148 171 Q161 171 177 172 L177 155 Q161 156 148 156 L104 156 Q90 156 74 154 L74 172 Q90 171 103 171 L148 171 ZM159 143 Q162 143 177 144 L177 127 Q163 128 159 128 L92 128 Q86 128 74 127 L74 144 Q86 143 91 143 L159 143 ZM71 97 Q62 89 51 81 L146 81 Q150 89 155 97 L71 97 ZM193 49 L193 67 L138 67 Q135 57 132 49 L193 49 ZM112 49 Q116 58 118 67 L66 67 L66 49 L112 49 Z" /><glyph glyph-name="uni5197" unicode="&#x5197;" d="M237 26 Q230 -2 222.5 -6.5 Q215 -11 187 -11 Q160 -11 155.5 -4.5 Q151 2 152 12 L152 111 L99 111 Q99 41 79.5 16 Q60 -9 32 -22 Q28 -14 14 -7 Q39 1 55 17 Q71 33 76 59.5 Q81 86 79 130 L172 130 Q171 115 171 102 L171 18 Q171 11 174.5 8.5 Q178 6 189.5 5.5 Q201 5 206.5 8 Q212 11 214 35 Q226 28 237 26 ZM227 187 Q226 172 226 161 Q226 150 227 140 L206 140 L206 169 L48 169 L48 138 L27 138 Q28 146 28 159 Q28 173 27 187 L227 187 Z" /><glyph glyph-name="uni5199" unicode="&#x5199;" d="M92 161 Q89 145 88 133 L172 133 Q188 133 203 134 L203 116 Q189 117 179 117 L87 117 L83 85 L220 85 Q220 57 216.5 24 Q213 -9 200 -14.5 Q187 -20 159 -23 Q157 -12 150 -2 Q176 -2 181.5 0 Q187 2 192 7.5 Q197 13 199 69 L62 69 Q70 148 70 163 L92 161 ZM235 192 Q234 181 234 171 Q234 161 235 147 L215 147 L215 175 L42 175 L42 142 L22 142 Q23 154 23 166 Q23 179 22 192 L235 192 ZM132 39 Q150 39 169 40 L169 21 Q150 22 132 22 L62 22 Q41 22 25 21 L25 40 Q41 39 61 39 L132 39 Z" /><glyph glyph-name="uni519B" unicode="&#x519b;" d="M89 142 Q104 162 108 177 Q118 169 132 164 Q125 160 113 142 L158 142 Q183 142 207 144 L207 123 Q183 125 157 125 L103 125 Q94 115 86.5 105.5 Q79 96 68 86 L122 86 Q122 102 120 112 L144 112 Q143 103 143 86 L167 86 Q191 86 210 87 L210 67 Q191 68 167 68 L143 68 L143 40 L208 40 Q224 40 240 41 L240 22 Q225 23 209 23 L143 23 L143 3 Q143 -14 144 -27 L119 -27 Q122 -14 122 3 L122 23 L52 23 Q30 23 17 22 L17 41 Q34 40 52 40 L122 40 L122 68 L80 68 Q65 68 48 65 Q43 79 39 87 Q53 93 78 125 Q60 125 48 123 L48 143 Q63 142 89 142 ZM233 197 Q232 185 232 174 Q232 164 233 151 L211 151 L211 180 L45 180 L45 147 L23 147 Q24 159 24 171 Q24 183 23 197 L233 197 Z" /><glyph glyph-name="uni519C" unicode="&#x519c;" d="M129 134 Q141 99 160 71 Q183 90 198 111 Q204 103 214 94 Q201 83 171 56 Q194 25 241 7 Q230 1 223 -13 Q183 9 158 40 Q133 71 117 113 Q105 96 93 82 L93 7 Q112 17 130 33 Q134 21 139 12 Q91 -18 77 -26 Q72 -17 65 -9 Q72 -4 73 6 L73 63 Q52 45 26 31 Q22 41 10 48 Q38 58 69.5 88 Q101 118 114 149 L56 149 L56 123 L35 123 Q36 133 36 144 Q36 155 35 166 L119 166 Q124 188 124 206 Q134 203 149 201 Q146 195 140 166 L225 166 Q224 154 224 143 Q224 132 225 124 L205 124 L205 149 L135 149 Q132 141 129 134 Z" /><glyph glyph-name="uni51A0" unicode="&#x51a0;" d="M131 81 Q114 82 108 82 L108 16 Q108 0 124 0 L199 0 Q209 0 211.5 4 Q214 8 216 28 Q226 21 238 18 Q232 -6 226 -11 Q220 -16 204 -16 L115 -16 Q89 -16 89 9 L89 82 L72 82 Q70 17 28 -21 Q22 -13 12 -6 Q52 23 52 82 Q35 82 25 81 L25 99 Q37 98 51 98 L93 98 Q122 98 131 99 L131 81 ZM131 124 Q144 123 184 123 Q184 150 183 156 L204 156 Q203 150 203 123 Q225 123 235 124 L235 106 Q225 107 203 107 L203 41 Q203 25 191.5 21 Q180 17 163 15 Q160 25 154 37 Q169 36 176 37 Q183 38 184 48 L184 107 Q143 107 131 106 L131 124 ZM229 196 Q228 185 228 175 Q228 166 229 156 L209 156 L209 179 L46 179 L46 153 L25 153 Q26 161 26 172 Q26 183 25 196 L229 196 ZM120 128 Q108 129 97 129 L70 129 Q57 129 46 128 L46 146 Q57 145 70 145 L96 145 Q109 145 120 146 L120 128 ZM151 91 Q158 80 169 62 Q159 57 152 51 Q146 65 135 81 Q143 85 151 91 Z" /><glyph glyph-name="uni51A4" unicode="&#x51a4;" d="M223 24 Q230 18 243 15 Q233 -18 215 -18 L157 -18 Q140 -17 139 -7 Q138 3 138 20 L138 53 L130 53 Q111 -3 38 -28 Q33 -18 21 -12 Q87 2 111 53 L67 53 L67 43 L48 43 Q49 92 48 101 Q43 97 27 87 Q18 97 12 102 Q31 110 56.5 132 Q82 154 92 175 Q103 167 111 163 Q106 158 100 150 L179 150 Q174 139 159 112 L212 112 Q211 95 211 81 Q211 68 212 53 L157 53 L157 20 Q157 2 163.5 0.5 Q170 -1 191 -1 Q212 -1 215 2.5 Q218 6 223 24 ZM229 195 Q228 181 228 170 Q228 159 229 147 L209 147 L209 179 L44 179 L44 147 L24 147 Q25 157 25 169 Q25 181 24 195 L229 195 ZM137 112 Q146 127 149 134 L88 134 Q75 123 61 112 L137 112 ZM193 69 L193 96 L141 96 Q139 84 135 69 L193 69 ZM116 69 Q120 80 122 96 L67 96 L67 69 L116 69 ZM192 8 Q182 24 171 37 Q179 42 185 47 Q196 35 207 18 Q201 15 192 8 Z" /><glyph glyph-name="uni51AC" unicode="&#x51ac;" d="M24 126 Q46 144 63.5 167.5 Q81 191 88 211 Q97 205 110 201 Q104 195 96 182 L211 182 Q201 165 184.5 145.5 Q168 126 147 109 Q190 87 246 81 Q235 68 232 58 Q168 74 131 98 Q91 75 24 56 Q21 66 12 77 Q74 88 115 110 Q93 131 77 152 Q61 133 41 112 Q35 119 24 126 ZM74 30 Q94 26 121.5 18 Q149 10 184 1 Q179 -8 176 -21 Q151 -10 68 9 Q73 20 74 30 ZM132 121 Q155 139 176 166 L88 166 Q110 139 132 121 ZM169 33 Q117 50 93 54 Q97 65 98 74 Q117 71 136.5 65.5 Q156 60 176 53 Q171 41 169 33 Z" /><glyph glyph-name="uni51AF" unicode="&#x51af;" d="M167 -26 Q165 -14 158 -2 Q196 -4 206.5 2.5 Q217 9 219 74 L101 74 Q106 134 106 156 L129 156 Q126 147 123 92 L177 92 Q185 158 187 181 L130 181 Q104 181 84 180 L84 200 Q104 199 129 199 L211 199 Q209 188 198 92 L242 92 Q239 56 235.5 23.5 Q232 -9 214 -16 Q196 -23 167 -26 ZM192 29 Q175 30 157 30 L108 30 Q84 30 72 29 L72 50 Q84 49 108 49 L158 49 Q176 49 192 50 L192 29 ZM82 90 Q76 77 63.5 52 Q51 27 36 -7 Q26 1 13 6 Q21 14 33.5 35 Q46 56 64 100 Q72 94 82 90 ZM77 145 Q67 138 60 128 Q46 146 16 174 Q25 182 32 190 Q42 181 53 169.5 Q64 158 77 145 Z" /><glyph glyph-name="uni51B0" unicode="&#x51b0;" d="M166 207 Q164 197 164 175 Q164 153 166.5 139 Q169 125 175 113 Q199 135 213 162 Q222 151 233 142 Q222 136 212.5 125.5 Q203 115 183 95 Q196 70 209 53 Q222 36 245 21 Q231 15 224 3 Q185 38 163 98 L163 6 Q163 -15 152 -19 Q141 -23 125 -26 Q123 -12 116 1 Q132 -2 138 0 Q144 2 144 14 L144 170 Q144 192 143 207 L166 207 ZM132 142 Q128 91 116.5 60.5 Q105 30 77 -4 Q67 6 55 11 Q73 23 91 52 Q109 81 113 124 Q88 124 74 123 L74 143 Q88 142 106 142 L132 142 ZM73 90 Q62 72 48 46.5 Q34 21 27 7 Q18 19 9 26 Q27 48 39 69 Q51 90 59 107 Q66 96 73 90 ZM32 186 Q50 165 68 141 Q57 134 49 127 Q45 136 16 172 Q25 179 32 186 Z" /><glyph glyph-name="uni51B2" unicode="&#x51b2;" d="M152 160 Q152 190 151 207 L173 207 Q172 191 172 160 L234 160 Q233 148 233 130 L233 64 Q233 52 234 42 L213 42 L213 61 L172 61 Q172 -10 173 -22 L151 -22 Q152 -5 152 61 L109 61 L109 40 L88 40 Q89 48 89 62 L89 128 Q89 148 88 160 L152 160 ZM152 78 L152 143 L109 143 L109 78 L152 78 ZM213 78 L213 143 L172 143 L172 78 L213 78 ZM79 83 Q68 62 53 33.5 Q38 5 31 -8 Q22 1 9 9 Q23 24 37 48 Q51 72 60 96 Q66 89 79 83 ZM30 182 Q59 156 74 139 Q63 131 56 123 Q47 136 14 166 L30 182 Z" /><glyph glyph-name="uni51B3" unicode="&#x51b3;" d="M136 148 Q107 148 89 147 L89 166 Q107 165 136 165 Q136 193 135 208 Q146 207 158 206 Q156 192 156 165 L215 165 Q214 149 214 92 Q230 92 242 93 L242 74 Q227 75 212 75 L161 75 Q190 13 248 2 Q237 -6 233 -21 Q171 0 148 60 Q126 6 72 -26 Q66 -16 55 -10 Q114 20 132 75 L116 75 Q98 75 80 74 L80 93 Q98 92 116 92 L134 92 Q136 125 136 148 ZM194 92 L194 148 L156 148 Q155 114 154 92 L194 92 ZM73 86 Q62 67 50 43.5 Q38 20 32 6 Q23 14 10 21 Q21 34 34 56 Q47 78 55 100 Q62 92 73 86 ZM30 189 Q41 177 51 165 Q61 153 72 140 Q64 134 55 125 Q46 138 14 174 Q22 181 30 189 Z" /><glyph glyph-name="uni51B5" unicode="&#x51b5;" d="M218 195 Q217 180 217 147 Q217 114 218 95 L183 95 L183 16 Q183 2 190.5 1 Q198 0 208 0.5 Q218 1 220 7.5 Q222 14 223 33 Q234 27 246 24 Q239 -7 231 -11.5 Q223 -16 207 -16.5 Q191 -17 177.5 -14.5 Q164 -12 164 8 L164 95 L139 95 Q140 6 64 -25 Q61 -15 51 -6 Q120 15 120 95 L93 95 Q94 114 94 147 Q94 181 93 195 L218 195 ZM196 111 L196 179 L114 179 L114 111 L196 111 ZM81 88 Q70 69 54 40 Q38 11 31 0 Q21 7 12 12 Q32 39 64 100 Q74 92 81 88 ZM38 198 Q44 191 54 178.5 Q64 166 74 152 Q63 145 55 138 Q43 161 21 184 Q31 193 38 198 Z" /><glyph glyph-name="uni51B6" unicode="&#x51b6;" d="M217 81 Q216 65 216 26 Q216 -12 217 -28 L196 -28 L196 -4 L112 -4 L112 -28 L90 -28 Q91 -10 91 27 Q91 65 90 81 L217 81 ZM166 199 Q154 192 110 126 Q137 127 197 132 Q190 142 177 158 Q188 164 196 169 Q207 156 219.5 139 Q232 122 241 109 Q229 102 220 96 Q213 106 207 116 Q167 113 136 110 Q105 107 85 103 Q81 117 76 127 Q90 132 110 158 Q130 184 138 211 Q149 204 166 199 ZM196 14 L196 63 L112 63 L112 14 L196 14 ZM76 90 Q71 77 59.5 51 Q48 25 34 -8 Q24 -1 10 4 Q17 12 29 33.5 Q41 55 58 100 Q66 95 76 90 ZM32 191 Q40 182 49.5 169 Q59 156 68 143 Q58 137 48 129 Q39 148 14 179 Q22 185 32 191 Z" /><glyph glyph-name="uni51B7" unicode="&#x51b7;" d="M177 -27 Q158 -6 112 29 Q118 37 123 45 Q144 29 155 20 Q168 37 189 67 L122 67 Q105 67 88 66 L88 85 Q105 84 122 84 L226 84 Q217 71 169 8 Q177 2 192 -11 Q184 -20 177 -27 ZM162 191 Q196 136 247 114 Q240 107 232 95 Q187 121 153 174 Q130 129 86 92 Q77 102 70 107 Q98 123 118.5 152 Q139 181 146 210 Q159 204 168 201 Q165 197 162 191 ZM73 94 Q61 70 49 45 Q37 20 28 4 Q20 11 9 17 Q23 36 35 59 Q47 82 56 106 Q64 98 73 94 ZM33 188 Q57 163 74 143 Q66 137 58 128 Q47 145 18 174 Q25 180 33 188 ZM151 139 Q163 125 181 102 Q174 97 165 89 Q149 114 137 126 Q144 132 151 139 Z" /></font>
</defs>
</svg>
